<?xml version="1.0" encoding="utf-8"?>
<!-- Generator: Adobe Illustrator 15.1.0, SVG Export Plug-In . SVG Version: 6.00 Build 0)  -->
<!DOCTYPE svg PUBLIC "-//W3C//DTD SVG 1.1//EN" "http://www.w3.org/Graphics/SVG/1.1/DTD/svg11.dtd">
<svg version="1.1" id="Capa_1" xmlns="http://www.w3.org/2000/svg" xmlns:xlink="http://www.w3.org/1999/xlink" x="0px" y="0px"
	 width="509.649px" height="510.527px" viewBox="0 0 509.649 510.527" enable-background="new 0 0 509.649 510.527"
	 xml:space="preserve">
<path fill="#00427A" d="M254.737,11.088c-134.757,0-244,109.243-244,244s109.243,244,244,244c134.758,0,244-109.242,244-244
	S389.495,11.088,254.737,11.088z M150.749,242.99l46.799-46.799c8.509-8.517,22.312-8.517,30.829,0l49.989,49.987l49.986-49.994
	l-22.074-22.074c-10.302-10.302-3.004-27.914,11.562-27.914h80.436c6.021,0,10.898,4.879,10.893,10.9v80.429
	c0,14.566-17.611,21.863-27.912,11.562l-22.076-22.075l-65.404,65.406c-8.509,8.517-22.312,8.517-30.828,0l-49.989-49.986
	l-31.381,31.388c-4.258,4.259-11.16,4.259-15.418,0l-15.411-15.409C146.491,254.15,146.491,247.248,150.749,242.99z
	 M420.077,386.016H103.95c-12.039,0-21.802-9.763-21.802-21.802V135.296c0-6.023,4.878-10.901,10.901-10.901h21.802
	c6.022,0,10.9,4.878,10.9,10.901v207.118h294.326c6.021,0,10.9,4.879,10.9,10.9v21.803
	C430.977,381.138,426.098,386.016,420.077,386.016z"/>
</svg>
