<?xml version="1.0" encoding="utf-8"?>
<!-- Generator: Adobe Illustrator 15.1.0, SVG Export Plug-In . SVG Version: 6.00 Build 0)  -->
<!DOCTYPE svg PUBLIC "-//W3C//DTD SVG 1.1//EN" "http://www.w3.org/Graphics/SVG/1.1/DTD/svg11.dtd">
<svg version="1.1" id="Capa_1" xmlns="http://www.w3.org/2000/svg" xmlns:xlink="http://www.w3.org/1999/xlink" x="0px" y="0px"
	 width="509.649px" height="510.527px" viewBox="0 0 509.649 510.527" enable-background="new 0 0 509.649 510.527"
	 xml:space="preserve">
<g>
	<path fill="#DADADA" d="M254.737,112.25c-78.613,0-142.609,63.997-142.609,142.61s63.996,142.608,142.609,142.608
		c78.613,0,142.609-63.995,142.609-142.609C397.346,176.246,333.35,112.25,254.737,112.25z M347.077,172.503l-67.025,79.147
		c0.803,7.311-1.604,14.975-7.221,20.59c-9.893,9.805-25.755,9.805-35.649,0c-9.894-9.895-9.894-25.848,0-35.653
		c5.615-5.615,13.191-8.021,20.589-7.219l22.461-18.183c-14.617-13.638-34.226-22.016-55.795-22.016
		c-45.279,0-84.318,36.9-82.536,86.813c-0.892-5.615-1.248-11.408-1.248-17.291c0-63.729,51.517-117.92,115.335-117.92
		c28.346,0,54.189,12.746,74.248,29.948l8.379-6.773C344.135,158.331,352.692,166.709,347.077,172.503z"/>
	<path fill="#DADADA" d="M245.913,245.322c-4.992,4.992-4.992,13.013,0,18.005c4.991,4.901,13.013,4.901,18.003,0
		c4.992-4.902,4.992-13.014,0-18.005C258.926,240.331,250.904,240.331,245.913,245.322z"/>
	<path fill="#DADADA" d="M254.737,11.088c-134.757,0-244,109.243-244,244c0,134.758,109.243,244,244,244
		c134.758,0,244-109.242,244-244S389.495,11.088,254.737,11.088z M254.737,454.513c-110.077,0-199.653-89.577-199.653-199.653
		c0-110.077,89.576-199.653,199.653-199.653c110.076,0,199.652,89.576,199.652,199.653
		C454.389,364.936,364.813,454.513,254.737,454.513z"/>
</g>
</svg>
