<?xml version="1.0" encoding="utf-8"?>
<!-- Generator: Adobe Illustrator 15.1.0, SVG Export Plug-In . SVG Version: 6.00 Build 0)  -->
<!DOCTYPE svg PUBLIC "-//W3C//DTD SVG 1.1//EN" "http://www.w3.org/Graphics/SVG/1.1/DTD/svg11.dtd">
<svg version="1.1" id="Capa_1" focusable="false" xmlns="http://www.w3.org/2000/svg" xmlns:xlink="http://www.w3.org/1999/xlink"
	 x="0px" y="0px" width="612px" height="792px" viewBox="0 0 612 792" enable-background="new 0 0 612 792" xml:space="preserve">
<path fill="#DC3545" d="M561,124H51c-28.156,0-51,22.844-51,51v340c0,28.156,22.844,51,51,51h204l-17,51h-76.5
	c-14.131,0-25.5,11.369-25.5,25.5s11.369,25.5,25.5,25.5h289c14.131,0,25.5-11.369,25.5-25.5S464.631,617,450.5,617H374l-17-51h204
	c28.156,0,51-22.844,51-51V175C612,146.844,589.156,124,561,124z M544,498H68V192h476V498z"/>
<g>
	
		<line fill="none" stroke="#DC3545" stroke-width="26" stroke-miterlimit="10" x1="191.372" y1="240.77" x2="117.126" y2="315.016"/>
	
		<line fill="none" stroke="#DC3545" stroke-width="26" stroke-miterlimit="10" x1="191.372" y1="315.016" x2="117.126" y2="240.77"/>
</g>
<g>
	
		<line fill="none" stroke="#DC3545" stroke-width="26" stroke-miterlimit="10" x1="495.187" y1="240.769" x2="420.94" y2="315.015"/>
	
		<line fill="none" stroke="#DC3545" stroke-width="26" stroke-miterlimit="10" x1="495.187" y1="315.015" x2="420.94" y2="240.769"/>
</g>
<line fill="none" stroke="#DC3545" stroke-width="26" stroke-miterlimit="10" x1="165.118" y1="409.493" x2="456.492" y2="409.493"/>
<text transform="matrix(1 0 0 1 264.7905 547.8213)" fill="#FFFFFF" font-family="'Myriad-Roman'" font-size="50.6297">500</text>
</svg>
