<?xml version="1.0" encoding="utf-8"?>
<!-- Generator: Adobe Illustrator 15.1.0, SVG Export Plug-In . SVG Version: 6.00 Build 0)  -->
<!DOCTYPE svg PUBLIC "-//W3C//DTD SVG 1.1//EN" "http://www.w3.org/Graphics/SVG/1.1/DTD/svg11.dtd">
<svg version="1.1" id="Capa_1" xmlns="http://www.w3.org/2000/svg" xmlns:xlink="http://www.w3.org/1999/xlink" x="0px" y="0px"
	 width="509.649px" height="510.527px" viewBox="0 0 509.649 510.527" enable-background="new 0 0 509.649 510.527"
	 xml:space="preserve">
<g>
	<path fill="#00427A" d="M106.114,351.051c-4.03-1.047-9.751-3.064-12.73-4.594c-6.044-2.98-6.77-2.74-5.802,2.498
		c2.095,10.797,23.605,18.85,45.037,16.838l6.203-0.564v-6.123V352.9h-12.648C115.7,352.824,112.155,352.5,106.114,351.051z"/>
	<path fill="#00427A" d="M106.114,325.27c-4.03-1.049-9.751-3.062-12.73-4.598c-6.044-2.979-6.77-2.736-5.802,2.498
		c1.208,6.047,8.703,11.686,20.221,14.988c5.397,1.531,8.379,1.85,18.289,1.85c6.446,0,11.924-0.156,12.167-0.4
		c0.163-0.242,0.563-3.143,0.806-6.445l0.402-6.041h-12.97C115.7,327.121,112.155,326.801,106.114,325.27z"/>
	<path fill="#00427A" d="M222.936,359.35c-9.185,4.672-18.049,6.365-32.55,6.365c-10.234,0-13.779-0.322-19.82-1.775
		c-4.031-1.047-9.751-3.061-12.722-4.59c-6.044-2.98-6.77-2.738-5.802,2.496c1.208,6.047,8.699,11.686,20.221,14.986
		c9.266,2.658,26.988,2.658,36.253,0c11.519-3.305,19.014-8.943,20.221-14.986C229.702,356.611,228.977,356.369,222.936,359.35z"/>
	<path fill="#00427A" d="M164.286,297.395c0.964-5.238,0.239-5.482-5.802-2.5c-9.185,4.676-18.05,6.365-32.55,6.365
		c-10.234,0-13.779-0.32-19.82-1.77c-4.03-1.051-9.751-3.062-12.722-4.596c-6.045-2.977-6.77-2.738-5.801,2.5
		c1.207,6.045,8.702,11.684,20.221,14.986c9.266,2.658,26.987,2.658,36.253,0C155.583,309.076,163.078,303.436,164.286,297.395z"/>
	<path fill="#00427A" d="M222.936,385.131c-9.185,4.672-18.049,6.365-32.55,6.365c-10.234,0-13.779-0.324-19.82-1.775
		c-4.031-1.045-9.751-3.062-12.722-4.59c-6.044-2.982-6.77-2.742-5.802,2.494c1.208,6.047,8.699,11.685,20.221,14.986
		c9.266,2.658,26.988,2.658,36.253,0c11.519-3.305,19.014-8.943,20.221-14.986C229.702,382.393,228.977,382.148,222.936,385.131z"/>
	<path fill="#00427A" d="M156.548,343.156c4.108,3.707,8.054,5.639,15.87,7.896c9.104,2.578,26.83,2.578,35.933,0
		c7.815-2.258,11.762-4.189,15.871-7.896c10.153-9.184,3.383-20.783-15.307-26.104c-6.771-1.932-23.446-2.82-29.97-1.609
		C155.34,319.715,144.948,332.684,156.548,343.156z"/>
	<path fill="#00427A" d="M129.156,211.271c14.018-0.726,24.005-3.95,30.613-9.91c10.153-9.185,3.383-20.789-15.307-26.104
		c-6.77-1.933-23.446-2.819-29.969-1.608c-19.171,3.464-29.726,12.244-26.423,22.073C91.209,205.23,109.579,212.159,129.156,211.271
		z"/>
	<path fill="#00427A" d="M107.804,260.818c9.266,2.658,26.988,2.658,36.254,0c11.521-3.303,19.014-8.942,20.229-14.991
		c0.964-5.234,0.239-5.478-5.802-2.496c-9.185,4.672-18.05,6.365-32.55,6.365c-10.234,0-13.779-0.32-19.82-1.771
		c-4.03-1.046-9.751-3.06-12.73-4.591c-6.044-2.981-6.77-2.742-5.802,2.496C88.791,251.876,96.285,257.516,107.804,260.818z"/>
	<path fill="#00427A" d="M107.812,286.6c9.266,2.66,26.987,2.66,36.253,0c11.519-3.303,19.013-8.943,20.221-14.984
		c0.964-5.238,0.239-5.482-5.802-2.5c-9.185,4.672-18.05,6.365-32.55,6.365c-10.234,0-13.779-0.32-19.82-1.77
		c-4.03-1.051-9.751-3.064-12.73-4.596c-6.044-2.979-6.77-2.738-5.802,2.5C88.791,277.656,96.285,283.297,107.812,286.6z"/>
	<path fill="#00427A" d="M107.808,235.038c9.265,2.658,26.987,2.658,36.253,0c11.518-3.306,19.014-8.945,20.221-14.986
		c0.968-5.239,0.243-5.562-6.042-2.418c-9.508,4.672-17.887,6.284-32.306,6.284c-10.234,0-13.779-0.321-19.82-1.771
		c-4.03-1.045-9.751-3.059-12.73-4.591c-6.044-2.982-6.77-2.743-5.802,2.496C88.791,226.096,96.285,231.736,107.808,235.038z"/>
	<path fill="#00427A" d="M375.122,199.672l-4.273-1.852v24.974c0,13.774,0.24,24.973,0.482,24.973
		c0.807,0,49.389-27.716,49.389-28.199c0.076-0.243-9.266-4.351-20.707-9.185C388.651,205.47,377.372,200.717,375.122,199.672z"/>
	<path fill="#00427A" d="M220.193,135.378c-3.144-1.612-5.559-1.531-8.541,0.32c-9.667,5.883-11.198,24.333-2.739,33.194
		c4.915,5.157,9.585,5.157,14.5,0c3.302-3.464,5.64-9.83,5.64-15.469C229.054,146.014,225.108,137.875,220.193,135.378z"/>
	<path fill="#00427A" d="M286.257,246.236c4.914,5.157,9.586,5.157,14.501,0c3.302-3.464,5.639-9.829,5.639-15.469
		c0-7.414-3.949-15.549-8.864-18.045c-3.14-1.613-5.559-1.531-8.536,0.32C279.33,218.925,277.798,237.375,286.257,246.236z"/>
	<path fill="#00427A" d="M254.737,11.088c-134.757,0-244,109.243-244,244c0,134.758,109.243,244,244,244
		c134.758,0,244-109.242,244-244C498.737,120.331,389.495,11.088,254.737,11.088z M236.711,400.276
		c-17.725,23.202-74.925,23.202-92.65,0c-3.468-4.595-5.238-10.235-5.238-16.839v-4.996l-9.428,0.402
		c-21.672,0.967-41.009-5.799-49.789-17.24c-5.478-7.252-5.319-3.141-5.077-93.777l0.243-81.69l1.775-3.869
		c4.915-10.635,19.091-18.771,37.14-21.429c23.523-3.464,48.659,3.626,58.572,16.595c5.32,7.008,5.239,5.639,5.239,68.398v56.559
		l9.505-0.402c21.59-0.967,40.929,5.799,49.708,17.24c4.996,6.523,5.238,8.459,5.238,40.523S241.707,393.748,236.711,400.276z
		 M220.031,261.619c-3.626,3.227-10.312,0.162-10.312-4.59c0-2.334,77.101-131.804,79.919-134.38
		c3.624-3.141,10.313-0.081,10.313,4.671C299.953,129.654,222.851,259.123,220.031,261.619z M303.006,200.96
		c12.246,6.284,19.012,23.847,15.064,38.992c-2.496,9.667-7.811,16.997-15.064,20.866c-2.738,1.449-4.751,1.85-9.505,1.85
		c-4.752,0-6.766-0.4-9.505-1.85c-14.743-7.815-20.703-29.974-12.405-46.488c3.869-7.815,8.216-12.004,15.388-14.663
		C291.005,198.137,298.744,198.785,303.006,200.96z M240.735,162.612c-2.5,9.667-7.815,16.997-15.067,20.866
		c-2.739,1.45-4.752,1.852-9.505,1.852c-4.752,0-6.766-0.401-9.505-1.852c-14.743-7.815-20.704-30.05-12.406-46.487
		c3.865-7.653,8.378-12.085,15.226-14.581c4.189-1.612,11.923-0.968,16.19,1.211C237.915,129.905,244.681,147.468,240.735,162.612z
		 M434.891,373.041l-2.014,4.027c-2.494,5.158-7.33,9.99-12.486,12.486l-4.027,2.014l-78.791,0.244l-78.792,0.162l-1.934-1.934
		c-2.415-2.418-2.658-5.963-0.481-8.621l1.531-1.934l78.145-0.4c77.422-0.402,78.229-0.402,80.404-2.096
		c1.211-0.887,2.98-2.66,3.867-3.869c1.691-2.174,1.691-2.977,1.934-70.654c0.082-37.621,0.082-68.397-0.162-68.397
		c-0.158,0-36.734,20.865-81.367,46.325c-48.82,27.955-81.853,46.324-83.061,46.324c-4.351,0-7.414-5.639-5.237-9.666
		c0.401-0.805,24.33-14.986,53.172-31.42l52.366-29.977l-0.164-75.974c-0.236-75.326-0.236-76.051-1.93-78.227
		c-0.887-1.207-2.662-2.979-3.869-3.865c-2.172-1.693-2.496-1.693-97.161-1.693c-94.664,0-94.984,0-97.16,1.693
		c-5.478,4.112-5.559,4.112-5.96,26.266c-0.405,19.978-0.405,20.14-2.337,21.671c-2.662,2.175-6.203,1.936-8.622-0.482l-2.014-2.095
		l0.244-20.704c0.243-20.14,0.324-20.788,2.256-24.734c3.383-6.928,10.068-12.41,17.32-14.181c1.369-0.319,45.356-0.482,97.88-0.482
		l95.471,0.163l4.027,2.013c5.154,2.496,9.99,7.329,12.486,12.487l2.014,4.027l0.244,41.167l0.242,41.168l27.955,11.924
		c15.389,6.527,29.082,12.567,30.531,13.455c1.371,0.806,3.303,3.062,4.189,4.996c1.695,3.464,1.695,3.784,1.533,81.127
		L434.891,373.041z"/>
</g>
</svg>
