<?xml version="1.0" encoding="utf-8"?>
<!-- Generator: Adobe Illustrator 15.1.0, SVG Export Plug-In . SVG Version: 6.00 Build 0)  -->
<!DOCTYPE svg PUBLIC "-//W3C//DTD SVG 1.1//EN" "http://www.w3.org/Graphics/SVG/1.1/DTD/svg11.dtd">
<svg version="1.1" id="Capa_1" xmlns="http://www.w3.org/2000/svg" xmlns:xlink="http://www.w3.org/1999/xlink" x="0px" y="0px"
	 width="509.649px" height="510.527px" viewBox="0 0 509.649 510.527" enable-background="new 0 0 509.649 510.527"
	 xml:space="preserve">
<g>
	<path fill="#DADADA" d="M358.563,323.714c-16.477,0-29.844,13.367-29.844,29.843s13.367,29.84,29.844,29.84
		c16.473,0,29.84-13.364,29.84-29.84S375.036,323.714,358.563,323.714z"/>
	<path fill="#DADADA" d="M159.627,323.714c-16.475,0-29.841,13.367-29.841,29.843s13.366,29.84,29.841,29.84
		s29.841-13.364,29.841-29.84S176.102,323.714,159.627,323.714z"/>
	<path fill="#DADADA" d="M254.737,11.088c-134.757,0-244,109.243-244,244c0,134.758,109.243,244,244,244
		c134.758,0,244-109.242,244-244S389.495,11.088,254.737,11.088z M448.086,353.557h-29.842c0,32.948-26.732,59.685-59.686,59.685
		c-32.947,0-59.682-26.734-59.682-59.685h-79.57c0,32.948-26.733,59.685-59.682,59.685c-32.95,0-59.682-26.734-59.682-59.685V273.98
		h94.496c2.735,0,4.974-2.238,4.974-4.975v-9.945c0-2.734-2.239-4.974-4.974-4.974H65.131c-2.735,0-4.973-2.238-4.973-4.974v-9.947
		c0-2.735,2.238-4.973,4.973-4.973h149.204c2.736,0,4.974-2.239,4.974-4.974v-9.946c0-2.735-2.239-4.974-4.974-4.974H85.025
		c-2.735,0-4.973-2.238-4.973-4.973v-9.947c0-2.736,2.238-4.974,4.973-4.974h149.204c2.736,0,4.974-2.238,4.974-4.974v-9.947
		c0-2.736-2.238-4.974-4.974-4.974H65.131c-2.735,0-4.973-2.238-4.973-4.973v-9.947c0-2.735,2.238-4.973,4.973-4.973h34.814v-29.841
		c0-16.473,13.366-29.84,29.841-29.84h159.148c16.475,0,29.84,13.366,29.84,29.84v29.841h27.416c7.895,0,15.48,3.171,21.076,8.766
		l62.105,62.106c5.594,5.596,8.764,13.179,8.764,21.075v67.206h9.949c5.471,0,9.947,4.477,9.947,9.943v19.896
		C458.032,349.08,453.557,353.557,448.086,353.557z"/>
	<polygon fill="#DADADA" points="318.774,184.459 318.774,254.087 408.295,254.087 408.295,246.565 346.19,184.459 	"/>
</g>
</svg>
