<?xml version="1.0" encoding="utf-8"?>
<!-- Generator: Adobe Illustrator 15.1.0, SVG Export Plug-In . SVG Version: 6.00 Build 0)  -->
<!DOCTYPE svg PUBLIC "-//W3C//DTD SVG 1.1//EN" "http://www.w3.org/Graphics/SVG/1.1/DTD/svg11.dtd">
<svg version="1.1" id="Capa_1" xmlns="http://www.w3.org/2000/svg" xmlns:xlink="http://www.w3.org/1999/xlink" x="0px" y="0px"
	 width="509.649px" height="510.527px" viewBox="0 0 509.649 510.527" enable-background="new 0 0 509.649 510.527"
	 xml:space="preserve">
<g>
	<path fill="#DADADA" d="M254.737,11.088c-134.757,0-244,109.243-244,244c0,134.758,109.243,244,244,244
		c134.758,0,244-109.242,244-244S389.495,11.088,254.737,11.088z M268.604,447.339c-8.895,3.691-18.917,3.691-27.81,0
		C160.153,413.726,73.861,310.328,73.861,160.728c0-14.621,8.818-27.81,22.308-33.387l144.7-60.292
		c8.903-3.693,18.909-3.693,27.81,0l144.7,60.292c13.414,5.577,22.232,18.765,22.232,33.387
		C435.612,327.509,333.192,420.433,268.604,447.339z"/>
	<path fill="#DADADA" d="M254.812,400.613c70.616-35.119,130.005-117.795,132.491-231.897l-132.566-55.243L254.812,400.613z"/>
</g>
</svg>
