<?xml version="1.0" encoding="utf-8"?>
<!-- Generator: Adobe Illustrator 15.1.0, SVG Export Plug-In . SVG Version: 6.00 Build 0)  -->
<!DOCTYPE svg PUBLIC "-//W3C//DTD SVG 1.1//EN" "http://www.w3.org/Graphics/SVG/1.1/DTD/svg11.dtd">
<svg version="1.1" id="Capa_1" xmlns="http://www.w3.org/2000/svg" xmlns:xlink="http://www.w3.org/1999/xlink" x="0px" y="0px"
	 width="509.649px" height="510.527px" viewBox="0 0 509.649 510.527" enable-background="new 0 0 509.649 510.527"
	 xml:space="preserve">
<path fill="#DADADA" d="M254.737,11.088c-134.757,0-244,109.243-244,244c0,134.758,109.243,244,244,244
	c134.758,0,244-109.242,244-244S389.495,11.088,254.737,11.088z M403.446,143.819c23.512,0,42.629,19.117,42.629,42.629
	c0,23.513-19.117,42.629-42.629,42.629c-23.514,0-42.629-19.116-42.629-42.629C360.817,162.936,379.932,143.819,403.446,143.819z
	 M254.245,101.19c41.229,0,74.599,33.371,74.599,74.601c0,41.229-33.37,74.6-74.599,74.6c-41.23,0-74.6-33.37-74.601-74.6
	C179.644,134.56,213.015,101.19,254.245,101.19z M105.045,143.819c23.512,0,42.628,19.117,42.628,42.629
	c0,23.513-19.115,42.629-42.628,42.629c-23.513,0-42.628-19.116-42.628-42.629C62.417,162.936,81.533,143.819,105.045,143.819z
	 M62.417,335.645c-11.79,0-21.315-9.522-21.315-21.312V293.02c0-23.513,19.116-42.625,42.628-42.625h42.628
	c11.724,0,22.315,4.726,30.041,12.385c-26.842,14.722-45.892,41.298-50.089,72.869H62.417V335.645z M382.129,367.617
	c0,17.652-14.32,31.973-31.971,31.973H158.33c-17.65,0-31.972-14.32-31.972-31.973v-19.184c0-42.361,34.371-76.73,76.732-76.73
	h5.529c13.921,6.66,29.24,10.656,45.626,10.656c16.384,0,31.771-3.996,45.625-10.656h5.53c42.36,0,76.729,34.369,76.729,76.73
	V367.617z M446.073,335.646h-43.961c-4.129-31.572-23.18-58.148-50.021-72.869c7.73-7.659,18.316-12.386,30.039-12.386h42.629
	c23.518,0,42.629,19.114,42.627,42.626v21.312C467.385,326.121,457.862,335.646,446.073,335.646z"/>
</svg>
