<?xml version="1.0" encoding="utf-8"?>
<!-- Generator: Adobe Illustrator 15.1.0, SVG Export Plug-In . SVG Version: 6.00 Build 0)  -->
<!DOCTYPE svg PUBLIC "-//W3C//DTD SVG 1.1//EN" "http://www.w3.org/Graphics/SVG/1.1/DTD/svg11.dtd">
<svg version="1.1" id="Capa_1" xmlns="http://www.w3.org/2000/svg" xmlns:xlink="http://www.w3.org/1999/xlink" x="0px" y="0px"
	 width="728.379px" height="130px" viewBox="0 0 728.379 130" enable-background="new 0 0 728.379 130" xml:space="preserve">
<g id="Capa_2">
</g>
<path fill-rule="evenodd" clip-rule="evenodd" fill="#2F3F84" d="M117.498,39.791h-49.29V59.27h49.29
	c4.065,0,6.92-0.758,8.541-2.292c1.622-1.536,2.443-4.271,2.443-8.188c0-3.141-0.867-5.419-2.603-6.847
	C124.144,40.514,121.335,39.791,117.498,39.791L117.498,39.791z M673.947,83.357c2.554,0,4.622,2.2,4.622,4.911
	c0,2.712-2.068,4.914-4.622,4.914c-2.552,0-4.621-2.202-4.621-4.914C669.326,85.558,671.396,83.357,673.947,83.357L673.947,83.357z
	 M52.356,78.728c2.553,0,4.622,2.201,4.622,4.912c0,2.714-2.069,4.912-4.622,4.912c-2.55,0-4.619-2.198-4.619-4.912
	C47.737,80.929,49.806,78.728,52.356,78.728L52.356,78.728z M222.229,78.728c2.553,0,4.621,2.201,4.621,4.912
	c0,2.714-2.068,4.912-4.621,4.912c-2.55,0-4.621-2.198-4.621-4.912C217.608,80.929,219.678,78.728,222.229,78.728L222.229,78.728z
	 M389.651,83.936c2.551,0,4.619,2.201,4.619,4.912c0,2.714-2.068,4.912-4.619,4.912c-2.552,0-4.619-2.198-4.619-4.912
	C385.032,86.137,387.1,83.936,389.651,83.936L389.651,83.936z M389.651,53.848c2.551,0,4.619,2.199,4.619,4.913
	s-2.068,4.911-4.619,4.911c-2.552,0-4.619-2.197-4.619-4.911S387.1,53.848,389.651,53.848L389.651,53.848z M389.651,24.337
	c2.551,0,4.619,2.199,4.619,4.912c0,2.714-2.068,4.913-4.619,4.913c-2.552,0-4.619-2.199-4.619-4.913
	C385.032,26.536,387.1,24.337,389.651,24.337L389.651,24.337z M520.655,28.678c2.553,0,4.62,2.198,4.62,4.912
	c0,2.711-2.067,4.913-4.62,4.913c-2.552,0-4.621-2.201-4.621-4.913C516.034,30.876,518.104,28.678,520.655,28.678L520.655,28.678z
	 M433.137,76.992c2.552,0,4.623,2.2,4.623,4.911c0,2.713-2.071,4.913-4.623,4.913c-2.55,0-4.62-2.2-4.62-4.913
	C428.517,79.192,430.587,76.992,433.137,76.992L433.137,76.992z M566.858,83.357c2.554,0,4.623,2.2,4.623,4.911
	c0,2.712-2.069,4.914-4.623,4.914c-2.549,0-4.618-2.202-4.618-4.914C562.24,85.558,564.31,83.357,566.858,83.357L566.858,83.357z
	 M118.571,20.61c6.783,0,12.196,0.235,16.236,0.738c4.021,0.504,7.442,1.335,10.253,2.471c5.045,2.041,8.708,5.045,10.986,9.072
	c2.264,4.004,3.401,9.545,3.401,16.605c0,10.552-2.283,17.999-6.828,22.358c-4.543,4.358-12.24,6.544-23.065,6.544H68.208V97.58
	h-30.51V20.61H118.571L118.571,20.61z M238.329,97.58h-32.484V39.473h-43.323V20.61h119.363v18.863h-43.557V97.58L238.329,97.58z
	 M400.858,39.367H321.58v11.646h79.355v16.182H321.58v11.771h79.673V97.58H291.207V20.61h109.652V39.367L400.858,39.367z
	 M413.731,71.994l30.029-0.053v1.394c0,2.893,0.91,4.86,2.739,5.877c1.824,1.013,5.664,1.517,11.512,1.517h42.009
	c3.769,0,6.435-0.507,8.039-1.48c1.613-0.983,2.42-2.597,2.42-4.872c0-2.312-0.932-3.977-2.785-4.975
	c-1.847-0.996-5.815-1.914-11.941-2.013l-52.125-0.828c-11.968-0.19-20.042-2.043-24.254-5.278
	c-4.217-3.238-6.325-9.124-6.325-17.682c0-4.41,0.55-8.046,1.667-10.905c1.121-2.858,2.884-5.266,5.368-7.129
	c2.881-2.16,6.689-3.654,11.371-4.554c4.681-0.899,12.31-1.34,22.86-1.34h50.799c11.509,0,19.797,1.623,24.845,4.854
	c5.07,3.243,7.604,8.502,7.604,15.772c0,0.478-0.021,0.99-0.046,1.554c-0.021,0.548-0.092,1.446-0.227,2.683h-29.299v-0.318
	c0-2.54-0.844-4.452-2.516-5.732c-1.66-1.277-4.178-1.908-7.532-1.908H458.54c-5.847,0-9.707,0.443-11.578,1.341
	c-1.872,0.899-2.809,2.473-2.809,4.713c0,2.204,0.843,3.798,2.536,4.781c1.711,0.994,4.811,1.837,9.385,1.89l54.405,0.617
	c11.42,0.129,19.458,2.225,24.116,5.947c4.657,3.722,6.988,10.078,6.988,19.076c0,5.347-0.87,9.477-2.582,12.405
	c-1.711,2.928-4.612,5.434-8.652,7.498c-2.673,1.307-6.327,2.251-10.919,2.824c-4.586,0.573-11.236,0.847-19.934,0.847h-44.363
	c-16.625,0-23.945-1.443-29.583-4.324c-5.619-2.87-12.233-8.24-12.233-16.092c0-0.46,0.047-1.199,0.117-2.26
	C413.503,74.801,413.592,73.513,413.731,71.994L413.731,71.994z M601.209,66.259h38.274l-19.342-27.244L601.209,66.259
	L601.209,66.259z M579.996,97.58h-33.183l54.396-76.97h38.801l53.392,76.97h-33.388l-9.639-12.811H589.7L579.996,97.58
	L579.996,97.58z"/>
<polygon fill-rule="evenodd" clip-rule="evenodd" fill="#9C9B9B" points="221.967,88.747 223.751,88.747 223.751,110.603 
	223.751,112.501 221.967,112.501 53.435,112.501 51.65,112.501 51.65,110.603 51.65,88.747 53.435,88.747 53.435,110.603 
	221.967,110.603 221.967,88.747 "/>
<polygon fill-rule="evenodd" clip-rule="evenodd" fill="#9C9B9B" points="565.739,94.045 567.522,94.045 567.522,110.603 
	567.522,112.501 565.739,112.501 390.508,112.501 388.723,112.501 388.723,110.603 388.723,94.045 390.508,94.045 390.508,110.603 
	565.739,110.603 565.739,94.045 "/>
<path fill-rule="evenodd" clip-rule="evenodd" fill="#757373" d="M58.619,108.686h161.214l0.613,0.006V88.187
	c0.552,0.248,1.158,0.387,1.794,0.387c0.774,0,1.501-0.202,2.143-0.56v24.616H50.167V87.978c0.651,0.371,1.397,0.587,2.188,0.587
	c0.62,0,1.21-0.133,1.748-0.367h0.002v20.494h4.514V108.686L58.619,108.686z"/>
<path fill-rule="evenodd" clip-rule="evenodd" fill="#757373" d="M398.64,108.691h-4.568v-0.006v0.006h-1.823l-0.004,0.004h-0.607
	V93.401c-0.601,0.305-1.272,0.476-1.983,0.476c-0.696,0-1.36-0.167-1.953-0.464v19.222h174.213l-0.003-0.005h7.009V92.724
	c-0.608,0.315-1.291,0.49-2.013,0.49c-0.688,0-1.339-0.16-1.927-0.45v15.928h-4.513v-0.006H399.252l-0.005,0.006H398.64
	L398.64,108.691L398.64,108.691z M387.066,108.691v3.943h0.007L387.066,108.691L387.066,108.691z"/>
</svg>
