<?xml version="1.0" encoding="utf-8"?>
<!-- Generator: Adobe Illustrator 15.1.0, SVG Export Plug-In . SVG Version: 6.00 Build 0)  -->
<!DOCTYPE svg PUBLIC "-//W3C//DTD SVG 1.1//EN" "http://www.w3.org/Graphics/SVG/1.1/DTD/svg11.dtd">
<svg version="1.1" id="Capa_1" xmlns="http://www.w3.org/2000/svg" xmlns:xlink="http://www.w3.org/1999/xlink" x="0px" y="0px"
	 width="792px" height="150px" viewBox="0 0 792 150" enable-background="new 0 0 792 150" xml:space="preserve">
<g>
	<g>
		<path fill-rule="evenodd" clip-rule="evenodd" fill="#FFFFFF" d="M67.9,65.346H42.159v10.173H67.9c2.123,0,3.614-0.396,4.46-1.197
			c0.847-0.802,1.276-2.23,1.276-4.276c0-1.64-0.453-2.829-1.359-3.575C71.371,65.724,69.904,65.346,67.9,65.346L67.9,65.346z
			 M358.505,88.098c1.334,0,2.414,1.148,2.414,2.564c0,1.417-1.08,2.566-2.414,2.566c-1.332,0-2.413-1.149-2.413-2.566
			C356.092,89.246,357.173,88.098,358.505,88.098L358.505,88.098z M33.88,85.68c1.333,0,2.414,1.149,2.414,2.565
			c0,1.417-1.081,2.565-2.414,2.565c-1.332,0-2.413-1.148-2.413-2.565C31.467,86.829,32.548,85.68,33.88,85.68L33.88,85.68z
			 M122.595,85.68c1.333,0,2.413,1.149,2.413,2.565c0,1.417-1.08,2.565-2.413,2.565c-1.332,0-2.413-1.148-2.413-2.565
			C120.182,86.829,121.263,85.68,122.595,85.68L122.595,85.68z M210.033,88.399c1.333,0,2.413,1.149,2.413,2.565
			c0,1.417-1.08,2.565-2.413,2.565c-1.332,0-2.412-1.148-2.412-2.565C207.621,89.549,208.701,88.399,210.033,88.399L210.033,88.399z
			 M210.033,72.687c1.333,0,2.413,1.148,2.413,2.565s-1.08,2.565-2.413,2.565c-1.332,0-2.412-1.148-2.412-2.565
			S208.701,72.687,210.033,72.687L210.033,72.687z M210.033,57.275c1.333,0,2.413,1.148,2.413,2.565s-1.08,2.565-2.413,2.565
			c-1.332,0-2.412-1.148-2.412-2.565S208.701,57.275,210.033,57.275L210.033,57.275z M278.45,59.542
			c1.333,0,2.413,1.148,2.413,2.565c0,1.416-1.08,2.565-2.413,2.565s-2.413-1.149-2.413-2.565
			C276.037,60.69,277.117,59.542,278.45,59.542L278.45,59.542z M232.744,84.773c1.332,0,2.414,1.148,2.414,2.564
			c0,1.417-1.082,2.566-2.414,2.566s-2.413-1.149-2.413-2.566C230.331,85.922,231.412,84.773,232.744,84.773L232.744,84.773z
			 M302.58,88.098c1.333,0,2.414,1.148,2.414,2.564c0,1.417-1.081,2.566-2.414,2.566c-1.332,0-2.412-1.149-2.412-2.566
			C300.167,89.246,301.248,88.098,302.58,88.098L302.58,88.098z M68.46,55.329c3.542,0,6.369,0.123,8.479,0.386
			c2.1,0.263,3.887,0.697,5.354,1.29c2.635,1.065,4.548,2.635,5.737,4.737c1.183,2.091,1.776,4.985,1.776,8.672
			c0,5.511-1.192,9.399-3.565,11.676s-6.393,3.418-12.046,3.418H42.159v10.018H26.225V55.329H68.46L68.46,55.329z M131.003,95.525
			h-16.965V65.18H91.414v-9.851h62.337v9.851h-22.747V95.525L131.003,95.525z M215.886,65.124h-41.405v6.082h41.445v8.45h-41.445
			v6.147h41.611v9.722h-57.474V55.329h57.268V65.124L215.886,65.124z M222.609,82.163l15.683-0.027v0.728
			c0,1.511,0.476,2.538,1.431,3.069c0.953,0.528,2.958,0.792,6.012,0.792h21.939c1.968,0,3.36-0.265,4.198-0.773
			c0.843-0.514,1.264-1.355,1.264-2.544c0-1.207-0.486-2.077-1.454-2.599c-0.965-0.52-3.037-0.999-6.237-1.051l-27.222-0.433
			c-6.25-0.1-10.467-1.066-12.666-2.756c-2.202-1.691-3.304-4.765-3.304-9.233c0-2.304,0.287-4.202,0.871-5.695
			c0.585-1.492,1.506-2.75,2.803-3.723c1.505-1.128,3.494-1.908,5.938-2.378c2.445-0.47,6.429-0.7,11.939-0.7h26.529
			c6.011,0,10.339,0.848,12.975,2.535c2.648,1.693,3.972,4.44,3.972,8.237c0,0.249-0.011,0.517-0.023,0.812
			c-0.011,0.286-0.048,0.755-0.119,1.4h-15.301v-0.166c0-1.327-0.44-2.325-1.313-2.994c-0.867-0.667-2.183-0.996-3.934-0.996H246.01
			c-3.054,0-5.069,0.231-6.047,0.7c-0.978,0.47-1.467,1.291-1.467,2.461c0,1.151,0.44,1.983,1.324,2.497
			c0.894,0.519,2.513,0.959,4.901,0.986l28.413,0.322c5.964,0.067,10.162,1.162,12.595,3.105c2.433,1.944,3.649,5.263,3.649,9.962
			c0,2.792-0.454,4.949-1.349,6.479c-0.894,1.529-2.408,2.838-4.519,3.916c-1.396,0.683-3.304,1.176-5.702,1.475
			c-2.396,0.3-5.868,0.442-10.41,0.442h-23.169c-8.682,0-12.505-0.754-15.449-2.258c-2.935-1.499-6.389-4.304-6.389-8.404
			c0-0.24,0.024-0.626,0.061-1.18C222.49,83.629,222.537,82.956,222.609,82.163L222.609,82.163z M320.518,79.168h19.989
			L330.406,64.94L320.518,79.168L320.518,79.168z M309.44,95.525h-17.329l28.407-40.196h20.264l27.884,40.196h-17.437l-5.033-6.69
			h-31.688L309.44,95.525L309.44,95.525z"/>
		<polygon fill-rule="evenodd" clip-rule="evenodd" fill="#9D9D9C" points="122.458,90.912 123.39,90.912 123.39,102.326 
			123.39,103.317 122.458,103.317 34.443,103.317 33.511,103.317 33.511,102.326 33.511,90.912 34.443,90.912 34.443,102.326 
			122.458,102.326 122.458,90.912 		"/>
		<polygon fill-rule="evenodd" clip-rule="evenodd" fill="#9D9D9C" points="301.995,93.679 302.926,93.679 302.926,102.326 
			302.926,103.317 301.995,103.317 210.481,103.317 209.548,103.317 209.548,102.326 209.548,93.679 210.481,93.679 
			210.481,102.326 301.995,102.326 301.995,93.679 		"/>
		<path fill-rule="evenodd" clip-rule="evenodd" fill="#757373" d="M37.151,101.325h84.193l0.32,0.003V90.62
			c0.288,0.129,0.604,0.201,0.937,0.201c0.404,0,0.784-0.105,1.119-0.292v12.855H32.737V90.51c0.34,0.194,0.729,0.307,1.143,0.307
			c0.324,0,0.632-0.069,0.913-0.191h0.001v10.703h2.357V101.325L37.151,101.325z"/>
		<path fill-rule="evenodd" clip-rule="evenodd" fill="#757373" d="M214.727,101.328h-2.386v-0.003v0.003h-0.952l-0.002,0.002
			h-0.317v-7.987c-0.313,0.159-0.664,0.248-1.035,0.248c-0.364,0-0.711-0.087-1.021-0.242v10.039h90.982l-0.002-0.003h3.66V92.989
			c-0.317,0.164-0.674,0.256-1.051,0.256c-0.359,0-0.699-0.084-1.007-0.235v8.318h-2.356v-0.003h-84.193l-0.003,0.003H214.727
			L214.727,101.328L214.727,101.328z M208.683,101.328v2.06h0.004L208.683,101.328L208.683,101.328z"/>
	</g>
	<g>
		<g>
			<path fill="#FFFFFF" d="M446.019,59.245V35.291h7.402c1.743,0,3.028,0.152,3.856,0.457c1.133,0.414,2.037,1.182,2.712,2.304
				c0.676,1.123,1.014,2.501,1.014,4.135c0,2.156-0.551,3.916-1.65,5.277c-1.101,1.362-3.002,2.042-5.703,2.042h-5.033v9.739
				H446.019z M448.616,46.68h5.083c1.601,0,2.771-0.362,3.513-1.087c0.74-0.724,1.111-1.815,1.111-3.275
				c0-0.948-0.184-1.76-0.547-2.436c-0.366-0.676-0.807-1.138-1.324-1.389c-0.518-0.25-1.452-0.375-2.803-0.375h-5.033V46.68z"/>
			<path fill="#FFFFFF" d="M466.227,59.245V35.291h8.71c1.819,0,3.162,0.223,4.028,0.669s1.576,1.189,2.132,2.229
				c0.557,1.039,0.834,2.245,0.834,3.617c0,1.807-0.472,3.271-1.414,4.393c-0.941,1.122-2.312,1.834-4.109,2.139
				c0.729,0.439,1.285,0.883,1.666,1.332c0.774,0.916,1.455,1.934,2.043,3.056l3.432,6.52h-3.268l-2.62-4.98
				c-1.016-1.948-1.781-3.262-2.297-3.938c-0.518-0.677-1.019-1.132-1.502-1.367c-0.484-0.234-1.162-0.352-2.032-0.352h-3.004
				v10.637H466.227z M468.825,45.863h5.589c1.22,0,2.146-0.147,2.778-0.441c0.631-0.295,1.132-0.757,1.502-1.39
				c0.371-0.631,0.556-1.366,0.556-2.206c0-1.208-0.354-2.159-1.061-2.851c-0.709-0.692-1.76-1.038-3.154-1.038h-6.21V45.863z"/>
			<path fill="#FFFFFF" d="M487.22,47.578c0-4.085,0.899-7.225,2.697-9.42c1.797-2.194,4.035-3.293,6.716-3.293
				c1.731,0,3.312,0.491,4.739,1.471c1.427,0.981,2.557,2.405,3.39,4.273c0.834,1.868,1.25,4.094,1.25,6.676
				c0,3.551-0.806,6.443-2.419,8.676c-1.775,2.462-4.101,3.693-6.977,3.693c-2.897,0-5.229-1.264-6.994-3.791
				C488.021,53.575,487.22,50.814,487.22,47.578z M489.9,47.619c0,2.955,0.65,5.248,1.952,6.878s2.884,2.445,4.748,2.445
				c1.905,0,3.505-0.823,4.795-2.471c1.291-1.646,1.937-4.066,1.937-7.261c0-2.061-0.332-3.903-0.997-5.527
				c-0.512-1.243-1.282-2.238-2.312-2.985c-1.029-0.746-2.154-1.12-3.374-1.12c-1.961,0-3.577,0.818-4.845,2.453
				C490.534,41.667,489.9,44.196,489.9,47.619z"/>
			<path fill="#FFFFFF" d="M511.399,59.245V35.291h13.253v2.827h-10.654v7.418h9.217v2.827h-9.217v10.882H511.399z"/>
			<path fill="#FFFFFF" d="M529.941,59.245V35.291h14.2v2.827H532.54v7.319h10.867v2.827H532.54v8.154h12.059v2.826H529.941z"/>
			<path fill="#FFFFFF" d="M549.22,51.533l2.451-0.262c0.13,1.318,0.427,2.345,0.89,3.081c0.464,0.734,1.125,1.325,1.986,1.772
				c0.86,0.446,1.83,0.669,2.908,0.669c1.547,0,2.748-0.377,3.604-1.132c0.854-0.756,1.282-1.737,1.282-2.944
				c0-0.706-0.154-1.323-0.465-1.851c-0.311-0.526-0.779-0.959-1.406-1.296c-0.626-0.338-1.979-0.813-4.061-1.43
				c-1.852-0.55-3.17-1.103-3.954-1.658s-1.395-1.261-1.83-2.116c-0.436-0.854-0.654-1.821-0.654-2.899
				c0-1.939,0.627-3.524,1.879-4.755c1.253-1.231,2.942-1.848,5.066-1.848c1.46,0,2.737,0.289,3.832,0.866
				c1.095,0.578,1.944,1.405,2.548,2.483c0.605,1.079,0.93,2.349,0.973,3.808l-2.499,0.229c-0.131-1.559-0.597-2.713-1.397-3.465
				c-0.801-0.751-1.926-1.127-3.374-1.127c-1.471,0-2.594,0.33-3.366,0.988c-0.774,0.659-1.16,1.512-1.16,2.557
				c0,0.97,0.282,1.722,0.85,2.255c0.566,0.533,1.841,1.074,3.822,1.621c1.938,0.537,3.299,1.002,4.083,1.396
				c1.197,0.612,2.103,1.417,2.714,2.413c0.611,0.995,0.917,2.185,0.917,3.566c0,1.371-0.321,2.62-0.964,3.746
				s-1.518,1.983-2.623,2.57c-1.105,0.588-2.438,0.882-3.995,0.882c-2.429,0-4.366-0.729-5.81-2.189S549.274,54.027,549.22,51.533z"
				/>
			<path fill="#FFFFFF" d="M570.801,59.245V35.291h2.598v23.954H570.801z"/>
			<path fill="#FFFFFF" d="M579.114,47.578c0-4.085,0.898-7.225,2.695-9.42c1.798-2.194,4.036-3.293,6.717-3.293
				c1.732,0,3.312,0.491,4.738,1.471c1.427,0.981,2.558,2.405,3.391,4.273s1.25,4.094,1.25,6.676c0,3.551-0.807,6.443-2.418,8.676
				c-1.776,2.462-4.102,3.693-6.978,3.693c-2.897,0-5.229-1.264-6.994-3.791C579.915,53.575,579.114,50.814,579.114,47.578z
				 M581.794,47.619c0,2.955,0.651,5.248,1.952,6.878c1.303,1.63,2.885,2.445,4.747,2.445c1.906,0,3.505-0.823,4.796-2.471
				c1.291-1.646,1.937-4.066,1.937-7.261c0-2.061-0.333-3.903-0.997-5.527c-0.512-1.243-1.283-2.238-2.312-2.985
				c-1.029-0.746-2.154-1.12-3.375-1.12c-1.961,0-3.575,0.818-4.845,2.453C582.429,41.667,581.794,44.196,581.794,47.619z"/>
			<path fill="#FFFFFF" d="M603.031,59.245V35.291h2.664l10.327,18.845V35.291h2.483v23.954h-2.663l-10.311-18.848v18.848H603.031z"
				/>
			<path fill="#FFFFFF" d="M622.669,59.245l7.575-23.954h2.78l8.044,23.954h-2.974l-2.286-7.255h-8.264l-2.136,7.255H622.669z
				 M628.305,49.409h6.691l-2.042-6.635c-0.631-2.036-1.094-3.693-1.388-4.967c-0.254,1.535-0.612,3.061-1.076,4.574L628.305,49.409
				z"/>
			<path fill="#FFFFFF" d="M644.872,59.245V35.291h2.598v21.128h9.673v2.826H644.872z"/>
			<path fill="#FFFFFF" d="M662.253,59.245V35.291h14.199v2.827h-11.602v7.319h10.867v2.827h-10.867v8.154h12.06v2.826H662.253z"/>
			<path fill="#FFFFFF" d="M681.53,51.533l2.451-0.262c0.131,1.318,0.428,2.345,0.891,3.081c0.463,0.734,1.125,1.325,1.985,1.772
				c0.86,0.446,1.83,0.669,2.908,0.669c1.547,0,2.748-0.377,3.603-1.132c0.855-0.756,1.283-1.737,1.283-2.944
				c0-0.706-0.154-1.323-0.466-1.851c-0.31-0.526-0.778-0.959-1.404-1.296c-0.628-0.338-1.98-0.813-4.062-1.43
				c-1.852-0.55-3.17-1.103-3.954-1.658s-1.396-1.261-1.83-2.116c-0.436-0.854-0.653-1.821-0.653-2.899
				c0-1.939,0.626-3.524,1.879-4.755c1.252-1.231,2.941-1.848,5.065-1.848c1.46,0,2.737,0.289,3.832,0.866
				c1.095,0.578,1.944,1.405,2.549,2.483c0.604,1.079,0.929,2.349,0.972,3.808l-2.499,0.229c-0.131-1.559-0.597-2.713-1.397-3.465
				c-0.801-0.751-1.926-1.127-3.374-1.127c-1.471,0-2.593,0.33-3.366,0.988c-0.774,0.659-1.16,1.512-1.16,2.557
				c0,0.97,0.283,1.722,0.85,2.255s1.841,1.074,3.822,1.621c1.938,0.537,3.299,1.002,4.083,1.396
				c1.198,0.612,2.103,1.417,2.714,2.413c0.611,0.995,0.918,2.185,0.918,3.566c0,1.371-0.322,2.62-0.965,3.746
				s-1.517,1.983-2.623,2.57c-1.105,0.588-2.438,0.882-3.995,0.882c-2.429,0-4.366-0.729-5.81-2.189
				C682.334,56.005,681.585,54.027,681.53,51.533z"/>
			<path fill="#FFFFFF" d="M712.209,59.245V35.291h14.2v2.827h-11.602v7.319h10.866v2.827h-10.866v8.154h12.059v2.826H712.209z"/>
			<path fill="#FFFFFF" d="M732.286,59.245V35.291h2.664l10.328,18.845V35.291h2.483v23.954h-2.663l-10.312-18.848v18.848H732.286z"
				/>
		</g>
		<g>
			<path fill="#FFFFFF" d="M451.162,90.731V69.603h-6.471v-2.826h15.572v2.826h-6.503v21.129H451.162z"/>
			<path fill="#FFFFFF" d="M468.567,90.731V66.776h8.709c1.819,0,3.163,0.224,4.029,0.67s1.576,1.189,2.131,2.229
				c0.557,1.039,0.835,2.245,0.835,3.617c0,1.807-0.472,3.271-1.414,4.393c-0.943,1.121-2.313,1.834-4.11,2.139
				c0.73,0.439,1.286,0.883,1.667,1.332c0.773,0.915,1.454,1.934,2.043,3.056l3.431,6.52h-3.268l-2.619-4.98
				c-1.016-1.949-1.781-3.262-2.299-3.938c-0.517-0.676-1.018-1.132-1.501-1.366c-0.484-0.234-1.162-0.353-2.032-0.353h-3.004
				v10.638H468.567z M471.165,77.349h5.589c1.22,0,2.146-0.147,2.777-0.441c0.632-0.294,1.134-0.757,1.504-1.389
				s0.556-1.366,0.556-2.206c0-1.209-0.354-2.159-1.062-2.852c-0.71-0.691-1.761-1.037-3.154-1.037h-6.21V77.349z"/>
			<path fill="#FFFFFF" d="M491.921,90.731l7.575-23.955h2.779l8.044,23.955h-2.974l-2.285-7.256h-8.264l-2.136,7.256H491.921z
				 M497.556,80.895h6.692l-2.042-6.634c-0.632-2.037-1.094-3.693-1.389-4.968c-0.253,1.536-0.612,3.062-1.075,4.575L497.556,80.895
				z"/>
			<path fill="#FFFFFF" d="M517.986,90.731V66.776h2.663l10.327,18.845V66.776h2.484v23.955h-2.663l-10.312-18.849v18.849H517.986z"
				/>
			<path fill="#FFFFFF" d="M542.68,83.019l2.451-0.261c0.13,1.317,0.427,2.345,0.89,3.08c0.464,0.735,1.125,1.326,1.985,1.773
				c0.861,0.445,1.831,0.669,2.909,0.669c1.547,0,2.748-0.377,3.604-1.133c0.854-0.756,1.282-1.736,1.282-2.943
				c0-0.706-0.155-1.323-0.466-1.851s-0.778-0.959-1.405-1.297c-0.627-0.337-1.979-0.813-4.061-1.429
				c-1.853-0.55-3.17-1.103-3.954-1.658s-1.395-1.261-1.83-2.116s-0.654-1.821-0.654-2.899c0-1.939,0.627-3.524,1.879-4.756
				c1.253-1.23,2.942-1.847,5.066-1.847c1.459,0,2.737,0.289,3.832,0.867c1.095,0.577,1.944,1.404,2.548,2.482
				c0.605,1.078,0.93,2.349,0.973,3.808l-2.499,0.229c-0.131-1.559-0.598-2.713-1.397-3.465c-0.801-0.752-1.926-1.128-3.374-1.128
				c-1.472,0-2.594,0.331-3.366,0.989c-0.774,0.658-1.161,1.511-1.161,2.557c0,0.97,0.283,1.721,0.851,2.254
				c0.566,0.534,1.841,1.075,3.822,1.622c1.938,0.537,3.299,1.002,4.083,1.396c1.197,0.612,2.103,1.417,2.713,2.412
				c0.612,0.996,0.918,2.185,0.918,3.566c0,1.371-0.321,2.62-0.964,3.746c-0.643,1.127-1.518,1.983-2.623,2.571
				c-1.105,0.587-2.438,0.882-3.995,0.882c-2.43,0-4.366-0.73-5.81-2.189C543.482,87.491,542.733,85.514,542.68,83.019z"/>
			<path fill="#FFFFFF" d="M565.396,90.731l7.575-23.955h2.779l8.044,23.955h-2.974l-2.285-7.256h-8.264l-2.136,7.256H565.396z
				 M571.031,80.895h6.691l-2.041-6.634c-0.632-2.037-1.095-3.693-1.39-4.968c-0.253,1.536-0.612,3.062-1.075,4.575L571.031,80.895z
				"/>
			<path fill="#FFFFFF" d="M605.48,82.333l2.614,0.801c-0.577,2.69-1.588,4.698-3.03,6.021c-1.443,1.323-3.2,1.985-5.27,1.985
				c-1.82,0-3.375-0.444-4.666-1.333c-1.29-0.889-2.347-2.313-3.169-4.275c-0.823-1.962-1.234-4.278-1.234-6.949
				c0-2.639,0.411-4.87,1.234-6.696s1.938-3.205,3.346-4.137c1.405-0.932,2.977-1.398,4.71-1.398c1.897,0,3.527,0.59,4.891,1.77
				c1.363,1.179,2.317,2.909,2.862,5.191l-2.549,0.736c-0.873-3.323-2.624-4.984-5.253-4.984c-1.31,0-2.443,0.336-3.403,1.005
				c-0.961,0.672-1.727,1.716-2.299,3.133s-0.86,3.211-0.86,5.381c0,3.281,0.578,5.743,1.733,7.384
				c1.154,1.641,2.69,2.46,4.607,2.46c1.416,0,2.64-0.503,3.669-1.511C604.443,85.909,605.132,84.381,605.48,82.333z"/>
			<path fill="#FFFFFF" d="M630.976,82.333l2.613,0.801c-0.578,2.69-1.588,4.698-3.031,6.021s-3.2,1.985-5.271,1.985
				c-1.818,0-3.373-0.444-4.664-1.333s-2.348-2.313-3.171-4.275c-0.822-1.962-1.233-4.278-1.233-6.949
				c0-2.639,0.412-4.87,1.235-6.696s1.938-3.205,3.345-4.137c1.406-0.932,2.977-1.398,4.71-1.398c1.898,0,3.528,0.59,4.891,1.77
				c1.363,1.179,2.317,2.909,2.862,5.191l-2.549,0.736c-0.873-3.323-2.623-4.984-5.252-4.984c-1.31,0-2.444,0.336-3.404,1.005
				c-0.959,0.672-1.727,1.716-2.299,3.133c-0.573,1.417-0.858,3.211-0.858,5.381c0,3.281,0.577,5.743,1.732,7.384
				c1.154,1.641,2.689,2.46,4.607,2.46c1.416,0,2.639-0.503,3.669-1.511C629.937,85.909,630.626,84.381,630.976,82.333z"/>
			<path fill="#FFFFFF" d="M643.02,90.731V66.776h2.599v23.955H643.02z"/>
			<path fill="#FFFFFF" d="M655.114,79.064c0-4.085,0.899-7.226,2.697-9.42c1.797-2.195,4.035-3.293,6.715-3.293
				c1.732,0,3.312,0.49,4.739,1.471c1.428,0.98,2.557,2.405,3.391,4.273c0.833,1.868,1.25,4.093,1.25,6.675
				c0,3.551-0.806,6.444-2.419,8.677c-1.775,2.462-4.101,3.693-6.977,3.693c-2.898,0-5.229-1.265-6.993-3.791
				C655.915,85.062,655.114,82.3,655.114,79.064z M657.795,79.105c0,2.955,0.65,5.248,1.952,6.877
				c1.302,1.63,2.884,2.444,4.748,2.444c1.905,0,3.504-0.822,4.795-2.469s1.938-4.066,1.938-7.262c0-2.06-0.333-3.902-0.998-5.527
				c-0.512-1.243-1.282-2.237-2.312-2.984c-1.03-0.746-2.154-1.12-3.375-1.12c-1.96,0-3.576,0.818-4.845,2.453
				C658.429,73.153,657.795,75.683,657.795,79.105z"/>
			<path fill="#FFFFFF" d="M682.814,90.731V66.776h2.663l10.328,18.845V66.776h2.482v23.955h-2.663l-10.311-18.849v18.849H682.814z"
				/>
			<path fill="#FFFFFF" d="M708.438,90.731V66.776h14.2v2.826h-11.603v7.321h10.867v2.827h-10.867v8.154h12.061v2.826H708.438z"/>
			<path fill="#FFFFFF" d="M731.498,83.019l2.451-0.261c0.131,1.317,0.427,2.345,0.89,3.08c0.464,0.735,1.125,1.326,1.986,1.773
				c0.86,0.445,1.83,0.669,2.908,0.669c1.547,0,2.748-0.377,3.603-1.133c0.855-0.756,1.283-1.736,1.283-2.943
				c0-0.706-0.155-1.323-0.466-1.851c-0.31-0.527-0.778-0.959-1.404-1.297c-0.628-0.337-1.981-0.813-4.062-1.429
				c-1.852-0.55-3.17-1.103-3.954-1.658s-1.396-1.261-1.831-2.116s-0.653-1.821-0.653-2.899c0-1.939,0.627-3.524,1.879-4.756
				c1.253-1.23,2.941-1.847,5.066-1.847c1.46,0,2.736,0.289,3.832,0.867c1.095,0.577,1.943,1.404,2.549,2.482
				c0.604,1.078,0.928,2.349,0.972,3.808l-2.5,0.229c-0.13-1.559-0.596-2.713-1.396-3.465s-1.926-1.128-3.374-1.128
				c-1.471,0-2.593,0.331-3.366,0.989c-0.774,0.658-1.16,1.511-1.16,2.557c0,0.97,0.282,1.721,0.85,2.254
				c0.565,0.534,1.84,1.075,3.822,1.622c1.938,0.537,3.299,1.002,4.083,1.396c1.197,0.612,2.102,1.417,2.714,2.412
				c0.611,0.996,0.917,2.185,0.917,3.566c0,1.371-0.321,2.62-0.964,3.746c-0.644,1.127-1.517,1.983-2.623,2.571
				c-1.105,0.587-2.438,0.882-3.995,0.882c-2.429,0-4.366-0.73-5.81-2.189C732.301,87.491,731.552,85.514,731.498,83.019z"/>
		</g>
		<g>
			<path fill="#FFFFFF" d="M445.55,122.953V98.999h14.2v2.826h-11.602v7.32h10.866v2.827h-10.866v8.154h12.06v2.826H445.55z"/>
			<path fill="#FFFFFF" d="M472.005,122.953V98.999h2.599v21.128h9.674v2.826H472.005z"/>
			<path fill="#FFFFFF" d="M495.846,122.953V98.999h14.2v2.826h-11.602v7.32h10.866v2.827h-10.866v8.154h12.059v2.826H495.846z"/>
			<path fill="#FFFFFF" d="M536.403,114.555l2.614,0.801c-0.577,2.69-1.588,4.698-3.031,6.021s-3.2,1.985-5.27,1.985
				c-1.819,0-3.374-0.444-4.665-1.333s-2.349-2.312-3.17-4.275c-0.823-1.962-1.234-4.278-1.234-6.949
				c0-2.638,0.412-4.87,1.234-6.696c0.823-1.825,1.939-3.205,3.346-4.137s2.977-1.398,4.711-1.398c1.896,0,3.527,0.59,4.891,1.77
				c1.362,1.18,2.316,2.91,2.861,5.191l-2.549,0.736c-0.873-3.323-2.624-4.984-5.253-4.984c-1.309,0-2.442,0.336-3.403,1.006
				c-0.96,0.671-1.726,1.715-2.299,3.132c-0.573,1.418-0.859,3.211-0.859,5.381c0,3.281,0.578,5.743,1.732,7.384
				s2.69,2.461,4.607,2.461c1.417,0,2.641-0.504,3.669-1.512C535.365,118.131,536.054,116.603,536.403,114.555z"/>
			<path fill="#FFFFFF" d="M555.668,122.953v-21.128h-6.471v-2.826h15.572v2.826h-6.503v21.128H555.668z"/>
			<path fill="#FFFFFF" d="M575.75,122.953V98.999h8.71c1.819,0,3.163,0.223,4.028,0.669c0.866,0.446,1.577,1.189,2.133,2.229
				c0.556,1.039,0.833,2.245,0.833,3.617c0,1.808-0.472,3.271-1.413,4.393c-0.943,1.122-2.312,1.834-4.11,2.139
				c0.73,0.439,1.286,0.883,1.667,1.332c0.773,0.915,1.454,1.935,2.042,3.056l3.432,6.52h-3.268l-2.62-4.98
				c-1.016-1.948-1.78-3.262-2.297-3.938c-0.518-0.676-1.019-1.132-1.502-1.366c-0.484-0.234-1.161-0.352-2.032-0.352h-3.004v10.637
				H575.75z M578.349,109.571h5.589c1.22,0,2.146-0.147,2.777-0.441c0.632-0.295,1.133-0.757,1.503-1.39
				c0.371-0.632,0.556-1.366,0.556-2.206c0-1.208-0.354-2.159-1.061-2.851c-0.71-0.692-1.761-1.038-3.154-1.038h-6.21V109.571z"/>
			<path fill="#FFFFFF" d="M603.202,111.287c0-4.086,0.9-7.226,2.697-9.421c1.797-2.194,4.035-3.293,6.716-3.293
				c1.732,0,3.312,0.491,4.739,1.471c1.427,0.981,2.557,2.405,3.39,4.273c0.834,1.868,1.25,4.094,1.25,6.676
				c0,3.551-0.807,6.443-2.419,8.676c-1.775,2.462-4.1,3.693-6.977,3.693c-2.897,0-5.229-1.264-6.994-3.791
				C604.004,117.283,603.202,114.522,603.202,111.287z M605.883,111.327c0,2.955,0.65,5.248,1.952,6.878s2.884,2.444,4.747,2.444
				c1.906,0,3.505-0.822,4.796-2.47c1.291-1.646,1.938-4.066,1.938-7.261c0-2.061-0.333-3.903-0.998-5.527
				c-0.512-1.243-1.282-2.238-2.312-2.985c-1.029-0.746-2.154-1.12-3.374-1.12c-1.961,0-3.576,0.818-4.845,2.453
				C606.518,105.375,605.883,107.904,605.883,111.327z M610.311,97.364l1.782-4.575h3.153l-2.941,4.575H610.311z"/>
			<path fill="#FFFFFF" d="M633.579,122.953V98.999h2.664l10.327,18.845V98.999h2.483v23.954h-2.663l-10.311-18.849v18.849H633.579z
				"/>
			<path fill="#FFFFFF" d="M662.322,122.953V98.999h2.599v23.954H662.322z"/>
			<path fill="#FFFFFF" d="M691.769,114.555l2.613,0.801c-0.577,2.69-1.587,4.698-3.03,6.021s-3.2,1.985-5.27,1.985
				c-1.82,0-3.375-0.444-4.665-1.333c-1.291-0.889-2.348-2.312-3.17-4.275c-0.823-1.962-1.233-4.278-1.233-6.949
				c0-2.638,0.41-4.87,1.234-6.696c0.823-1.825,1.938-3.205,3.345-4.137c1.406-0.932,2.977-1.398,4.71-1.398
				c1.897,0,3.527,0.59,4.891,1.77s2.317,2.91,2.862,5.191l-2.549,0.736c-0.873-3.323-2.624-4.984-5.253-4.984
				c-1.309,0-2.443,0.336-3.403,1.006c-0.961,0.671-1.727,1.715-2.299,3.132c-0.572,1.418-0.859,3.211-0.859,5.381
				c0,3.281,0.578,5.743,1.732,7.384s2.69,2.461,4.608,2.461c1.415,0,2.639-0.504,3.668-1.512
				C690.731,118.131,691.42,116.603,691.769,114.555z"/>
			<path fill="#FFFFFF" d="M703.844,122.953l7.576-23.954h2.778l8.045,23.954h-2.975l-2.284-7.255h-8.265l-2.136,7.255H703.844z
				 M709.479,113.117h6.691l-2.042-6.635c-0.631-2.037-1.094-3.693-1.388-4.968c-0.254,1.536-0.612,3.062-1.076,4.575
				L709.479,113.117z"/>
			<path fill="#FFFFFF" d="M731.786,115.24l2.451-0.261c0.13,1.318,0.427,2.345,0.891,3.08c0.462,0.735,1.124,1.326,1.984,1.773
				c0.861,0.446,1.831,0.669,2.909,0.669c1.547,0,2.748-0.377,3.604-1.133c0.854-0.755,1.282-1.736,1.282-2.943
				c0-0.706-0.155-1.323-0.465-1.851c-0.311-0.526-0.779-0.959-1.405-1.296c-0.627-0.338-1.981-0.813-4.062-1.43
				c-1.852-0.55-3.17-1.103-3.954-1.658s-1.395-1.261-1.83-2.116c-0.437-0.855-0.653-1.821-0.653-2.899
				c0-1.939,0.626-3.524,1.879-4.756c1.252-1.23,2.94-1.847,5.065-1.847c1.46,0,2.736,0.289,3.832,0.867
				c1.095,0.577,1.944,1.404,2.549,2.482c0.604,1.079,0.929,2.349,0.972,3.809l-2.5,0.229c-0.13-1.559-0.596-2.713-1.396-3.465
				c-0.801-0.751-1.926-1.127-3.375-1.127c-1.47,0-2.593,0.33-3.365,0.988c-0.774,0.659-1.16,1.511-1.16,2.557
				c0,0.97,0.282,1.722,0.851,2.255c0.564,0.533,1.839,1.074,3.821,1.621c1.938,0.537,3.299,1.002,4.083,1.396
				c1.197,0.612,2.103,1.417,2.714,2.413c0.61,0.995,0.917,2.184,0.917,3.566c0,1.37-0.321,2.62-0.965,3.745
				c-0.643,1.127-1.517,1.983-2.622,2.571s-2.438,0.882-3.996,0.882c-2.428,0-4.365-0.73-5.809-2.189
				C732.589,119.713,731.841,117.735,731.786,115.24z"/>
		</g>
	</g>
	<line fill="none" stroke="#FFFFFF" stroke-width="3" stroke-miterlimit="10" x1="404.505" y1="19.716" x2="404.505" y2="134.716"/>
</g>
</svg>
