<?xml version="1.0" encoding="utf-8"?>
<!-- Generator: Adobe Illustrator 15.1.0, SVG Export Plug-In . SVG Version: 6.00 Build 0)  -->
<!DOCTYPE svg PUBLIC "-//W3C//DTD SVG 1.1//EN" "http://www.w3.org/Graphics/SVG/1.1/DTD/svg11.dtd">
<svg version="1.1" id="Capa_1" xmlns="http://www.w3.org/2000/svg" xmlns:xlink="http://www.w3.org/1999/xlink" x="0px" y="0px"
	 width="728.379px" height="130px" viewBox="0 0 728.379 130" enable-background="new 0 0 728.379 130" xml:space="preserve">
<g id="Capa_2">
</g>
<path fill="#2F3F84" d="M44.676,49.632H18.935v10.173h25.741c2.123,0,3.614-0.396,4.46-1.197c0.847-0.802,1.276-2.23,1.276-4.276
	c0-1.64-0.453-2.829-1.359-3.575C48.147,50.01,46.68,49.632,44.676,49.632L44.676,49.632z M335.282,72.386
	c1.334,0,2.415,1.148,2.415,2.564c0,1.417-1.08,2.565-2.415,2.565c-1.332,0-2.413-1.148-2.413-2.565
	C332.869,73.534,333.95,72.386,335.282,72.386L335.282,72.386z M10.656,69.968c1.333,0,2.414,1.149,2.414,2.565
	c0,1.417-1.081,2.564-2.414,2.564c-1.332,0-2.413-1.147-2.413-2.564C8.244,71.117,9.324,69.968,10.656,69.968L10.656,69.968z
	 M99.372,69.968c1.333,0,2.413,1.149,2.413,2.565c0,1.417-1.08,2.564-2.413,2.564c-1.332,0-2.413-1.147-2.413-2.564
	C96.958,71.117,98.04,69.968,99.372,69.968L99.372,69.968z M186.809,72.688c1.333,0,2.413,1.149,2.413,2.565
	c0,1.417-1.08,2.565-2.413,2.565c-1.332,0-2.412-1.148-2.412-2.565C184.397,73.837,185.477,72.688,186.809,72.688L186.809,72.688z
	 M186.809,56.973c1.333,0,2.413,1.148,2.413,2.565s-1.08,2.565-2.413,2.565c-1.332,0-2.412-1.148-2.412-2.565
	S185.477,56.973,186.809,56.973L186.809,56.973z M186.809,41.562c1.333,0,2.413,1.148,2.413,2.565s-1.08,2.565-2.413,2.565
	c-1.332,0-2.412-1.148-2.412-2.565S185.477,41.562,186.809,41.562L186.809,41.562z M255.226,43.828c1.333,0,2.413,1.148,2.413,2.565
	c0,1.416-1.08,2.565-2.413,2.565s-2.413-1.149-2.413-2.565S253.893,43.828,255.226,43.828L255.226,43.828z M209.52,69.062
	c1.332,0,2.414,1.147,2.414,2.563c0,1.417-1.082,2.565-2.414,2.565s-2.413-1.148-2.413-2.565
	C207.107,70.21,208.188,69.062,209.52,69.062L209.52,69.062z M279.356,72.386c1.333,0,2.414,1.148,2.414,2.564
	c0,1.417-1.081,2.565-2.414,2.565c-1.332,0-2.412-1.148-2.412-2.565C276.944,73.534,278.024,72.386,279.356,72.386L279.356,72.386z
	 M45.237,39.615c3.542,0,6.369,0.123,8.479,0.386c2.1,0.263,3.887,0.697,5.354,1.29c2.635,1.065,4.548,2.635,5.737,4.737
	c1.183,2.091,1.776,4.985,1.776,8.672c0,5.511-1.192,9.399-3.565,11.676c-2.373,2.278-6.393,3.42-12.046,3.42H18.935v10.019H3.001
	V39.615H45.237L45.237,39.615z M107.78,79.812H90.815V49.466H68.19v-9.851h62.337v9.851H107.78V79.812L107.78,79.812z
	 M192.663,49.41h-41.405v6.082h41.445v8.45h-41.445v6.149h41.611v9.722h-57.474V39.615h57.268V49.41L192.663,49.41z M199.385,66.449
	l15.683-0.027v0.729c0,1.513,0.476,2.539,1.431,3.07c0.953,0.528,2.958,0.793,6.012,0.793h21.939c1.968,0,3.36-0.266,4.198-0.773
	c0.843-0.514,1.264-1.355,1.264-2.545c0-1.209-0.486-2.078-1.454-2.599c-0.965-0.52-3.037-1-6.237-1.051l-27.222-0.433
	c-6.25-0.1-10.467-1.066-12.666-2.756c-2.202-1.691-3.304-4.765-3.304-9.233c0-2.304,0.287-4.202,0.871-5.695
	c0.585-1.492,1.506-2.75,2.803-3.723c1.505-1.128,3.494-1.908,5.938-2.378c2.445-0.47,6.429-0.7,11.939-0.7h26.529
	c6.011,0,10.339,0.848,12.975,2.535c2.648,1.693,3.972,4.44,3.972,8.237c0,0.249-0.011,0.517-0.023,0.812
	c-0.011,0.286-0.048,0.755-0.119,1.4h-15.301v-0.166c0-1.327-0.44-2.325-1.313-2.994c-0.867-0.667-2.183-0.996-3.934-0.996h-20.579
	c-3.054,0-5.069,0.231-6.047,0.7c-0.978,0.47-1.467,1.291-1.467,2.461c0,1.151,0.44,1.983,1.324,2.497
	c0.894,0.519,2.513,0.959,4.901,0.986l28.413,0.322c5.964,0.067,10.162,1.162,12.595,3.105c2.433,1.944,3.649,5.263,3.649,9.963
	c0,2.793-0.454,4.95-1.349,6.479c-0.894,1.529-2.408,2.839-4.519,3.916c-1.396,0.683-3.304,1.177-5.702,1.476
	c-2.396,0.3-5.868,0.441-10.41,0.441h-23.169c-8.682,0-12.505-0.754-15.449-2.258c-2.935-1.499-6.389-4.304-6.389-8.404
	c0-0.24,0.024-0.625,0.061-1.181C199.266,67.916,199.313,67.243,199.385,66.449L199.385,66.449z M297.294,63.454h19.989
	l-10.103-14.228L297.294,63.454L297.294,63.454z M286.216,79.812h-17.329l28.407-40.197h20.264l27.886,40.197h-17.438l-5.034-6.689
	h-31.688L286.216,79.812L286.216,79.812z"/>
<polygon fill="#9C9B9B" points="99.235,75.2 100.167,75.2 100.167,86.614 100.167,87.605 99.235,87.605 11.22,87.605 10.288,87.605 
	10.288,86.614 10.288,75.2 11.22,75.2 11.22,86.614 99.235,86.614 "/>
<polygon fill="#9C9B9B" points="278.771,77.967 279.703,77.967 279.703,86.614 279.703,87.605 278.771,87.605 187.257,87.605 
	186.325,87.605 186.325,86.614 186.325,77.967 187.257,77.967 187.257,86.614 278.771,86.614 "/>
<path fill="#757373" d="M13.927,85.613H98.12l0.32,0.003V74.908c0.288,0.129,0.604,0.201,0.937,0.201
	c0.404,0,0.784-0.105,1.119-0.293v12.855H9.513V74.798c0.34,0.194,0.729,0.308,1.143,0.308c0.324,0,0.632-0.069,0.913-0.191h0.001
	v10.703h2.357V85.613L13.927,85.613z"/>
<path fill="#757373" d="M191.503,85.616h-2.386v-0.003v0.003h-0.952l-0.002,0.002h-0.317v-7.987
	c-0.313,0.159-0.664,0.248-1.035,0.248c-0.364,0-0.711-0.087-1.021-0.242v10.039h90.982l-0.002-0.003h3.66V77.277
	c-0.317,0.164-0.674,0.256-1.051,0.256c-0.359,0-0.699-0.084-1.007-0.235v8.318h-2.356v-0.003h-84.193l-0.003,0.003H191.503
	L191.503,85.616L191.503,85.616z M185.459,85.616v2.06h0.004L185.459,85.616L185.459,85.616z"/>
<g>
	<g>
		<path fill="#7F8080" d="M422.8,43.531V19.577h7.402c1.743,0,3.028,0.152,3.855,0.457c1.134,0.414,2.037,1.182,2.712,2.304
			c0.677,1.123,1.015,2.501,1.015,4.135c0,2.156-0.551,3.916-1.65,5.277c-1.101,1.362-3.002,2.042-5.703,2.042h-5.032v9.739H422.8z
			 M425.397,30.966h5.083c1.601,0,2.771-0.362,3.513-1.087c0.74-0.724,1.11-1.815,1.11-3.275c0-0.948-0.184-1.76-0.547-2.436
			c-0.365-0.676-0.807-1.138-1.323-1.389c-0.519-0.25-1.452-0.375-2.804-0.375h-5.032V30.966z"/>
		<path fill="#7F8080" d="M443.008,43.531V19.577h8.71c1.819,0,3.162,0.223,4.028,0.669c0.866,0.446,1.576,1.189,2.132,2.229
			c0.557,1.039,0.834,2.245,0.834,3.617c0,1.807-0.472,3.271-1.414,4.393c-0.94,1.122-2.312,1.834-4.108,2.139
			c0.729,0.439,1.284,0.883,1.665,1.332c0.774,0.916,1.455,1.934,2.044,3.056l3.432,6.52h-3.269l-2.619-4.98
			c-1.017-1.948-1.781-3.262-2.298-3.938c-0.518-0.677-1.019-1.132-1.502-1.367c-0.483-0.234-1.162-0.352-2.031-0.352h-3.004v10.637
			L443.008,43.531L443.008,43.531z M445.606,30.149h5.589c1.22,0,2.146-0.147,2.777-0.441c0.631-0.295,1.133-0.757,1.502-1.39
			c0.371-0.631,0.557-1.366,0.557-2.206c0-1.208-0.354-2.159-1.062-2.851c-0.709-0.692-1.76-1.038-3.153-1.038h-6.21V30.149
			L445.606,30.149z"/>
		<path fill="#7F8080" d="M464.001,31.864c0-4.085,0.899-7.225,2.697-9.42c1.797-2.194,4.035-3.293,6.716-3.293
			c1.73,0,3.312,0.491,4.739,1.471c1.427,0.981,2.557,2.405,3.39,4.273c0.834,1.868,1.25,4.094,1.25,6.676
			c0,3.551-0.806,6.443-2.419,8.676c-1.775,2.462-4.101,3.693-6.977,3.693c-2.897,0-5.229-1.264-6.994-3.791
			C464.803,37.861,464.001,35.101,464.001,31.864z M466.682,31.905c0,2.955,0.65,5.248,1.952,6.878
			c1.302,1.63,2.884,2.445,4.748,2.445c1.905,0,3.505-0.823,4.795-2.471c1.291-1.646,1.938-4.066,1.938-7.261
			c0-2.061-0.332-3.903-0.997-5.527c-0.512-1.243-1.282-2.238-2.312-2.985c-1.028-0.746-2.153-1.12-3.374-1.12
			c-1.961,0-3.577,0.818-4.845,2.453C467.315,25.953,466.682,28.482,466.682,31.905z"/>
		<path fill="#7F8080" d="M488.181,43.531V19.577h13.253v2.827H490.78v7.418h9.217v2.827h-9.217v10.882H488.181z"/>
		<path fill="#7F8080" d="M506.723,43.531V19.577h14.2v2.827h-11.602v7.319h10.866v2.827h-10.866v8.154h12.059v2.826L506.723,43.531
			L506.723,43.531z"/>
		<path fill="#7F8080" d="M526.001,35.819l2.451-0.262c0.13,1.318,0.427,2.345,0.89,3.081c0.464,0.734,1.125,1.325,1.986,1.772
			c0.859,0.446,1.83,0.669,2.908,0.669c1.547,0,2.748-0.377,3.604-1.132c0.854-0.756,1.282-1.737,1.282-2.944
			c0-0.706-0.154-1.323-0.465-1.851c-0.312-0.526-0.779-0.959-1.406-1.296c-0.626-0.338-1.979-0.813-4.061-1.43
			c-1.853-0.55-3.171-1.103-3.954-1.658c-0.784-0.555-1.396-1.261-1.83-2.116c-0.437-0.854-0.654-1.821-0.654-2.899
			c0-1.939,0.627-3.524,1.879-4.755c1.253-1.231,2.942-1.848,5.066-1.848c1.46,0,2.736,0.289,3.832,0.866
			c1.095,0.578,1.943,1.405,2.548,2.483c0.604,1.079,0.93,2.349,0.973,3.808l-2.499,0.229c-0.131-1.559-0.597-2.713-1.396-3.465
			c-0.802-0.751-1.927-1.127-3.374-1.127c-1.472,0-2.595,0.33-3.366,0.988c-0.774,0.659-1.16,1.512-1.16,2.557
			c0,0.97,0.282,1.722,0.85,2.255c0.566,0.533,1.842,1.074,3.822,1.621c1.938,0.537,3.299,1.002,4.083,1.396
			c1.197,0.612,2.104,1.417,2.714,2.413c0.611,0.995,0.917,2.185,0.917,3.566c0,1.371-0.32,2.62-0.964,3.746
			c-0.643,1.126-1.518,1.983-2.623,2.57c-1.104,0.588-2.438,0.882-3.995,0.882c-2.429,0-4.365-0.729-5.81-2.189
			S526.056,38.313,526.001,35.819z"/>
		<path fill="#7F8080" d="M547.582,43.531V19.577h2.598v23.954H547.582z"/>
		<path fill="#7F8080" d="M555.896,31.864c0-4.085,0.897-7.225,2.694-9.42c1.798-2.194,4.036-3.293,6.717-3.293
			c1.732,0,3.312,0.491,4.738,1.471c1.427,0.981,2.558,2.405,3.391,4.273s1.25,4.094,1.25,6.676c0,3.551-0.807,6.443-2.418,8.676
			c-1.775,2.462-4.102,3.693-6.978,3.693c-2.897,0-5.229-1.264-6.994-3.791C556.696,37.861,555.896,35.101,555.896,31.864z
			 M558.575,31.905c0,2.955,0.65,5.248,1.952,6.878c1.303,1.63,2.885,2.445,4.747,2.445c1.905,0,3.505-0.823,4.796-2.471
			c1.291-1.646,1.937-4.066,1.937-7.261c0-2.061-0.333-3.903-0.997-5.527c-0.512-1.243-1.283-2.238-2.312-2.985
			c-1.029-0.746-2.154-1.12-3.375-1.12c-1.961,0-3.575,0.818-4.845,2.453C559.21,25.953,558.575,28.482,558.575,31.905z"/>
		<path fill="#7F8080" d="M579.812,43.531V19.577h2.663l10.327,18.845V19.577h2.483v23.954h-2.663l-10.311-18.848v18.848H579.812z"
			/>
		<path fill="#7F8080" d="M599.45,43.531l7.575-23.954h2.779l8.044,23.954h-2.974l-2.286-7.255h-8.264l-2.136,7.255H599.45z
			 M605.086,33.695h6.691l-2.042-6.635c-0.632-2.036-1.095-3.693-1.389-4.967c-0.254,1.535-0.611,3.061-1.075,4.574L605.086,33.695z
			"/>
		<path fill="#7F8080" d="M621.653,43.531V19.577h2.598v21.128h9.673v2.826H621.653z"/>
		<path fill="#7F8080" d="M639.034,43.531V19.577h14.199v2.827h-11.603v7.319h10.867v2.827h-10.867v8.154h12.061v2.826
			L639.034,43.531L639.034,43.531z"/>
		<path fill="#7F8080" d="M658.312,35.819l2.45-0.262c0.131,1.318,0.429,2.345,0.892,3.081c0.463,0.734,1.125,1.325,1.984,1.772
			c0.86,0.446,1.83,0.669,2.908,0.669c1.547,0,2.748-0.377,3.604-1.132c0.854-0.756,1.282-1.737,1.282-2.944
			c0-0.706-0.153-1.323-0.466-1.851c-0.31-0.526-0.777-0.959-1.403-1.296c-0.628-0.338-1.98-0.813-4.062-1.43
			c-1.852-0.55-3.17-1.103-3.954-1.658s-1.396-1.261-1.83-2.116c-0.436-0.854-0.652-1.821-0.652-2.899
			c0-1.939,0.626-3.524,1.879-4.755c1.252-1.231,2.94-1.848,5.064-1.848c1.46,0,2.737,0.289,3.832,0.866
			c1.095,0.578,1.944,1.405,2.549,2.483c0.604,1.079,0.93,2.349,0.973,3.808l-2.499,0.229c-0.131-1.559-0.598-2.713-1.397-3.465
			c-0.801-0.751-1.926-1.127-3.374-1.127c-1.471,0-2.593,0.33-3.366,0.988c-0.773,0.659-1.159,1.512-1.159,2.557
			c0,0.97,0.282,1.722,0.85,2.255c0.567,0.533,1.841,1.074,3.822,1.621c1.938,0.537,3.299,1.002,4.083,1.396
			c1.197,0.612,2.103,1.417,2.714,2.413c0.61,0.995,0.918,2.185,0.918,3.566c0,1.371-0.322,2.62-0.965,3.746
			c-0.644,1.126-1.518,1.983-2.623,2.57c-1.105,0.588-2.438,0.882-3.995,0.882c-2.429,0-4.366-0.729-5.811-2.189
			C659.115,40.291,658.366,38.313,658.312,35.819z"/>
		<path fill="#7F8080" d="M688.99,43.531V19.577h14.2v2.827h-11.603v7.319h10.866v2.827h-10.866v8.154h12.06v2.826L688.99,43.531
			L688.99,43.531z"/>
		<path fill="#7F8080" d="M709.067,43.531V19.577h2.664l10.327,18.845V19.577h2.483v23.954h-2.663l-10.312-18.848v18.848H709.067z"
			/>
	</g>
	<g>
		<path fill="#7F8080" d="M427.943,75.02v-21.13h-6.472v-2.826h15.572v2.826h-6.503v21.13H427.943z"/>
		<path fill="#7F8080" d="M445.349,75.02V51.062h8.709c1.819,0,3.163,0.224,4.029,0.67s1.576,1.189,2.131,2.229
			c0.558,1.039,0.835,2.245,0.835,3.617c0,1.807-0.472,3.271-1.414,4.393c-0.942,1.121-2.312,1.834-4.109,2.139
			c0.729,0.44,1.286,0.883,1.667,1.333c0.772,0.915,1.454,1.934,2.043,3.056l3.431,6.521h-3.268l-2.619-4.979
			c-1.017-1.95-1.781-3.263-2.299-3.94c-0.518-0.675-1.019-1.131-1.501-1.366c-0.484-0.235-1.162-0.353-2.032-0.353h-3.004v10.641
			h-2.599V75.02z M447.946,61.635h5.589c1.22,0,2.146-0.147,2.777-0.441s1.134-0.757,1.504-1.389
			c0.369-0.632,0.556-1.366,0.556-2.206c0-1.209-0.354-2.159-1.062-2.852c-0.71-0.691-1.761-1.037-3.153-1.037h-6.21V61.635z"/>
		<path fill="#7F8080" d="M468.702,75.02l7.575-23.957h2.778L487.1,75.02h-2.974l-2.285-7.256h-8.264l-2.136,7.256H468.702z
			 M474.337,65.181h6.692l-2.042-6.634c-0.632-2.037-1.095-3.693-1.39-4.968c-0.253,1.536-0.611,3.062-1.074,4.575L474.337,65.181z"
			/>
		<path fill="#7F8080" d="M494.768,75.02V51.062h2.663l10.327,18.847V51.062h2.484V75.02h-2.663l-10.312-18.851V75.02H494.768z"/>
		<path fill="#7F8080" d="M519.461,67.307l2.451-0.262c0.13,1.316,0.427,2.346,0.89,3.081c0.464,0.735,1.125,1.326,1.985,1.772
			c0.861,0.445,1.831,0.67,2.909,0.67c1.547,0,2.748-0.377,3.604-1.133c0.854-0.756,1.282-1.736,1.282-2.944
			c0-0.706-0.155-1.323-0.466-1.851c-0.312-0.529-0.778-0.961-1.405-1.298s-1.979-0.812-4.061-1.429
			c-1.854-0.55-3.17-1.103-3.954-1.658c-0.784-0.555-1.396-1.261-1.83-2.116c-0.436-0.855-0.654-1.821-0.654-2.899
			c0-1.939,0.627-3.524,1.879-4.756c1.253-1.23,2.942-1.847,5.066-1.847c1.459,0,2.736,0.289,3.832,0.867
			c1.095,0.577,1.943,1.404,2.548,2.482c0.604,1.078,0.93,2.349,0.973,3.808l-2.499,0.229c-0.131-1.559-0.598-2.713-1.396-3.465
			c-0.802-0.752-1.927-1.128-3.374-1.128c-1.473,0-2.595,0.331-3.366,0.989c-0.774,0.658-1.161,1.511-1.161,2.557
			c0,0.97,0.283,1.721,0.851,2.254c0.566,0.534,1.842,1.075,3.822,1.622c1.938,0.537,3.299,1.002,4.083,1.396
			c1.197,0.612,2.104,1.417,2.713,2.413c0.612,0.996,0.918,2.186,0.918,3.566c0,1.373-0.32,2.621-0.964,3.748
			c-0.643,1.127-1.518,1.982-2.623,2.57c-1.104,0.587-2.438,0.883-3.995,0.883c-2.43,0-4.365-0.73-5.81-2.189
			C520.264,71.779,519.515,69.802,519.461,67.307z"/>
		<path fill="#7F8080" d="M542.177,75.02l7.575-23.957h2.779l8.044,23.957h-2.975l-2.284-7.256h-8.265l-2.136,7.256H542.177z
			 M547.812,65.181h6.69l-2.041-6.634c-0.632-2.037-1.095-3.693-1.39-4.968c-0.253,1.536-0.612,3.062-1.075,4.575L547.812,65.181z"
			/>
		<path fill="#7F8080" d="M582.262,66.62l2.614,0.801c-0.577,2.69-1.588,4.699-3.03,6.022c-1.442,1.322-3.199,1.984-5.27,1.984
			c-1.82,0-3.375-0.443-4.666-1.332c-1.29-0.89-2.348-2.313-3.169-4.275c-0.823-1.963-1.234-4.28-1.234-6.951
			c0-2.639,0.411-4.87,1.234-6.696c0.823-1.826,1.938-3.205,3.346-4.137c1.405-0.932,2.978-1.398,4.71-1.398
			c1.897,0,3.527,0.59,4.891,1.77c1.363,1.179,2.317,2.909,2.862,5.191l-2.549,0.736c-0.873-3.323-2.624-4.984-5.253-4.984
			c-1.311,0-2.443,0.336-3.403,1.005c-0.961,0.672-1.727,1.716-2.299,3.133s-0.86,3.211-0.86,5.381c0,3.28,0.578,5.745,1.733,7.386
			c1.154,1.641,2.69,2.46,4.607,2.46c1.416,0,2.64-0.503,3.669-1.511S581.913,68.669,582.262,66.62z"/>
		<path fill="#7F8080" d="M607.757,66.62l2.613,0.801c-0.578,2.69-1.588,4.699-3.031,6.022c-1.442,1.322-3.2,1.984-5.271,1.984
			c-1.818,0-3.373-0.443-4.664-1.332c-1.291-0.89-2.349-2.313-3.171-4.275c-0.822-1.963-1.233-4.28-1.233-6.951
			c0-2.639,0.412-4.87,1.235-6.696c0.822-1.826,1.938-3.205,3.345-4.137c1.406-0.932,2.977-1.398,4.71-1.398
			c1.897,0,3.528,0.59,4.891,1.77c1.363,1.179,2.317,2.909,2.862,5.191l-2.549,0.736c-0.873-3.323-2.623-4.984-5.252-4.984
			c-1.311,0-2.444,0.336-3.404,1.005c-0.959,0.672-1.727,1.716-2.299,3.133c-0.573,1.417-0.858,3.211-0.858,5.381
			c0,3.28,0.577,5.745,1.732,7.386c1.154,1.641,2.688,2.46,4.606,2.46c1.416,0,2.64-0.503,3.67-1.511
			C606.718,70.197,607.407,68.669,607.757,66.62z"/>
		<path fill="#7F8080" d="M619.801,75.02V51.062h2.6V75.02H619.801z"/>
		<path fill="#7F8080" d="M631.896,63.351c0-4.085,0.898-7.226,2.696-9.42c1.797-2.195,4.035-3.293,6.715-3.293
			c1.732,0,3.312,0.49,4.739,1.471c1.428,0.98,2.558,2.405,3.392,4.273c0.833,1.868,1.25,4.093,1.25,6.675
			c0,3.552-0.807,6.446-2.419,8.679c-1.775,2.462-4.102,3.693-6.978,3.693c-2.897,0-5.229-1.266-6.993-3.791
			C632.696,69.35,631.896,66.587,631.896,63.351z M634.576,63.392c0,2.956,0.649,5.25,1.952,6.879
			c1.302,1.629,2.884,2.443,4.748,2.443c1.904,0,3.504-0.822,4.795-2.469s1.938-4.068,1.938-7.264c0-2.06-0.333-3.902-0.998-5.527
			c-0.512-1.243-1.282-2.237-2.312-2.984c-1.03-0.746-2.154-1.12-3.375-1.12c-1.96,0-3.576,0.818-4.846,2.453
			C635.21,57.439,634.576,59.969,634.576,63.392z"/>
		<path fill="#7F8080" d="M659.596,75.02V51.062h2.663l10.328,18.847V51.062h2.482V75.02h-2.663l-10.312-18.851V75.02H659.596z"/>
		<path fill="#7F8080" d="M685.22,75.02V51.062h14.2v2.826h-11.603v7.321h10.866v2.827h-10.866v8.155h12.061v2.826H685.22V75.02z"/>
		<path fill="#7F8080" d="M708.279,67.307l2.451-0.262c0.131,1.316,0.427,2.346,0.89,3.081c0.464,0.735,1.125,1.326,1.986,1.772
			c0.859,0.445,1.829,0.67,2.907,0.67c1.547,0,2.748-0.377,3.604-1.133c0.854-0.756,1.283-1.736,1.283-2.944
			c0-0.706-0.155-1.323-0.467-1.851c-0.31-0.529-0.777-0.961-1.403-1.298c-0.628-0.337-1.981-0.812-4.062-1.429
			c-1.852-0.55-3.17-1.103-3.954-1.658c-0.783-0.555-1.396-1.261-1.83-2.116c-0.436-0.855-0.653-1.821-0.653-2.899
			c0-1.939,0.627-3.524,1.879-4.756c1.253-1.23,2.94-1.847,5.065-1.847c1.461,0,2.736,0.289,3.832,0.867
			c1.096,0.577,1.943,1.404,2.55,2.482c0.604,1.078,0.928,2.349,0.972,3.808l-2.5,0.229c-0.13-1.559-0.596-2.713-1.396-3.465
			c-0.8-0.752-1.926-1.128-3.374-1.128c-1.471,0-2.593,0.331-3.365,0.989c-0.774,0.658-1.16,1.511-1.16,2.557
			c0,0.97,0.282,1.721,0.85,2.254c0.565,0.534,1.84,1.075,3.822,1.622c1.938,0.537,3.299,1.002,4.083,1.396
			c1.197,0.612,2.102,1.417,2.714,2.413c0.611,0.996,0.917,2.186,0.917,3.566c0,1.373-0.321,2.621-0.964,3.748
			c-0.644,1.127-1.517,1.982-2.623,2.57c-1.104,0.587-2.438,0.883-3.995,0.883c-2.429,0-4.366-0.73-5.81-2.189
			C709.082,71.779,708.333,69.802,708.279,67.307z"/>
	</g>
	<g>
		<path fill="#7F8080" d="M422.331,107.241V83.287h14.2v2.826H424.93v7.32h10.866v2.826H424.93v8.154h12.061v2.826L422.331,107.241
			L422.331,107.241z"/>
		<path fill="#7F8080" d="M448.786,107.241V83.287h2.599v21.128h9.674v2.826H448.786z"/>
		<path fill="#7F8080" d="M472.627,107.241V83.287h14.2v2.826h-11.603v7.32h10.866v2.826h-10.866v8.154h12.06v2.826L472.627,107.241
			L472.627,107.241z"/>
		<path fill="#7F8080" d="M513.185,98.843l2.614,0.802c-0.577,2.689-1.588,4.697-3.031,6.021c-1.442,1.323-3.199,1.985-5.27,1.985
			c-1.819,0-3.374-0.444-4.665-1.334c-1.291-0.889-2.349-2.312-3.17-4.274c-0.823-1.962-1.234-4.278-1.234-6.949
			c0-2.638,0.412-4.87,1.234-6.696c0.823-1.824,1.938-3.205,3.346-4.137s2.978-1.398,4.711-1.398c1.896,0,3.527,0.591,4.892,1.771
			c1.361,1.181,2.315,2.91,2.86,5.191l-2.549,0.735c-0.873-3.322-2.624-4.983-5.253-4.983c-1.309,0-2.441,0.336-3.403,1.006
			c-0.96,0.671-1.726,1.715-2.299,3.132c-0.573,1.418-0.858,3.211-0.858,5.381c0,3.281,0.578,5.743,1.731,7.385
			c1.154,1.641,2.69,2.461,4.607,2.461c1.417,0,2.641-0.504,3.669-1.513C512.146,102.419,512.835,100.891,513.185,98.843z"/>
		<path fill="#7F8080" d="M532.449,107.241V86.113h-6.472v-2.826h15.572v2.826h-6.503v21.128H532.449z"/>
		<path fill="#7F8080" d="M552.531,107.241V83.287h8.71c1.818,0,3.163,0.223,4.028,0.669s1.576,1.188,2.133,2.229
			c0.556,1.039,0.833,2.244,0.833,3.616c0,1.808-0.473,3.271-1.413,4.394c-0.943,1.121-2.312,1.834-4.11,2.139
			c0.73,0.439,1.286,0.883,1.667,1.332c0.773,0.915,1.454,1.936,2.042,3.057l3.433,6.52h-3.269l-2.62-4.98
			c-1.016-1.947-1.78-3.262-2.297-3.938c-0.518-0.676-1.019-1.133-1.502-1.366c-0.484-0.233-1.161-0.353-2.032-0.353h-3.004v10.638
			h-2.599V107.241z M555.13,93.859h5.589c1.221,0,2.146-0.147,2.777-0.441c0.632-0.295,1.133-0.757,1.503-1.391
			c0.371-0.631,0.556-1.365,0.556-2.205c0-1.208-0.354-2.159-1.061-2.852c-0.71-0.691-1.761-1.037-3.154-1.037h-6.21V93.859z"/>
		<path fill="#7F8080" d="M579.983,95.575c0-4.086,0.899-7.226,2.696-9.421c1.797-2.194,4.035-3.293,6.717-3.293
			c1.731,0,3.312,0.49,4.738,1.471c1.428,0.98,2.558,2.404,3.391,4.273c0.834,1.867,1.25,4.094,1.25,6.676
			c0,3.551-0.808,6.443-2.419,8.676c-1.775,2.462-4.101,3.693-6.978,3.693c-2.896,0-5.229-1.265-6.994-3.791
			C580.785,101.57,579.983,98.811,579.983,95.575z M582.664,95.615c0,2.955,0.65,5.248,1.952,6.878s2.884,2.444,4.747,2.444
			c1.906,0,3.505-0.822,4.796-2.471c1.291-1.646,1.938-4.066,1.938-7.261c0-2.062-0.333-3.903-0.998-5.526
			c-0.512-1.244-1.281-2.238-2.312-2.986c-1.029-0.745-2.154-1.119-3.374-1.119c-1.961,0-3.576,0.818-4.845,2.453
			C583.299,89.663,582.664,92.191,582.664,95.615z M587.092,81.652l1.782-4.575h3.153l-2.941,4.575H587.092z"/>
		<path fill="#7F8080" d="M610.36,107.241V83.287h2.664l10.326,18.845V83.287h2.483v23.954h-2.663L612.86,88.393v18.849H610.36
			L610.36,107.241z"/>
		<path fill="#7F8080" d="M639.104,107.241V83.287h2.6v23.954H639.104L639.104,107.241z"/>
		<path fill="#7F8080" d="M668.55,98.843l2.613,0.802c-0.577,2.689-1.587,4.697-3.03,6.021s-3.2,1.985-5.27,1.985
			c-1.82,0-3.375-0.444-4.665-1.334c-1.291-0.889-2.349-2.312-3.17-4.274c-0.823-1.962-1.233-4.278-1.233-6.949
			c0-2.638,0.41-4.87,1.234-6.696c0.822-1.824,1.938-3.205,3.345-4.137c1.406-0.932,2.977-1.398,4.71-1.398
			c1.896,0,3.527,0.591,4.891,1.771c1.364,1.181,2.317,2.91,2.862,5.191l-2.549,0.735c-0.873-3.322-2.624-4.983-5.253-4.983
			c-1.31,0-2.443,0.336-3.403,1.006c-0.961,0.671-1.727,1.715-2.299,3.132c-0.572,1.418-0.859,3.211-0.859,5.381
			c0,3.281,0.578,5.743,1.732,7.385c1.154,1.641,2.689,2.461,4.607,2.461c1.415,0,2.64-0.504,3.669-1.513
			C667.513,102.419,668.201,100.891,668.55,98.843z"/>
		<path fill="#7F8080" d="M680.625,107.241l7.576-23.954h2.777l8.046,23.954h-2.976l-2.284-7.255H685.5l-2.136,7.255H680.625z
			 M686.261,97.405h6.691l-2.042-6.636c-0.631-2.037-1.094-3.692-1.389-4.968c-0.254,1.536-0.611,3.062-1.075,4.575L686.261,97.405z
			"/>
		<path fill="#7F8080" d="M708.567,99.527l2.45-0.26c0.131,1.317,0.428,2.344,0.892,3.08c0.462,0.734,1.124,1.325,1.983,1.772
			c0.861,0.446,1.831,0.669,2.909,0.669c1.547,0,2.748-0.377,3.604-1.133c0.854-0.756,1.281-1.736,1.281-2.943
			c0-0.706-0.154-1.322-0.465-1.852c-0.311-0.525-0.778-0.959-1.404-1.295c-0.627-0.338-1.981-0.813-4.062-1.431
			c-1.852-0.55-3.17-1.103-3.954-1.657c-0.784-0.556-1.395-1.262-1.83-2.117c-0.437-0.854-0.652-1.82-0.652-2.898
			c0-1.939,0.626-3.523,1.879-4.756c1.252-1.23,2.939-1.848,5.064-1.848c1.46,0,2.736,0.289,3.832,0.867
			c1.095,0.578,1.944,1.404,2.549,2.482c0.604,1.079,0.93,2.35,0.973,3.809l-2.5,0.229c-0.13-1.56-0.597-2.713-1.396-3.465
			c-0.801-0.751-1.926-1.127-3.375-1.127c-1.47,0-2.593,0.329-3.365,0.987c-0.773,0.659-1.159,1.512-1.159,2.558
			c0,0.97,0.281,1.722,0.851,2.255c0.564,0.533,1.839,1.074,3.821,1.621c1.938,0.537,3.299,1.002,4.083,1.396
			c1.196,0.611,2.103,1.416,2.714,2.412c0.609,0.995,0.917,2.184,0.917,3.566c0,1.37-0.321,2.62-0.965,3.745
			c-0.644,1.127-1.518,1.983-2.622,2.571c-1.105,0.588-2.438,0.881-3.996,0.881c-2.428,0-4.365-0.729-5.81-2.188
			C709.37,104.001,708.622,102.023,708.567,99.527z"/>
	</g>
</g>
<line fill="none" stroke="#2F3F84" stroke-miterlimit="10" x1="381.286" y1="4.002" x2="381.286" y2="119.004"/>
<g>
	<path fill="#E22D2D" d="M354.966,32.392c-3.827,0.444-0.542,5.854-4.575,5.897c-5.042,0.054-5.519-6.797-9.758-7.155
		c-1.214-0.391-3.426,0.238-3.394,3.263c-0.799,9.976,3.771,20.056-1.076,28.646c5.086,1.081,9.325-0.904,10.934-3.178
		c3.896-5.506,2.778-13.608,2.778-13.608c3.778,2.062,9.493,0.408,9.493,0.408c1.653,3.482,5.548,3.753,7.346,1.784
		c-4.399-3.774-6.789-10.03-9.722-15.07C356.386,33.183,355.367,32.186,354.966,32.392"/>
	<path fill="#EA3434" d="M363.225,32.039c-1.857-5.769-9.98-10.083-17.522-12.613c-7.542-2.53-18.439,2.745-23.691,5.922
		c-5.252,3.177-7.574,6.45-7.574,6.45c5.545,21.964,14.494,29.708,21.727,31.245c4.847-8.589,0.276-18.669,1.076-28.646
		c-0.032-3.025,2.179-3.653,3.394-3.263c4.239,0.358,4.715,7.209,9.757,7.156c4.033-0.043,0.749-5.453,4.575-5.897
		c0.402-0.206,1.421,0.792,2.027,0.986c2.933,5.041,5.322,11.297,9.722,15.071c0.328-0.36,0.587-0.794,0.749-1.297
		C368.511,43.892,365.082,37.809,363.225,32.039"/>
	<path fill="#FFFFFF" d="M338.171,64.84c-15.243-2.435-24.81-17.223-31.232-30.828c-1.49,1.41-2.126,3.753-0.208,9.572
		c3.156,9.576,12.495,21.838,24.797,25.227c12.305,3.388,15.673,2.778,16.634-2.835c0.96-5.612,2.085-7.474-0.786-8.076
		c-1.556-0.327-3.24-0.727-4.459-1.026C339.175,58.41,334.902,59.186,338.171,64.84"/>
	<g opacity="0.25">
		<g>
			<defs>
				
					<rect id="SVGID_1_" x="312.205" y="26.438" transform="matrix(-0.8896 0.4568 -0.4568 -0.8896 642.7472 -52.5583)" width="31.041" height="49.938"/>
			</defs>
			<clipPath id="SVGID_2_">
				<use xlink:href="#SVGID_1_"  overflow="visible"/>
			</clipPath>
			<path clip-path="url(#SVGID_2_)" fill="#CBD0D4" d="M338.171,64.84c-15.243-2.435-24.81-17.223-31.232-30.828
				c-1.49,1.41-2.126,3.753-0.208,9.572c3.156,9.576,12.495,21.838,24.797,25.227c12.305,3.388,15.673,2.778,16.634-2.835
				c0.96-5.612,2.085-7.474-0.786-8.076c-1.556-0.327-3.24-0.727-4.459-1.026C339.175,58.41,334.902,59.186,338.171,64.84"/>
		</g>
	</g>
	<path fill="#FFFFFF" d="M324.83,47.248c-6.028-6.342-7.968-14.143-8.492-16.113c-0.523-1.971-2.794-1.445-5.901,0.631
		c-1.219,0.814-2.536,1.336-3.498,2.247c6.422,13.605,15.989,28.393,31.232,30.828c-3.27-5.653,1.003-6.43,4.747-7.965
		c-1.031-0.252-1.731-0.433-1.731-0.433S330.857,53.589,324.83,47.248"/>
	<path fill="#FFCB41" d="M362.517,53.692c0.549,0.444,1.183,0.706,1.834,0.802c0.193-0.192,0.381-0.379,0.552-0.552
		c-0.256-0.26-0.464-0.47-0.612-0.617c-0.108,0.061-0.223,0.104-0.344,0.097c-0.374-0.024-0.693-0.439-0.67-0.804
		c0.022-0.364,0.345-0.641,0.718-0.617c0.374,0.023,0.74,0.343,0.718,0.708c-0.005,0.074-0.033,0.147-0.063,0.219
		c0.168,0.132,0.404,0.351,0.659,0.6c0.221-0.227,0.401-0.415,0.529-0.549c-0.063-0.102-0.109-0.209-0.105-0.324
		c0.009-0.358,0.404-0.676,0.761-0.666c0.359,0.01,0.641,0.307,0.632,0.665c-0.011,0.358-0.311,0.717-0.669,0.708
		c-0.073-0.001-0.145-0.025-0.216-0.052c-0.118,0.158-0.312,0.377-0.532,0.615c0.141,0.144,0.275,0.284,0.403,0.415
		c0.663-0.221,1.273-0.624,1.747-1.208c1.318-1.629,1.067-4.021-0.562-5.339c-1.63-1.32-4.02-1.069-5.339,0.56
		C360.636,49.981,360.888,52.373,362.517,53.692"/>
	<path fill="#FFCB41" d="M365.129,54.528c0.104-0.006,0.207-0.017,0.31-0.032c-0.045-0.047-0.094-0.098-0.138-0.145
		C365.242,54.412,365.186,54.47,365.129,54.528"/>
	<path fill="#222221" d="M365.708,53.924c0.221-0.238,0.414-0.457,0.532-0.615c0.071,0.027,0.144,0.051,0.216,0.052
		c0.358,0.01,0.658-0.35,0.669-0.708c0.009-0.358-0.272-0.655-0.631-0.666c-0.357-0.009-0.752,0.309-0.763,0.667
		c-0.003,0.115,0.043,0.223,0.106,0.324c-0.128,0.134-0.309,0.322-0.529,0.549c-0.255-0.249-0.49-0.468-0.659-0.6
		c0.03-0.072,0.058-0.145,0.063-0.219c0.022-0.364-0.344-0.684-0.718-0.708c-0.375-0.024-0.696,0.253-0.718,0.617
		c-0.022,0.365,0.297,0.78,0.67,0.803c0.12,0.007,0.235-0.036,0.343-0.096c0.148,0.147,0.356,0.356,0.612,0.617
		c-0.171,0.173-0.358,0.359-0.552,0.552c0.258,0.037,0.519,0.048,0.778,0.034c0.057-0.059,0.113-0.117,0.172-0.176
		c0.044,0.046,0.093,0.097,0.138,0.145c0.229-0.032,0.453-0.084,0.673-0.157C365.983,54.208,365.849,54.068,365.708,53.924"/>
	<path fill="#F4C03A" d="M368.478,52.023c0.529-1.476,0.106-3.188-1.181-4.23c-1.63-1.32-4.021-1.069-5.34,0.56
		c-0.622,0.767-0.891,1.704-0.835,2.618C363.484,50.234,366.067,50.426,368.478,52.023"/>
	<path fill="#F2B225" d="M368.444,50.684c0,0,0.796-0.516-0.032-1.762c-0.828-1.248-5.728-1.492-6.929-0.652
		c-1.201,0.838-0.314,1.744-0.314,1.744S364.491,49.342,368.444,50.684"/>
	<path fill="#CE2121" d="M337.085,31.798c0.801,1.351,1.676,2.669,2.569,3.963c0.446,0.649,0.916,1.281,1.393,1.905l0.715,0.937
		l0.742,0.914c1.01,1.2,2.076,2.349,3.211,3.417c1.141,1.061,2.342,2.047,3.655,2.901l0.006,0.004
		c0.104,0.068,0.134,0.208,0.065,0.312c-0.06,0.095-0.182,0.128-0.282,0.083c-1.474-0.667-2.808-1.613-4.021-2.668
		c-1.208-1.069-2.27-2.279-3.288-3.513c-1.017-1.237-1.938-2.546-2.799-3.889c-0.865-1.342-1.662-2.719-2.366-4.159
		c-0.056-0.111-0.009-0.247,0.103-0.301c0.106-0.052,0.233-0.013,0.292,0.087L337.085,31.798z"/>
	<path fill="#CE2121" d="M359.203,46.402c-0.67-1.048-1.237-2.142-1.765-3.261c-0.521-1.121-0.977-2.272-1.386-3.441
		c-0.387-1.176-0.718-2.375-0.958-3.593c-0.23-1.222-0.358-2.464-0.354-3.708c0.001-0.125,0.102-0.225,0.227-0.225
		c0.116,0,0.21,0.088,0.224,0.201l0.001,0.009c0.128,1.206,0.314,2.399,0.591,3.577c0.291,1.174,0.604,2.344,1.01,3.487
		c0.385,1.15,0.825,2.283,1.295,3.404c0.233,0.562,0.474,1.121,0.731,1.672c0.242,0.558,0.512,1.108,0.774,1.651l0.003,0.007
		c0.055,0.112,0.008,0.247-0.105,0.301C359.387,46.533,359.264,46.497,359.203,46.402"/>
	<path fill="#DDE8E5" d="M312.636,35.253c-0.432-0.191-0.989,0.037-1.286,0.429c-0.312,0.385-0.314,0.948-0.109,1.417
		c0.205,0.48,0.595,0.859,1.073,1.097c0.477,0.242,1.023,0.36,1.577,0.417l0.005,0c0.142,0.014,0.244,0.14,0.229,0.281
		c-0.01,0.104-0.082,0.188-0.175,0.218l-0.041,0.014c-0.507,0.166-0.835,0.66-0.926,1.172c-0.098,0.501,0.098,1.04,0.481,1.454
		c0.387,0.416,0.909,0.697,1.496,0.841c0.588,0.141,1.223,0.167,1.866,0.151h0.014c0.144-0.003,0.263,0.112,0.266,0.257
		c0.002,0.104-0.057,0.195-0.145,0.239l-0.009,0.004c-0.506,0.25-0.757,0.874-0.702,1.432c0.044,0.553,0.437,1.033,0.962,1.316
		c0.53,0.294,1.157,0.379,1.794,0.303c0.64-0.077,1.279-0.311,1.913-0.577c0.105-0.045,0.227,0.004,0.271,0.109
		c0.039,0.091,0.006,0.196-0.073,0.251c-0.59,0.404-1.253,0.738-1.998,0.896c-0.735,0.168-1.575,0.094-2.283-0.281
		c-0.353-0.188-0.678-0.453-0.925-0.789c-0.241-0.333-0.407-0.765-0.409-1.184c-0.009-0.418,0.092-0.831,0.302-1.193
		c0.217-0.354,0.559-0.655,0.969-0.768l0.112,0.5l-0.013,0.002c-0.662,0.101-1.357,0.148-2.058,0.019
		c-0.698-0.117-1.409-0.441-1.922-0.992c-0.259-0.271-0.475-0.597-0.608-0.967c-0.137-0.363-0.167-0.796-0.08-1.182
		c0.089-0.388,0.281-0.745,0.562-1.026c0.274-0.286,0.664-0.478,1.061-0.498l0.013,0.512l-0.007-0.001
		c-0.591-0.069-1.194-0.204-1.745-0.494c-0.551-0.282-1.036-0.759-1.275-1.353c-0.248-0.577-0.245-1.338,0.192-1.867
		c0.208-0.257,0.482-0.455,0.797-0.563c0.313-0.109,0.679-0.112,0.998,0.029c0.104,0.045,0.15,0.167,0.105,0.27
		C312.86,35.251,312.739,35.298,312.636,35.253"/>
	<path fill="#DDE8E5" d="M314.92,49.659c0.72,0.6,1.63,0.944,2.533,0.979h0.002c0.141,0.008,0.248,0.13,0.239,0.27
		c-0.004,0.071-0.038,0.135-0.088,0.178l-0.016,0.013c-0.77,0.656-0.981,1.873-0.531,2.722c0.224,0.426,0.624,0.753,1.074,0.956
		c0.456,0.191,0.965,0.268,1.46,0.168l0.008-0.001l0.047-0.007c0.139-0.021,0.268,0.075,0.288,0.213
		c0.006,0.044,0,0.088-0.014,0.128c-0.456,1.174-0.083,2.663,0.906,3.496c0.986,0.835,2.542,0.974,3.681,0.296
		c0.055-0.032,0.126-0.015,0.159,0.04c0.032,0.054,0.016,0.123-0.037,0.156c-1.207,0.77-2.886,0.698-4.039-0.202
		c-1.147-0.909-1.639-2.545-1.156-3.961l0.32,0.334l-0.01,0.004c-0.595,0.24-1.287,0.214-1.878-0.03
		c-0.598-0.232-1.116-0.686-1.418-1.273c-0.604-1.185-0.218-2.698,0.823-3.448l0.135,0.461l-0.003,0
		c-1.01-0.145-1.945-0.626-2.633-1.333c-0.042-0.043-0.041-0.113,0.001-0.154C314.814,49.625,314.877,49.623,314.92,49.659"/>
	<path fill="#DDE8E5" d="M324.284,52.276c-0.346,1.638,0.514,3.449,1.968,4.215c1.453,0.77,3.405,0.445,4.52-0.724l0.005-0.005
		c0.105-0.1,0.271-0.096,0.372,0.009c0.042,0.044,0.065,0.099,0.071,0.154v0.004c0.129,1.258,0.937,2.412,2.035,2.963
		c1.108,0.537,2.485,0.486,3.592-0.117l0.011-0.006l0.034-0.017c0.125-0.062,0.278-0.011,0.34,0.115
		c0.018,0.036,0.026,0.075,0.026,0.113c-0.001,1.036,0.906,2.043,1.961,2.145c1.054,0.11,2.167-0.695,2.386-1.758
		c0.019-0.095,0.111-0.155,0.206-0.137c0.093,0.019,0.154,0.11,0.137,0.204c-0.24,1.255-1.467,2.21-2.765,2.121
		c-1.297-0.108-2.39-1.241-2.441-2.565l0.4,0.211l-0.011,0.008c-1.175,0.883-2.87,1.003-4.194,0.31
		c-1.332-0.679-2.209-2.101-2.232-3.562l0.442,0.166l-0.006,0.006c-1.327,1.308-3.473,1.595-5.076,0.706
		c-1.597-0.9-2.452-2.862-2.043-4.619c0.017-0.072,0.089-0.118,0.162-0.101C324.254,52.133,324.299,52.204,324.284,52.276"/>
	<path fill="#DDE8E5" d="M335.114,64.641c0.236,0.742,0.918,1.319,1.664,1.438c0.745,0.122,1.549-0.218,1.976-0.813l0.002-0.001
		c0.087-0.113,0.25-0.135,0.363-0.046c0.018,0.013,0.033,0.028,0.046,0.046l0.016,0.021c0.502,0.652,1.29,1.056,2.064,1.074
		c0.387,0.015,0.781-0.07,1.133-0.237c0.354-0.175,0.658-0.39,1.038-0.605l0.017-0.011c0.13-0.073,0.296-0.028,0.37,0.104
		c0.041,0.071,0.045,0.154,0.019,0.228c-0.184,0.498-0.625,0.852-1.099,1.05c-0.475,0.207-0.998,0.307-1.521,0.271
		c-1.044-0.082-1.997-0.707-2.46-1.6l0.424,0.021l-0.001,0.002c-0.588,0.73-1.564,1.076-2.46,0.892
		c-0.895-0.189-1.628-0.891-1.862-1.751c-0.021-0.076,0.024-0.153,0.1-0.175C335.015,64.527,335.091,64.568,335.114,64.641"/>
	<g opacity="0.07">
		<g>
			<defs>
				
					<rect id="SVGID_3_" x="322.229" y="21.521" transform="matrix(-0.8896 0.4568 -0.4568 -0.8896 645.0021 -102.8829)" width="25.414" height="9.999"/>
			</defs>
			<clipPath id="SVGID_4_">
				<use xlink:href="#SVGID_3_"  overflow="visible"/>
			</clipPath>
			<path clip-path="url(#SVGID_4_)" fill="#E8FCF8" d="M334.353,21.36c0,0-11.933,5.146-12.051,8.098
				c-0.118,2.952,9.792-3.099,14.095-2.712c4.304,0.387,14.121,0.613,10.979-3.7C344.783,18.753,334.353,21.36,334.353,21.36"/>
		</g>
	</g>
</g>
</svg>
