<?xml version="1.0" encoding="utf-8"?>
<!-- Generator: Adobe Illustrator 15.1.0, SVG Export Plug-In . SVG Version: 6.00 Build 0)  -->
<!DOCTYPE svg PUBLIC "-//W3C//DTD SVG 1.1//EN" "http://www.w3.org/Graphics/SVG/1.1/DTD/svg11.dtd">
<svg version="1.1" xmlns="http://www.w3.org/2000/svg" xmlns:xlink="http://www.w3.org/1999/xlink" x="0px" y="0px"
	 width="728.379px" height="130px" viewBox="0 0 728.379 130" enable-background="new 0 0 728.379 130" xml:space="preserve">
<g id="Capa_2">
</g>
<g id="Capa_1">
	<g>
		<path fill-rule="evenodd" clip-rule="evenodd" fill="#FFFFFF" d="M126.435,38.113H77.187v19.463h49.248
			c4.062,0,6.915-0.758,8.534-2.291c1.621-1.533,2.441-4.268,2.441-8.182c0-3.137-0.867-5.412-2.601-6.84
			C133.075,38.835,130.268,38.113,126.435,38.113L126.435,38.113z M682.422,81.641c2.551,0,4.617,2.197,4.617,4.908
			s-2.066,4.908-4.617,4.908c-2.549,0-4.617-2.197-4.617-4.908S679.873,81.641,682.422,81.641L682.422,81.641z M61.348,77.016
			c2.55,0,4.618,2.199,4.618,4.908c0,2.711-2.067,4.908-4.618,4.908c-2.549,0-4.616-2.197-4.616-4.908
			C56.731,79.215,58.799,77.016,61.348,77.016L61.348,77.016z M231.078,77.016c2.55,0,4.617,2.199,4.617,4.908
			c0,2.711-2.067,4.908-4.617,4.908c-2.549,0-4.617-2.197-4.617-4.908C226.461,79.215,228.529,77.016,231.078,77.016L231.078,77.016
			z M398.363,82.219c2.551,0,4.617,2.199,4.617,4.908c0,2.711-2.066,4.908-4.617,4.908c-2.549,0-4.615-2.197-4.615-4.908
			C393.748,84.418,395.814,82.219,398.363,82.219L398.363,82.219z M398.363,52.157c2.551,0,4.617,2.198,4.617,4.908
			c0,2.711-2.066,4.909-4.617,4.909c-2.549,0-4.615-2.198-4.615-4.909C393.748,54.355,395.814,52.157,398.363,52.157L398.363,52.157
			z M398.363,22.672c2.551,0,4.617,2.198,4.617,4.909c0,2.71-2.066,4.908-4.617,4.908c-2.549,0-4.615-2.198-4.615-4.908
			C393.748,24.871,395.814,22.672,398.363,22.672L398.363,22.672z M529.258,27.009c2.551,0,4.617,2.197,4.617,4.908
			c0,2.71-2.066,4.908-4.617,4.908c-2.549,0-4.615-2.198-4.615-4.908C524.643,29.207,526.709,27.009,529.258,27.009L529.258,27.009z
			 M441.814,75.281c2.549,0,4.617,2.197,4.617,4.908s-2.068,4.908-4.617,4.908s-4.617-2.197-4.617-4.908
			S439.266,75.281,441.814,75.281L441.814,75.281z M575.424,81.641c2.551,0,4.619,2.197,4.619,4.908s-2.068,4.908-4.619,4.908
			c-2.549,0-4.615-2.197-4.615-4.908S572.875,81.641,575.424,81.641L575.424,81.641z M127.507,18.949
			c6.777,0,12.186,0.236,16.223,0.739c4.018,0.501,7.436,1.333,10.245,2.468c5.039,2.038,8.699,5.041,10.975,9.062
			c2.264,4,3.4,9.539,3.4,16.591c0,10.543-2.282,17.984-6.822,22.337c-4.541,4.355-12.231,6.541-23.046,6.541H77.187v19.164H46.703
			V18.949H127.507L127.507,18.949z M247.165,95.852h-32.458V37.794h-43.285V18.949h119.262v18.846h-43.519V95.852L247.165,95.852z
			 M409.562,37.689h-79.217v11.637h79.293v16.167h-79.293v11.76h79.611v18.6H299.999V18.949h109.564V37.689L409.562,37.689z
			 M422.424,70.289l30.004-0.055v1.395c0,2.889,0.91,4.855,2.738,5.871c1.822,1.01,5.658,1.516,11.5,1.516h41.975
			c3.766,0,6.43-0.506,8.033-1.48c1.611-0.982,2.418-2.592,2.418-4.867c0-2.309-0.932-3.975-2.783-4.973
			c-1.846-0.994-5.811-1.91-11.934-2.008l-52.08-0.828c-11.957-0.191-20.025-2.042-24.232-5.273
			c-4.213-3.237-6.32-9.116-6.32-17.666c0-4.407,0.549-8.039,1.666-10.896c1.119-2.855,2.881-5.262,5.363-7.123
			c2.879-2.158,6.684-3.65,11.361-4.549s12.299-1.34,22.842-1.34h50.756c11.5,0,19.781,1.621,24.824,4.85
			c5.066,3.241,7.598,8.496,7.598,15.761c0,0.476-0.021,0.987-0.045,1.552c-0.021,0.547-0.092,1.445-0.229,2.68h-29.273v-0.317
			c0-2.539-0.842-4.448-2.512-5.729c-1.66-1.275-4.176-1.904-7.527-1.904h-39.371c-5.842,0-9.699,0.441-11.568,1.34
			c-1.871,0.898-2.807,2.469-2.807,4.707c0,2.203,0.842,3.796,2.533,4.777c1.709,0.993,4.807,1.836,9.377,1.887l54.361,0.617
			c11.41,0.129,19.441,2.223,24.096,5.941c4.654,3.72,6.982,10.069,6.982,19.059c0,5.342-0.869,9.469-2.58,12.395
			s-4.607,5.43-8.646,7.492c-2.67,1.305-6.32,2.25-10.908,2.822c-4.584,0.572-11.227,0.846-19.918,0.846h-44.326
			c-16.609,0-23.924-1.441-29.557-4.32c-5.615-2.867-12.223-8.234-12.223-16.078c0-0.459,0.047-1.199,0.115-2.258
			C422.195,73.092,422.285,71.805,422.424,70.289L422.424,70.289z M609.744,64.559h38.242L628.66,37.337L609.744,64.559
			L609.744,64.559z M588.549,95.852h-33.154l54.35-76.903h38.768l53.348,76.903H668.5l-9.629-12.799h-60.625L588.549,95.852
			L588.549,95.852z"/>
		<polygon fill-rule="evenodd" clip-rule="evenodd" fill="#9D9D9C" points="230.815,87.027 232.599,87.027 232.599,108.863 
			232.599,110.76 230.815,110.76 62.425,110.76 60.642,110.76 60.642,108.863 60.642,87.027 62.425,87.027 62.425,108.863 
			230.815,108.863 230.815,87.027 		"/>
		<polygon fill-rule="evenodd" clip-rule="evenodd" fill="#9D9D9C" points="574.305,92.318 576.088,92.318 576.088,108.863 
			576.088,110.76 574.305,110.76 399.221,110.76 397.438,110.76 397.438,108.863 397.438,92.318 399.221,92.318 399.221,108.863 
			574.305,108.863 574.305,92.318 		"/>
		<path fill-rule="evenodd" clip-rule="evenodd" fill="#757373" d="M67.606,106.949h161.079l0.612,0.004V86.467
			c0.551,0.248,1.157,0.385,1.793,0.385c0.772,0,1.5-0.201,2.14-0.559v24.596H59.161V86.258c0.65,0.371,1.396,0.586,2.186,0.586
			c0.619,0,1.208-0.133,1.747-0.365h0.002v20.475h4.51V106.949L67.606,106.949z"/>
		<path fill-rule="evenodd" clip-rule="evenodd" fill="#757373" d="M407.344,106.955h-4.564v-0.006v0.006h-1.82l-0.004,0.002h-0.607
			V91.676c-0.6,0.307-1.271,0.477-1.98,0.477c-0.697,0-1.359-0.168-1.953-0.463v19.205h174.068l-0.004-0.006h7.002V91.002
			c-0.607,0.312-1.289,0.488-2.01,0.488c-0.688,0-1.338-0.16-1.926-0.449v15.912h-4.51v-0.004H407.957l-0.006,0.004h-0.607V106.955
			L407.344,106.955z M395.781,106.955v3.939h0.008L395.781,106.955L395.781,106.955z"/>
	</g>
</g>
</svg>
