<?xml version="1.0" encoding="UTF-8" standalone="no"?>
<!DOCTYPE svg PUBLIC "-//W3C//DTD SVG 1.1//EN"
 "http://www.w3.org/Graphics/SVG/1.1/DTD/svg11.dtd">
<!-- Generated by graphviz version 2.40.1 (20161225.0304)
 -->
<!-- Title: dependencies Pages: 1 -->
<svg width="670pt" height="211pt"
 viewBox="0.00 0.00 670.00 211.00" xmlns="http://www.w3.org/2000/svg" xmlns:xlink="http://www.w3.org/1999/xlink">
<g id="graph0" class="graph" transform="scale(1 1) rotate(0) translate(4 207)">
<title>dependencies</title>
<polygon fill="#ffffff" stroke="transparent" points="-4,4 -4,-207 666,-207 666,4 -4,4"/>
<text text-anchor="start" x="310.0091" y="-42.4" font-family="sans-serif" font-weight="bold" font-size="14.00" fill="#000000">Legend</text>
<polygon fill="#ffffb3" stroke="transparent" points="97,-10 97,-30 117,-30 117,-10 97,-10"/>
<text text-anchor="start" x="120.629" y="-15.4" font-family="sans-serif" font-size="14.00" fill="#000000"> &#160;Declarations</text>
<polygon fill="#8dd3c7" stroke="transparent" points="210,-10 210,-30 230,-30 230,-10 210,-10"/>
<text text-anchor="start" x="233.7251" y="-15.4" font-family="sans-serif" font-size="14.00" fill="#000000"> &#160;Module</text>
<polygon fill="#80b1d3" stroke="transparent" points="296,-10 296,-30 316,-30 316,-10 296,-10"/>
<text text-anchor="start" x="319.7812" y="-15.4" font-family="sans-serif" font-size="14.00" fill="#000000"> &#160;Bootstrap</text>
<polygon fill="#fdb462" stroke="transparent" points="393,-10 393,-30 413,-30 413,-10 393,-10"/>
<text text-anchor="start" x="416.6732" y="-15.4" font-family="sans-serif" font-size="14.00" fill="#000000"> &#160;Providers</text>
<polygon fill="#fb8072" stroke="transparent" points="489,-10 489,-30 509,-30 509,-10 489,-10"/>
<text text-anchor="start" x="512.7258" y="-15.4" font-family="sans-serif" font-size="14.00" fill="#000000"> &#160;Exports</text>
<g id="clust1" class="cluster">
<title>cluster_AyudaModule</title>
<polygon fill="none" stroke="#000000" stroke-dasharray="1,5" points="8,-70 8,-195 654,-195 654,-70 8,-70"/>
</g>
<g id="clust2" class="cluster">
<title>cluster_AyudaModule_declarations</title>
<polygon fill="none" stroke="#000000" points="182,-78 182,-130 646,-130 646,-78 182,-78"/>
</g>
<g id="clust6" class="cluster">
<title>cluster_AyudaModule_imports</title>
<polygon fill="none" stroke="#000000" points="16,-78 16,-130 174,-130 174,-78 16,-78"/>
</g>
<!-- AyudaComponent -->
<g id="node1" class="node">
<title>AyudaComponent</title>
<polygon fill="#ffffb3" stroke="#000000" points="638.1541,-122 519.8459,-122 519.8459,-86 638.1541,-86 638.1541,-122"/>
<text text-anchor="middle" x="579" y="-99.8" font-family="Times,serif" font-size="14.00" fill="#000000">AyudaComponent</text>
</g>
<!-- AyudaModule -->
<g id="node4" class="node">
<title>AyudaModule</title>
<polygon fill="#8dd3c7" stroke="#000000" points="378.3711,-187 375.3711,-191 354.3711,-191 351.3711,-187 281.6289,-187 281.6289,-151 378.3711,-151 378.3711,-187"/>
<text text-anchor="middle" x="330" y="-164.8" font-family="Times,serif" font-size="14.00" fill="#000000">AyudaModule</text>
</g>
<!-- AyudaComponent&#45;&gt;AyudaModule -->
<g id="edge1" class="edge">
<title>AyudaComponent&#45;&gt;AyudaModule</title>
<path fill="none" stroke="#000000" d="M579,-122.1061C579,-141.3391 579,-169 579,-169 579,-169 388.6008,-169 388.6008,-169"/>
<polygon fill="#000000" stroke="#000000" points="388.6008,-165.5001 378.6008,-169 388.6008,-172.5001 388.6008,-165.5001"/>
</g>
<!-- ContenidoAyudaComponent -->
<g id="node2" class="node">
<title>ContenidoAyudaComponent</title>
<polygon fill="#ffffb3" stroke="#000000" points="501.486,-122 324.514,-122 324.514,-86 501.486,-86 501.486,-122"/>
<text text-anchor="middle" x="413" y="-99.8" font-family="Times,serif" font-size="14.00" fill="#000000">ContenidoAyudaComponent</text>
</g>
<!-- ContenidoAyudaComponent&#45;&gt;AyudaModule -->
<g id="edge2" class="edge">
<title>ContenidoAyudaComponent&#45;&gt;AyudaModule</title>
<path fill="none" stroke="#000000" d="M351.4713,-122.1061C351.4713,-122.1061 351.4713,-140.991 351.4713,-140.991"/>
<polygon fill="#000000" stroke="#000000" points="347.9713,-140.9909 351.4713,-150.991 354.9713,-140.991 347.9713,-140.9909"/>
</g>
<!-- IndiceComponent -->
<g id="node3" class="node">
<title>IndiceComponent</title>
<polygon fill="#ffffb3" stroke="#000000" points="306.3132,-122 189.6868,-122 189.6868,-86 306.3132,-86 306.3132,-122"/>
<text text-anchor="middle" x="248" y="-99.8" font-family="Times,serif" font-size="14.00" fill="#000000">IndiceComponent</text>
</g>
<!-- IndiceComponent&#45;&gt;AyudaModule -->
<g id="edge3" class="edge">
<title>IndiceComponent&#45;&gt;AyudaModule</title>
<path fill="none" stroke="#000000" d="M293.8605,-122.1061C293.8605,-122.1061 293.8605,-140.991 293.8605,-140.991"/>
<polygon fill="#000000" stroke="#000000" points="290.3605,-140.9909 293.8605,-150.991 297.3605,-140.991 290.3605,-140.9909"/>
</g>
<!-- AyudaRoutingModule -->
<g id="node5" class="node">
<title>AyudaRoutingModule</title>
<polygon fill="#8dd3c7" stroke="#000000" points="165.9888,-122 162.9888,-126 141.9888,-126 138.9888,-122 24.0112,-122 24.0112,-86 165.9888,-86 165.9888,-122"/>
<text text-anchor="middle" x="95" y="-99.8" font-family="Times,serif" font-size="14.00" fill="#000000">AyudaRoutingModule</text>
</g>
<!-- AyudaRoutingModule&#45;&gt;AyudaModule -->
<g id="edge4" class="edge">
<title>AyudaRoutingModule&#45;&gt;AyudaModule</title>
<path fill="none" stroke="#000000" d="M95,-122.1061C95,-141.3391 95,-169 95,-169 95,-169 271.5928,-169 271.5928,-169"/>
<polygon fill="#000000" stroke="#000000" points="271.5928,-172.5001 281.5928,-169 271.5928,-165.5001 271.5928,-172.5001"/>
</g>
</g>
</svg>
