<?xml version="1.0" encoding="UTF-8" standalone="no"?>
<!DOCTYPE svg PUBLIC "-//W3C//DTD SVG 1.1//EN"
 "http://www.w3.org/Graphics/SVG/1.1/DTD/svg11.dtd">
<!-- Generated by graphviz version 2.40.1 (20161225.0304)
 -->
<!-- Title: dependencies Pages: 1 -->
<svg width="4770pt" height="284pt"
 viewBox="0.00 0.00 4770.00 284.00" xmlns="http://www.w3.org/2000/svg" xmlns:xlink="http://www.w3.org/1999/xlink">
<g id="graph0" class="graph" transform="scale(1 1) rotate(0) translate(4 280)">
<title>dependencies</title>
<polygon fill="#ffffff" stroke="transparent" points="-4,4 -4,-280 4766,-280 4766,4 -4,4"/>
<text text-anchor="start" x="2360.0091" y="-42.4" font-family="sans-serif" font-weight="bold" font-size="14.00" fill="#000000">Legend</text>
<polygon fill="#ffffb3" stroke="transparent" points="2147,-10 2147,-30 2167,-30 2167,-10 2147,-10"/>
<text text-anchor="start" x="2170.629" y="-15.4" font-family="sans-serif" font-size="14.00" fill="#000000"> &#160;Declarations</text>
<polygon fill="#8dd3c7" stroke="transparent" points="2260,-10 2260,-30 2280,-30 2280,-10 2260,-10"/>
<text text-anchor="start" x="2283.7251" y="-15.4" font-family="sans-serif" font-size="14.00" fill="#000000"> &#160;Module</text>
<polygon fill="#80b1d3" stroke="transparent" points="2346,-10 2346,-30 2366,-30 2366,-10 2346,-10"/>
<text text-anchor="start" x="2369.7812" y="-15.4" font-family="sans-serif" font-size="14.00" fill="#000000"> &#160;Bootstrap</text>
<polygon fill="#fdb462" stroke="transparent" points="2443,-10 2443,-30 2463,-30 2463,-10 2443,-10"/>
<text text-anchor="start" x="2466.6732" y="-15.4" font-family="sans-serif" font-size="14.00" fill="#000000"> &#160;Providers</text>
<polygon fill="#fb8072" stroke="transparent" points="2539,-10 2539,-30 2559,-30 2559,-10 2539,-10"/>
<text text-anchor="start" x="2562.7258" y="-15.4" font-family="sans-serif" font-size="14.00" fill="#000000"> &#160;Exports</text>
<g id="clust1" class="cluster">
<title>cluster_AppModule</title>
<polygon fill="none" stroke="#000000" stroke-dasharray="1,5" points="8,-70 8,-268 4754,-268 4754,-70 8,-70"/>
</g>
<g id="clust2" class="cluster">
<title>cluster_AppModule_declarations</title>
<polygon fill="none" stroke="#000000" points="168,-78 168,-130 4746,-130 4746,-78 168,-78"/>
</g>
<g id="clust33" class="cluster">
<title>cluster_AppModule_imports</title>
<polygon fill="none" stroke="#000000" points="16,-78 16,-130 160,-130 160,-78 16,-78"/>
</g>
<g id="clust35" class="cluster">
<title>cluster_AppModule_bootstrap</title>
<polygon fill="none" stroke="#000000" points="2324,-208 2324,-260 2448,-260 2448,-208 2324,-208"/>
</g>
<!-- ActivarUsuarioComponent -->
<g id="node1" class="node">
<title>ActivarUsuarioComponent</title>
<polygon fill="#ffffb3" stroke="#000000" points="4737.6274,-122 4570.3726,-122 4570.3726,-86 4737.6274,-86 4737.6274,-122"/>
<text text-anchor="middle" x="4654" y="-99.8" font-family="Times,serif" font-size="14.00" fill="#000000">ActivarUsuarioComponent</text>
</g>
<!-- AppModule -->
<g id="node31" class="node">
<title>AppModule</title>
<polygon fill="#8dd3c7" stroke="#000000" points="2427.6571,-187 2424.6571,-191 2403.6571,-191 2400.6571,-187 2344.3429,-187 2344.3429,-151 2427.6571,-151 2427.6571,-187"/>
<text text-anchor="middle" x="2386" y="-164.8" font-family="Times,serif" font-size="14.00" fill="#000000">AppModule</text>
</g>
<!-- ActivarUsuarioComponent&#45;&gt;AppModule -->
<g id="edge1" class="edge">
<title>ActivarUsuarioComponent&#45;&gt;AppModule</title>
<path fill="none" stroke="#000000" d="M4654,-122.3802C4654,-146.2785 4654,-185 4654,-185 4654,-185 2437.7923,-185 2437.7923,-185"/>
<polygon fill="#000000" stroke="#000000" points="2437.7923,-181.5001 2427.7923,-185 2437.7922,-188.5001 2437.7923,-181.5001"/>
</g>
<!-- AjustesComponent -->
<g id="node2" class="node">
<title>AjustesComponent</title>
<polygon fill="#ffffb3" stroke="#000000" points="4552.8244,-122 4429.1756,-122 4429.1756,-86 4552.8244,-86 4552.8244,-122"/>
<text text-anchor="middle" x="4491" y="-99.8" font-family="Times,serif" font-size="14.00" fill="#000000">AjustesComponent</text>
</g>
<!-- AjustesComponent&#45;&gt;AppModule -->
<g id="edge2" class="edge">
<title>AjustesComponent&#45;&gt;AppModule</title>
<path fill="none" stroke="#000000" d="M4491,-122.3228C4491,-145.6602 4491,-183 4491,-183 4491,-183 2438.0482,-183 2438.0482,-183"/>
<polygon fill="#000000" stroke="#000000" points="2438.0482,-179.5001 2428.0482,-183 2438.0481,-186.5001 2438.0482,-179.5001"/>
</g>
<!-- AppComponent -->
<g id="node3" class="node">
<title>AppComponent</title>
<polygon fill="#ffffb3" stroke="#000000" points="4411.9399,-122 4306.0601,-122 4306.0601,-86 4411.9399,-86 4411.9399,-122"/>
<text text-anchor="middle" x="4359" y="-99.8" font-family="Times,serif" font-size="14.00" fill="#000000">AppComponent</text>
</g>
<!-- AppComponent&#45;&gt;AppModule -->
<g id="edge3" class="edge">
<title>AppComponent&#45;&gt;AppModule</title>
<path fill="none" stroke="#000000" d="M4359,-122.2479C4359,-145.0179 4359,-181 4359,-181 4359,-181 2437.6641,-181 2437.6641,-181"/>
<polygon fill="#000000" stroke="#000000" points="2437.6642,-177.5001 2427.6641,-181 2437.6641,-184.5001 2437.6642,-177.5001"/>
</g>
<!-- BarrasComponent -->
<g id="node4" class="node">
<title>BarrasComponent</title>
<polygon fill="#ffffb3" stroke="#000000" points="4287.8641,-122 4170.1359,-122 4170.1359,-86 4287.8641,-86 4287.8641,-122"/>
<text text-anchor="middle" x="4229" y="-99.8" font-family="Times,serif" font-size="14.00" fill="#000000">BarrasComponent</text>
</g>
<!-- BarrasComponent&#45;&gt;AppModule -->
<g id="edge4" class="edge">
<title>BarrasComponent&#45;&gt;AppModule</title>
<path fill="none" stroke="#000000" d="M4229,-122.2921C4229,-144.2057 4229,-178 4229,-178 4229,-178 2437.9564,-178 2437.9564,-178"/>
<polygon fill="#000000" stroke="#000000" points="2437.9564,-174.5001 2427.9564,-178 2437.9564,-181.5001 2437.9564,-174.5001"/>
</g>
<!-- BuscadorEmisionComponent -->
<g id="node5" class="node">
<title>BuscadorEmisionComponent</title>
<polygon fill="#ffffb3" stroke="#000000" points="4152.3724,-122 3971.6276,-122 3971.6276,-86 4152.3724,-86 4152.3724,-122"/>
<text text-anchor="middle" x="4062" y="-99.8" font-family="Times,serif" font-size="14.00" fill="#000000">BuscadorEmisionComponent</text>
</g>
<!-- BuscadorEmisionComponent&#45;&gt;AppModule -->
<g id="edge5" class="edge">
<title>BuscadorEmisionComponent&#45;&gt;AppModule</title>
<path fill="none" stroke="#000000" d="M4062,-122.1686C4062,-143.498 4062,-176 4062,-176 4062,-176 2437.8476,-176 2437.8476,-176"/>
<polygon fill="#000000" stroke="#000000" points="2437.8476,-172.5001 2427.8476,-176 2437.8476,-179.5001 2437.8476,-172.5001"/>
</g>
<!-- BuscadorRastreadorComponent -->
<g id="node6" class="node">
<title>BuscadorRastreadorComponent</title>
<polygon fill="#ffffb3" stroke="#000000" points="3953.3403,-122 3758.6597,-122 3758.6597,-86 3953.3403,-86 3953.3403,-122"/>
<text text-anchor="middle" x="3856" y="-99.8" font-family="Times,serif" font-size="14.00" fill="#000000">BuscadorRastreadorComponent</text>
</g>
<!-- BuscadorRastreadorComponent&#45;&gt;AppModule -->
<g id="edge6" class="edge">
<title>BuscadorRastreadorComponent&#45;&gt;AppModule</title>
<path fill="none" stroke="#000000" d="M3856,-122.0267C3856,-142.7672 3856,-174 3856,-174 3856,-174 2438.0168,-174 2438.0168,-174"/>
<polygon fill="#000000" stroke="#000000" points="2438.0168,-170.5001 2428.0168,-174 2438.0167,-177.5001 2438.0168,-170.5001"/>
</g>
<!-- BuscadorRecepcionComponent -->
<g id="node7" class="node">
<title>BuscadorRecepcionComponent</title>
<polygon fill="#ffffb3" stroke="#000000" points="3740.7892,-122 3547.2108,-122 3547.2108,-86 3740.7892,-86 3740.7892,-122"/>
<text text-anchor="middle" x="3644" y="-99.8" font-family="Times,serif" font-size="14.00" fill="#000000">BuscadorRecepcionComponent</text>
</g>
<!-- BuscadorRecepcionComponent&#45;&gt;AppModule -->
<g id="edge7" class="edge">
<title>BuscadorRecepcionComponent&#45;&gt;AppModule</title>
<path fill="none" stroke="#000000" d="M3644,-122.2228C3644,-142.3652 3644,-172 3644,-172 3644,-172 2437.8559,-172 2437.8559,-172"/>
<polygon fill="#000000" stroke="#000000" points="2437.8559,-168.5001 2427.8559,-172 2437.8559,-175.5001 2437.8559,-168.5001"/>
</g>
<!-- CargafeComponent -->
<g id="node8" class="node">
<title>CargafeComponent</title>
<polygon fill="#ffffb3" stroke="#000000" points="3529.6345,-122 3404.3655,-122 3404.3655,-86 3529.6345,-86 3529.6345,-122"/>
<text text-anchor="middle" x="3467" y="-99.8" font-family="Times,serif" font-size="14.00" fill="#000000">CargafeComponent</text>
</g>
<!-- CargafeComponent&#45;&gt;AppModule -->
<g id="edge8" class="edge">
<title>CargafeComponent&#45;&gt;AppModule</title>
<path fill="none" stroke="#000000" d="M3467,-122.1061C3467,-141.3391 3467,-169 3467,-169 3467,-169 2437.7141,-169 2437.7141,-169"/>
<polygon fill="#000000" stroke="#000000" points="2437.7141,-165.5001 2427.7141,-169 2437.7141,-172.5001 2437.7141,-165.5001"/>
</g>
<!-- CounterPipe -->
<g id="node9" class="node">
<title>CounterPipe</title>
<polygon fill="#ffffb3" stroke="#000000" points="3385.9902,-122 3300.0098,-122 3300.0098,-86 3385.9902,-86 3385.9902,-122"/>
<text text-anchor="middle" x="3343" y="-99.8" font-family="Times,serif" font-size="14.00" fill="#000000">CounterPipe</text>
</g>
<!-- CounterPipe&#45;&gt;AppModule -->
<g id="edge9" class="edge">
<title>CounterPipe&#45;&gt;AppModule</title>
<path fill="none" stroke="#000000" d="M3343,-122.2222C3343,-140.8285 3343,-167 3343,-167 3343,-167 2437.7365,-167 2437.7365,-167"/>
<polygon fill="#000000" stroke="#000000" points="2437.7365,-163.5001 2427.7365,-167 2437.7364,-170.5001 2437.7365,-163.5001"/>
</g>
<!-- EmisionComponent -->
<g id="node10" class="node">
<title>EmisionComponent</title>
<polygon fill="#ffffb3" stroke="#000000" points="3282.0014,-122 3153.9986,-122 3153.9986,-86 3282.0014,-86 3282.0014,-122"/>
<text text-anchor="middle" x="3218" y="-99.8" font-family="Times,serif" font-size="14.00" fill="#000000">EmisionComponent</text>
</g>
<!-- EmisionComponent&#45;&gt;AppModule -->
<g id="edge10" class="edge">
<title>EmisionComponent&#45;&gt;AppModule</title>
<path fill="none" stroke="#000000" d="M3218,-122.302C3218,-140.2699 3218,-165 3218,-165 3218,-165 2437.8292,-165 2437.8292,-165"/>
<polygon fill="#000000" stroke="#000000" points="2437.8292,-161.5001 2427.8292,-165 2437.8292,-168.5001 2437.8292,-161.5001"/>
</g>
<!-- EmisionfComponent -->
<g id="node11" class="node">
<title>EmisionfComponent</title>
<polygon fill="#ffffb3" stroke="#000000" points="3136.1624,-122 3003.8376,-122 3003.8376,-86 3136.1624,-86 3136.1624,-122"/>
<text text-anchor="middle" x="3070" y="-99.8" font-family="Times,serif" font-size="14.00" fill="#000000">EmisionfComponent</text>
</g>
<!-- EmisionfComponent&#45;&gt;AppModule -->
<g id="edge11" class="edge">
<title>EmisionfComponent&#45;&gt;AppModule</title>
<path fill="none" stroke="#000000" d="M3070,-122.0225C3070,-139.3734 3070,-163 3070,-163 3070,-163 2437.7576,-163 2437.7576,-163"/>
<polygon fill="#000000" stroke="#000000" points="2437.7577,-159.5001 2427.7576,-163 2437.7576,-166.5001 2437.7577,-159.5001"/>
</g>
<!-- FilasComponent -->
<g id="node12" class="node">
<title>FilasComponent</title>
<polygon fill="#ffffb3" stroke="#000000" points="2985.0563,-122 2876.9437,-122 2876.9437,-86 2985.0563,-86 2985.0563,-122"/>
<text text-anchor="middle" x="2931" y="-99.8" font-family="Times,serif" font-size="14.00" fill="#000000">FilasComponent</text>
</g>
<!-- FilasComponent&#45;&gt;AppModule -->
<g id="edge12" class="edge">
<title>FilasComponent&#45;&gt;AppModule</title>
<path fill="none" stroke="#000000" d="M2931,-122.027C2931,-138.3976 2931,-160 2931,-160 2931,-160 2437.8603,-160 2437.8603,-160"/>
<polygon fill="#000000" stroke="#000000" points="2437.8603,-156.5001 2427.8603,-160 2437.8603,-163.5001 2437.8603,-156.5001"/>
</g>
<!-- InfopieComponent -->
<g id="node13" class="node">
<title>InfopieComponent</title>
<polygon fill="#ffffb3" stroke="#000000" points="2858.759,-122 2737.241,-122 2737.241,-86 2858.759,-86 2858.759,-122"/>
<text text-anchor="middle" x="2798" y="-99.8" font-family="Times,serif" font-size="14.00" fill="#000000">InfopieComponent</text>
</g>
<!-- InfopieComponent&#45;&gt;AppModule -->
<g id="edge13" class="edge">
<title>InfopieComponent&#45;&gt;AppModule</title>
<path fill="none" stroke="#000000" d="M2798,-122.2819C2798,-137.9478 2798,-158 2798,-158 2798,-158 2437.7721,-158 2437.7721,-158"/>
<polygon fill="#000000" stroke="#000000" points="2437.7721,-154.5001 2427.7721,-158 2437.772,-161.5001 2437.7721,-154.5001"/>
</g>
<!-- InicioComponent -->
<g id="node14" class="node">
<title>InicioComponent</title>
<polygon fill="#ffffb3" stroke="#000000" points="2718.9888,-122 2605.0112,-122 2605.0112,-86 2718.9888,-86 2718.9888,-122"/>
<text text-anchor="middle" x="2662" y="-99.8" font-family="Times,serif" font-size="14.00" fill="#000000">InicioComponent</text>
</g>
<!-- InicioComponent&#45;&gt;AppModule -->
<g id="edge14" class="edge">
<title>InicioComponent&#45;&gt;AppModule</title>
<path fill="none" stroke="#000000" d="M2662,-122.1871C2662,-137.1824 2662,-156 2662,-156 2662,-156 2437.9185,-156 2437.9185,-156"/>
<polygon fill="#000000" stroke="#000000" points="2437.9185,-152.5001 2427.9185,-156 2437.9184,-159.5001 2437.9185,-152.5001"/>
</g>
<!-- LibraryComponent -->
<g id="node15" class="node">
<title>LibraryComponent</title>
<polygon fill="#ffffb3" stroke="#000000" points="2586.8118,-122 2463.1882,-122 2463.1882,-86 2586.8118,-86 2586.8118,-122"/>
<text text-anchor="middle" x="2525" y="-99.8" font-family="Times,serif" font-size="14.00" fill="#000000">LibraryComponent</text>
</g>
<!-- LibraryComponent&#45;&gt;AppModule -->
<g id="edge15" class="edge">
<title>LibraryComponent&#45;&gt;AppModule</title>
<path fill="none" stroke="#000000" d="M2525,-122.0511C2525,-136.373 2525,-154 2525,-154 2525,-154 2437.7046,-154 2437.7046,-154"/>
<polygon fill="#000000" stroke="#000000" points="2437.7046,-150.5001 2427.7046,-154 2437.7045,-157.5001 2437.7046,-150.5001"/>
</g>
<!-- LineasComponent -->
<g id="node16" class="node">
<title>LineasComponent</title>
<polygon fill="#ffffb3" stroke="#000000" points="2445.1499,-122 2326.8501,-122 2326.8501,-86 2445.1499,-86 2445.1499,-122"/>
<text text-anchor="middle" x="2386" y="-99.8" font-family="Times,serif" font-size="14.00" fill="#000000">LineasComponent</text>
</g>
<!-- LineasComponent&#45;&gt;AppModule -->
<g id="edge16" class="edge">
<title>LineasComponent&#45;&gt;AppModule</title>
<path fill="none" stroke="#000000" d="M2386,-122.1061C2386,-122.1061 2386,-140.991 2386,-140.991"/>
<polygon fill="#000000" stroke="#000000" points="2382.5001,-140.9909 2386,-150.991 2389.5001,-140.991 2382.5001,-140.9909"/>
</g>
<!-- LoginComponent -->
<g id="node17" class="node">
<title>LoginComponent</title>
<polygon fill="#ffffb3" stroke="#000000" points="2308.2758,-122 2193.7242,-122 2193.7242,-86 2308.2758,-86 2308.2758,-122"/>
<text text-anchor="middle" x="2251" y="-99.8" font-family="Times,serif" font-size="14.00" fill="#000000">LoginComponent</text>
</g>
<!-- LoginComponent&#45;&gt;AppModule -->
<g id="edge17" class="edge">
<title>LoginComponent&#45;&gt;AppModule</title>
<path fill="none" stroke="#000000" d="M2251,-122.0511C2251,-136.373 2251,-154 2251,-154 2251,-154 2334.0252,-154 2334.0252,-154"/>
<polygon fill="#000000" stroke="#000000" points="2334.0252,-157.5001 2344.0252,-154 2334.0251,-150.5001 2334.0252,-157.5001"/>
</g>
<!-- Navbar0Component -->
<g id="node18" class="node">
<title>Navbar0Component</title>
<polygon fill="#ffffb3" stroke="#000000" points="2175.5297,-122 2046.4703,-122 2046.4703,-86 2175.5297,-86 2175.5297,-122"/>
<text text-anchor="middle" x="2111" y="-99.8" font-family="Times,serif" font-size="14.00" fill="#000000">Navbar0Component</text>
</g>
<!-- Navbar0Component&#45;&gt;AppModule -->
<g id="edge18" class="edge">
<title>Navbar0Component&#45;&gt;AppModule</title>
<path fill="none" stroke="#000000" d="M2111,-122.1871C2111,-137.1824 2111,-156 2111,-156 2111,-156 2334.2334,-156 2334.2334,-156"/>
<polygon fill="#000000" stroke="#000000" points="2334.2335,-159.5001 2344.2334,-156 2334.2334,-152.5001 2334.2335,-159.5001"/>
</g>
<!-- NavbarComponent -->
<g id="node19" class="node">
<title>NavbarComponent</title>
<polygon fill="#ffffb3" stroke="#000000" points="2028.0297,-122 1905.9703,-122 1905.9703,-86 2028.0297,-86 2028.0297,-122"/>
<text text-anchor="middle" x="1967" y="-99.8" font-family="Times,serif" font-size="14.00" fill="#000000">NavbarComponent</text>
</g>
<!-- NavbarComponent&#45;&gt;AppModule -->
<g id="edge19" class="edge">
<title>NavbarComponent&#45;&gt;AppModule</title>
<path fill="none" stroke="#000000" d="M1967,-122.2819C1967,-137.9478 1967,-158 1967,-158 1967,-158 2334.2928,-158 2334.2928,-158"/>
<polygon fill="#000000" stroke="#000000" points="2334.2929,-161.5001 2344.2928,-158 2334.2928,-154.5001 2334.2929,-161.5001"/>
</g>
<!-- PdfviewerComponent -->
<g id="node20" class="node">
<title>PdfviewerComponent</title>
<polygon fill="#ffffb3" stroke="#000000" points="1887.3627,-122 1748.6373,-122 1748.6373,-86 1887.3627,-86 1887.3627,-122"/>
<text text-anchor="middle" x="1818" y="-99.8" font-family="Times,serif" font-size="14.00" fill="#000000">PdfviewerComponent</text>
</g>
<!-- PdfviewerComponent&#45;&gt;AppModule -->
<g id="edge20" class="edge">
<title>PdfviewerComponent&#45;&gt;AppModule</title>
<path fill="none" stroke="#000000" d="M1818,-122.027C1818,-138.3976 1818,-160 1818,-160 1818,-160 2334.2336,-160 2334.2336,-160"/>
<polygon fill="#000000" stroke="#000000" points="2334.2336,-163.5001 2344.2336,-160 2334.2336,-156.5001 2334.2336,-163.5001"/>
</g>
<!-- PieComponent -->
<g id="node21" class="node">
<title>PieComponent</title>
<polygon fill="#ffffb3" stroke="#000000" points="1730.7204,-122 1631.2796,-122 1631.2796,-86 1730.7204,-86 1730.7204,-122"/>
<text text-anchor="middle" x="1681" y="-99.8" font-family="Times,serif" font-size="14.00" fill="#000000">PieComponent</text>
</g>
<!-- PieComponent&#45;&gt;AppModule -->
<g id="edge21" class="edge">
<title>PieComponent&#45;&gt;AppModule</title>
<path fill="none" stroke="#000000" d="M1681,-122.0225C1681,-139.3734 1681,-163 1681,-163 1681,-163 2334.271,-163 2334.271,-163"/>
<polygon fill="#000000" stroke="#000000" points="2334.2711,-166.5001 2344.271,-163 2334.271,-159.5001 2334.2711,-166.5001"/>
</g>
<!-- PrecargaComponent -->
<g id="node22" class="node">
<title>PrecargaComponent</title>
<polygon fill="#ffffb3" stroke="#000000" points="1613.2949,-122 1482.7051,-122 1482.7051,-86 1613.2949,-86 1613.2949,-122"/>
<text text-anchor="middle" x="1548" y="-99.8" font-family="Times,serif" font-size="14.00" fill="#000000">PrecargaComponent</text>
</g>
<!-- PrecargaComponent&#45;&gt;AppModule -->
<g id="edge22" class="edge">
<title>PrecargaComponent&#45;&gt;AppModule</title>
<path fill="none" stroke="#000000" d="M1548,-122.302C1548,-140.2699 1548,-165 1548,-165 1548,-165 2334.1567,-165 2334.1567,-165"/>
<polygon fill="#000000" stroke="#000000" points="2334.1568,-168.5001 2344.1567,-165 2334.1567,-161.5001 2334.1568,-168.5001"/>
</g>
<!-- RastreadorComponent -->
<g id="node23" class="node">
<title>RastreadorComponent</title>
<polygon fill="#ffffb3" stroke="#000000" points="1464.9692,-122 1323.0308,-122 1323.0308,-86 1464.9692,-86 1464.9692,-122"/>
<text text-anchor="middle" x="1394" y="-99.8" font-family="Times,serif" font-size="14.00" fill="#000000">RastreadorComponent</text>
</g>
<!-- RastreadorComponent&#45;&gt;AppModule -->
<g id="edge23" class="edge">
<title>RastreadorComponent&#45;&gt;AppModule</title>
<path fill="none" stroke="#000000" d="M1394,-122.2222C1394,-140.8285 1394,-167 1394,-167 1394,-167 2334.3238,-167 2334.3238,-167"/>
<polygon fill="#000000" stroke="#000000" points="2334.3239,-170.5001 2344.3238,-167 2334.3238,-163.5001 2334.3239,-170.5001"/>
</g>
<!-- RecepcionComponent -->
<g id="node24" class="node">
<title>RecepcionComponent</title>
<polygon fill="#ffffb3" stroke="#000000" points="1305.4186,-122 1164.5814,-122 1164.5814,-86 1305.4186,-86 1305.4186,-122"/>
<text text-anchor="middle" x="1235" y="-99.8" font-family="Times,serif" font-size="14.00" fill="#000000">RecepcionComponent</text>
</g>
<!-- RecepcionComponent&#45;&gt;AppModule -->
<g id="edge24" class="edge">
<title>RecepcionComponent&#45;&gt;AppModule</title>
<path fill="none" stroke="#000000" d="M1235,-122.1061C1235,-141.3391 1235,-169 1235,-169 1235,-169 2334.0134,-169 2334.0134,-169"/>
<polygon fill="#000000" stroke="#000000" points="2334.0135,-172.5001 2344.0134,-169 2334.0134,-165.5001 2334.0135,-172.5001"/>
</g>
<!-- RecordarcontrasenaComponent -->
<g id="node25" class="node">
<title>RecordarcontrasenaComponent</title>
<polygon fill="#ffffb3" stroke="#000000" points="1147.4888,-122 954.5112,-122 954.5112,-86 1147.4888,-86 1147.4888,-122"/>
<text text-anchor="middle" x="1051" y="-99.8" font-family="Times,serif" font-size="14.00" fill="#000000">RecordarcontrasenaComponent</text>
</g>
<!-- RecordarcontrasenaComponent&#45;&gt;AppModule -->
<g id="edge25" class="edge">
<title>RecordarcontrasenaComponent&#45;&gt;AppModule</title>
<path fill="none" stroke="#000000" d="M1051,-122.2228C1051,-142.3652 1051,-172 1051,-172 1051,-172 2334.2124,-172 2334.2124,-172"/>
<polygon fill="#000000" stroke="#000000" points="2334.2125,-175.5001 2344.2124,-172 2334.2124,-168.5001 2334.2125,-175.5001"/>
</g>
<!-- RedirectorComponent -->
<g id="node26" class="node">
<title>RedirectorComponent</title>
<polygon fill="#ffffb3" stroke="#000000" points="937.4158,-122 796.5842,-122 796.5842,-86 937.4158,-86 937.4158,-122"/>
<text text-anchor="middle" x="867" y="-99.8" font-family="Times,serif" font-size="14.00" fill="#000000">RedirectorComponent</text>
</g>
<!-- RedirectorComponent&#45;&gt;AppModule -->
<g id="edge26" class="edge">
<title>RedirectorComponent&#45;&gt;AppModule</title>
<path fill="none" stroke="#000000" d="M867,-122.0267C867,-142.7672 867,-174 867,-174 867,-174 2334.1861,-174 2334.1861,-174"/>
<polygon fill="#000000" stroke="#000000" points="2334.1861,-177.5001 2344.1861,-174 2334.1861,-170.5001 2334.1861,-177.5001"/>
</g>
<!-- StatusComponent -->
<g id="node27" class="node">
<title>StatusComponent</title>
<polygon fill="#ffffb3" stroke="#000000" points="778.5563,-122 663.4437,-122 663.4437,-86 778.5563,-86 778.5563,-122"/>
<text text-anchor="middle" x="721" y="-99.8" font-family="Times,serif" font-size="14.00" fill="#000000">StatusComponent</text>
</g>
<!-- StatusComponent&#45;&gt;AppModule -->
<g id="edge27" class="edge">
<title>StatusComponent&#45;&gt;AppModule</title>
<path fill="none" stroke="#000000" d="M721,-122.1686C721,-143.498 721,-176 721,-176 721,-176 2334.0097,-176 2334.0097,-176"/>
<polygon fill="#000000" stroke="#000000" points="2334.0098,-179.5001 2344.0097,-176 2334.0097,-172.5001 2334.0098,-179.5001"/>
</g>
<!-- SwitchCompanyComponent -->
<g id="node28" class="node">
<title>SwitchCompanyComponent</title>
<polygon fill="#ffffb3" stroke="#000000" points="645.1595,-122 470.8405,-122 470.8405,-86 645.1595,-86 645.1595,-122"/>
<text text-anchor="middle" x="558" y="-99.8" font-family="Times,serif" font-size="14.00" fill="#000000">SwitchCompanyComponent</text>
</g>
<!-- SwitchCompanyComponent&#45;&gt;AppModule -->
<g id="edge28" class="edge">
<title>SwitchCompanyComponent&#45;&gt;AppModule</title>
<path fill="none" stroke="#000000" d="M558,-122.2921C558,-144.2057 558,-178 558,-178 558,-178 2333.9461,-178 2333.9461,-178"/>
<polygon fill="#000000" stroke="#000000" points="2333.9461,-181.5001 2343.9461,-178 2333.946,-174.5001 2333.9461,-181.5001"/>
</g>
<!-- TarjetasComponent -->
<g id="node29" class="node">
<title>TarjetasComponent</title>
<polygon fill="#ffffb3" stroke="#000000" points="452.4159,-122 325.5841,-122 325.5841,-86 452.4159,-86 452.4159,-122"/>
<text text-anchor="middle" x="389" y="-99.8" font-family="Times,serif" font-size="14.00" fill="#000000">TarjetasComponent</text>
</g>
<!-- TarjetasComponent&#45;&gt;AppModule -->
<g id="edge29" class="edge">
<title>TarjetasComponent&#45;&gt;AppModule</title>
<path fill="none" stroke="#000000" d="M389,-122.2479C389,-145.0179 389,-181 389,-181 389,-181 2334.2898,-181 2334.2898,-181"/>
<polygon fill="#000000" stroke="#000000" points="2334.2899,-184.5001 2344.2898,-181 2334.2898,-177.5001 2334.2899,-184.5001"/>
</g>
<!-- UsuariosComponent -->
<g id="node30" class="node">
<title>UsuariosComponent</title>
<polygon fill="#ffffb3" stroke="#000000" points="307.594,-122 176.406,-122 176.406,-86 307.594,-86 307.594,-122"/>
<text text-anchor="middle" x="242" y="-99.8" font-family="Times,serif" font-size="14.00" fill="#000000">UsuariosComponent</text>
</g>
<!-- UsuariosComponent&#45;&gt;AppModule -->
<g id="edge30" class="edge">
<title>UsuariosComponent&#45;&gt;AppModule</title>
<path fill="none" stroke="#000000" d="M242,-122.3228C242,-145.6602 242,-183 242,-183 242,-183 2334.1341,-183 2334.1341,-183"/>
<polygon fill="#000000" stroke="#000000" points="2334.1342,-186.5001 2344.1341,-183 2334.1341,-179.5001 2334.1342,-186.5001"/>
</g>
<!-- AppComponent  -->
<g id="node33" class="node">
<title>AppComponent </title>
<polygon fill="#80b1d3" stroke="#000000" points="2440.439,-252 2331.561,-252 2331.561,-216 2440.439,-216 2440.439,-252"/>
<text text-anchor="middle" x="2386" y="-229.8" font-family="Times,serif" font-size="14.00" fill="#000000">AppComponent </text>
</g>
<!-- AppModule&#45;&gt;AppComponent  -->
<g id="edge32" class="edge">
<title>AppModule&#45;&gt;AppComponent </title>
<path fill="none" stroke="#000000" stroke-dasharray="1,5" d="M2386,-187.1061C2386,-187.1061 2386,-205.991 2386,-205.991"/>
<polygon fill="#000000" stroke="#000000" points="2382.5001,-205.9909 2386,-215.991 2389.5001,-205.991 2382.5001,-205.9909"/>
</g>
<!-- AppRoutingModule -->
<g id="node32" class="node">
<title>AppRoutingModule</title>
<polygon fill="#8dd3c7" stroke="#000000" points="152.2744,-122 149.2744,-126 128.2744,-126 125.2744,-122 23.7256,-122 23.7256,-86 152.2744,-86 152.2744,-122"/>
<text text-anchor="middle" x="88" y="-99.8" font-family="Times,serif" font-size="14.00" fill="#000000">AppRoutingModule</text>
</g>
<!-- AppRoutingModule&#45;&gt;AppModule -->
<g id="edge31" class="edge">
<title>AppRoutingModule&#45;&gt;AppModule</title>
<path fill="none" stroke="#000000" d="M88,-122.3802C88,-146.2785 88,-185 88,-185 88,-185 2334.1522,-185 2334.1522,-185"/>
<polygon fill="#000000" stroke="#000000" points="2334.1523,-188.5001 2344.1522,-185 2334.1522,-181.5001 2334.1523,-188.5001"/>
</g>
</g>
</svg>
