<?xml version="1.0" encoding="UTF-8" standalone="no"?>
<!DOCTYPE svg PUBLIC "-//W3C//DTD SVG 1.1//EN"
 "http://www.w3.org/Graphics/SVG/1.1/DTD/svg11.dtd">
<!-- Generated by graphviz version 2.40.1 (20161225.0304)
 -->
<!-- Title: dependencies Pages: 1 -->
<svg width="5424pt" height="284pt"
 viewBox="0.00 0.00 5424.00 284.00" xmlns="http://www.w3.org/2000/svg" xmlns:xlink="http://www.w3.org/1999/xlink">
<g id="graph0" class="graph" transform="scale(1 1) rotate(0) translate(4 280)">
<title>dependencies</title>
<polygon fill="#ffffff" stroke="transparent" points="-4,4 -4,-280 5420,-280 5420,4 -4,4"/>
<text text-anchor="start" x="2687.0091" y="-42.4" font-family="sans-serif" font-weight="bold" font-size="14.00" fill="#000000">Legend</text>
<polygon fill="#ffffb3" stroke="transparent" points="2474,-10 2474,-30 2494,-30 2494,-10 2474,-10"/>
<text text-anchor="start" x="2497.629" y="-15.4" font-family="sans-serif" font-size="14.00" fill="#000000"> &#160;Declarations</text>
<polygon fill="#8dd3c7" stroke="transparent" points="2587,-10 2587,-30 2607,-30 2607,-10 2587,-10"/>
<text text-anchor="start" x="2610.7251" y="-15.4" font-family="sans-serif" font-size="14.00" fill="#000000"> &#160;Module</text>
<polygon fill="#80b1d3" stroke="transparent" points="2673,-10 2673,-30 2693,-30 2693,-10 2673,-10"/>
<text text-anchor="start" x="2696.7812" y="-15.4" font-family="sans-serif" font-size="14.00" fill="#000000"> &#160;Bootstrap</text>
<polygon fill="#fdb462" stroke="transparent" points="2770,-10 2770,-30 2790,-30 2790,-10 2770,-10"/>
<text text-anchor="start" x="2793.6732" y="-15.4" font-family="sans-serif" font-size="14.00" fill="#000000"> &#160;Providers</text>
<polygon fill="#fb8072" stroke="transparent" points="2866,-10 2866,-30 2886,-30 2886,-10 2866,-10"/>
<text text-anchor="start" x="2889.7258" y="-15.4" font-family="sans-serif" font-size="14.00" fill="#000000"> &#160;Exports</text>
<g id="clust1" class="cluster">
<title>cluster_AppModule</title>
<polygon fill="none" stroke="#000000" stroke-dasharray="1,5" points="8,-70 8,-268 4754,-268 4754,-70 8,-70"/>
</g>
<g id="clust2" class="cluster">
<title>cluster_AppModule_declarations</title>
<polygon fill="none" stroke="#000000" points="168,-78 168,-130 4746,-130 4746,-78 168,-78"/>
</g>
<g id="clust33" class="cluster">
<title>cluster_AppModule_imports</title>
<polygon fill="none" stroke="#000000" points="16,-78 16,-130 160,-130 160,-78 16,-78"/>
</g>
<g id="clust35" class="cluster">
<title>cluster_AppModule_bootstrap</title>
<polygon fill="none" stroke="#000000" points="2324,-208 2324,-260 2448,-260 2448,-208 2324,-208"/>
</g>
<g id="clust43" class="cluster">
<title>cluster_AyudaModule</title>
<polygon fill="none" stroke="#000000" stroke-dasharray="1,5" points="4762,-70 4762,-195 5408,-195 5408,-70 4762,-70"/>
</g>
<g id="clust44" class="cluster">
<title>cluster_AyudaModule_declarations</title>
<polygon fill="none" stroke="#000000" points="4936,-78 4936,-130 5400,-130 5400,-78 4936,-78"/>
</g>
<g id="clust48" class="cluster">
<title>cluster_AyudaModule_imports</title>
<polygon fill="none" stroke="#000000" points="4770,-78 4770,-130 4928,-130 4928,-78 4770,-78"/>
</g>
<!-- ActivarUsuarioComponent -->
<g id="node1" class="node">
<title>ActivarUsuarioComponent</title>
<polygon fill="#ffffb3" stroke="#000000" points="4737.6274,-122 4570.3726,-122 4570.3726,-86 4737.6274,-86 4737.6274,-122"/>
<text text-anchor="middle" x="4654" y="-99.8" font-family="Times,serif" font-size="14.00" fill="#000000">ActivarUsuarioComponent</text>
</g>
<!-- AppModule -->
<g id="node31" class="node">
<title>AppModule</title>
<polygon fill="#8dd3c7" stroke="#000000" points="2427.6571,-187 2424.6571,-191 2403.6571,-191 2400.6571,-187 2344.3429,-187 2344.3429,-151 2427.6571,-151 2427.6571,-187"/>
<text text-anchor="middle" x="2386" y="-164.8" font-family="Times,serif" font-size="14.00" fill="#000000">AppModule</text>
</g>
<!-- ActivarUsuarioComponent&#45;&gt;AppModule -->
<g id="edge1" class="edge">
<title>ActivarUsuarioComponent&#45;&gt;AppModule</title>
<path fill="none" stroke="#000000" d="M4654,-122.3802C4654,-146.2785 4654,-185 4654,-185 4654,-185 2437.7923,-185 2437.7923,-185"/>
<polygon fill="#000000" stroke="#000000" points="2437.7923,-181.5001 2427.7923,-185 2437.7922,-188.5001 2437.7923,-181.5001"/>
</g>
<!-- AjustesComponent -->
<g id="node2" class="node">
<title>AjustesComponent</title>
<polygon fill="#ffffb3" stroke="#000000" points="4552.8244,-122 4429.1756,-122 4429.1756,-86 4552.8244,-86 4552.8244,-122"/>
<text text-anchor="middle" x="4491" y="-99.8" font-family="Times,serif" font-size="14.00" fill="#000000">AjustesComponent</text>
</g>
<!-- AjustesComponent&#45;&gt;AppModule -->
<g id="edge2" class="edge">
<title>AjustesComponent&#45;&gt;AppModule</title>
<path fill="none" stroke="#000000" d="M4491,-122.3228C4491,-145.6602 4491,-183 4491,-183 4491,-183 2438.0482,-183 2438.0482,-183"/>
<polygon fill="#000000" stroke="#000000" points="2438.0482,-179.5001 2428.0482,-183 2438.0481,-186.5001 2438.0482,-179.5001"/>
</g>
<!-- AppComponent -->
<g id="node3" class="node">
<title>AppComponent</title>
<polygon fill="#ffffb3" stroke="#000000" points="4411.9399,-122 4306.0601,-122 4306.0601,-86 4411.9399,-86 4411.9399,-122"/>
<text text-anchor="middle" x="4359" y="-99.8" font-family="Times,serif" font-size="14.00" fill="#000000">AppComponent</text>
</g>
<!-- AppComponent&#45;&gt;AppModule -->
<g id="edge3" class="edge">
<title>AppComponent&#45;&gt;AppModule</title>
<path fill="none" stroke="#000000" d="M4359,-122.2479C4359,-145.0179 4359,-181 4359,-181 4359,-181 2437.6641,-181 2437.6641,-181"/>
<polygon fill="#000000" stroke="#000000" points="2437.6642,-177.5001 2427.6641,-181 2437.6641,-184.5001 2437.6642,-177.5001"/>
</g>
<!-- BarrasComponent -->
<g id="node4" class="node">
<title>BarrasComponent</title>
<polygon fill="#ffffb3" stroke="#000000" points="4287.8641,-122 4170.1359,-122 4170.1359,-86 4287.8641,-86 4287.8641,-122"/>
<text text-anchor="middle" x="4229" y="-99.8" font-family="Times,serif" font-size="14.00" fill="#000000">BarrasComponent</text>
</g>
<!-- BarrasComponent&#45;&gt;AppModule -->
<g id="edge4" class="edge">
<title>BarrasComponent&#45;&gt;AppModule</title>
<path fill="none" stroke="#000000" d="M4229,-122.1554C4229,-144.3519 4229,-179 4229,-179 4229,-179 2437.9564,-179 2437.9564,-179"/>
<polygon fill="#000000" stroke="#000000" points="2437.9564,-175.5001 2427.9564,-179 2437.9564,-182.5001 2437.9564,-175.5001"/>
</g>
<!-- BuscadorEmisionComponent -->
<g id="node5" class="node">
<title>BuscadorEmisionComponent</title>
<polygon fill="#ffffb3" stroke="#000000" points="4152.3724,-122 3971.6276,-122 3971.6276,-86 4152.3724,-86 4152.3724,-122"/>
<text text-anchor="middle" x="4062" y="-99.8" font-family="Times,serif" font-size="14.00" fill="#000000">BuscadorEmisionComponent</text>
</g>
<!-- BuscadorEmisionComponent&#45;&gt;AppModule -->
<g id="edge5" class="edge">
<title>BuscadorEmisionComponent&#45;&gt;AppModule</title>
<path fill="none" stroke="#000000" d="M4062,-122.0449C4062,-143.6623 4062,-177 4062,-177 4062,-177 2437.8476,-177 2437.8476,-177"/>
<polygon fill="#000000" stroke="#000000" points="2437.8476,-173.5001 2427.8476,-177 2437.8476,-180.5001 2437.8476,-173.5001"/>
</g>
<!-- BuscadorRastreadorComponent -->
<g id="node6" class="node">
<title>BuscadorRastreadorComponent</title>
<polygon fill="#ffffb3" stroke="#000000" points="3953.3403,-122 3758.6597,-122 3758.6597,-86 3953.3403,-86 3953.3403,-122"/>
<text text-anchor="middle" x="3856" y="-99.8" font-family="Times,serif" font-size="14.00" fill="#000000">BuscadorRastreadorComponent</text>
</g>
<!-- BuscadorRastreadorComponent&#45;&gt;AppModule -->
<g id="edge6" class="edge">
<title>BuscadorRastreadorComponent&#45;&gt;AppModule</title>
<path fill="none" stroke="#000000" d="M3856,-122.2843C3856,-143.3211 3856,-175 3856,-175 3856,-175 2438.0168,-175 2438.0168,-175"/>
<polygon fill="#000000" stroke="#000000" points="2438.0168,-171.5001 2428.0168,-175 2438.0167,-178.5001 2438.0168,-171.5001"/>
</g>
<!-- BuscadorRecepcionComponent -->
<g id="node7" class="node">
<title>BuscadorRecepcionComponent</title>
<polygon fill="#ffffb3" stroke="#000000" points="3740.7892,-122 3547.2108,-122 3547.2108,-86 3740.7892,-86 3740.7892,-122"/>
<text text-anchor="middle" x="3644" y="-99.8" font-family="Times,serif" font-size="14.00" fill="#000000">BuscadorRecepcionComponent</text>
</g>
<!-- BuscadorRecepcionComponent&#45;&gt;AppModule -->
<g id="edge7" class="edge">
<title>BuscadorRecepcionComponent&#45;&gt;AppModule</title>
<path fill="none" stroke="#000000" d="M3644,-122.1289C3644,-142.5724 3644,-173 3644,-173 3644,-173 2437.8559,-173 2437.8559,-173"/>
<polygon fill="#000000" stroke="#000000" points="2437.8559,-169.5001 2427.8559,-173 2437.8559,-176.5001 2437.8559,-169.5001"/>
</g>
<!-- CargafeComponent -->
<g id="node8" class="node">
<title>CargafeComponent</title>
<polygon fill="#ffffb3" stroke="#000000" points="3529.6345,-122 3404.3655,-122 3404.3655,-86 3529.6345,-86 3529.6345,-122"/>
<text text-anchor="middle" x="3467" y="-99.8" font-family="Times,serif" font-size="14.00" fill="#000000">CargafeComponent</text>
</g>
<!-- CargafeComponent&#45;&gt;AppModule -->
<g id="edge8" class="edge">
<title>CargafeComponent&#45;&gt;AppModule</title>
<path fill="none" stroke="#000000" d="M3467,-122.308C3467,-142.1455 3467,-171 3467,-171 3467,-171 2437.7141,-171 2437.7141,-171"/>
<polygon fill="#000000" stroke="#000000" points="2437.7141,-167.5001 2427.7141,-171 2437.7141,-174.5001 2437.7141,-167.5001"/>
</g>
<!-- CounterPipe -->
<g id="node9" class="node">
<title>CounterPipe</title>
<polygon fill="#ffffb3" stroke="#000000" points="3385.9902,-122 3300.0098,-122 3300.0098,-86 3385.9902,-86 3385.9902,-122"/>
<text text-anchor="middle" x="3343" y="-99.8" font-family="Times,serif" font-size="14.00" fill="#000000">CounterPipe</text>
</g>
<!-- CounterPipe&#45;&gt;AppModule -->
<g id="edge9" class="edge">
<title>CounterPipe&#45;&gt;AppModule</title>
<path fill="none" stroke="#000000" d="M3343,-122.1686C3343,-141.0898 3343,-168 3343,-168 3343,-168 2437.7365,-168 2437.7365,-168"/>
<polygon fill="#000000" stroke="#000000" points="2437.7365,-164.5001 2427.7365,-168 2437.7364,-171.5001 2437.7365,-164.5001"/>
</g>
<!-- EmisionComponent -->
<g id="node10" class="node">
<title>EmisionComponent</title>
<polygon fill="#ffffb3" stroke="#000000" points="3282.0014,-122 3153.9986,-122 3153.9986,-86 3282.0014,-86 3282.0014,-122"/>
<text text-anchor="middle" x="3218" y="-99.8" font-family="Times,serif" font-size="14.00" fill="#000000">EmisionComponent</text>
</g>
<!-- EmisionComponent&#45;&gt;AppModule -->
<g id="edge10" class="edge">
<title>EmisionComponent&#45;&gt;AppModule</title>
<path fill="none" stroke="#000000" d="M3218,-122.2667C3218,-140.5552 3218,-166 3218,-166 3218,-166 2437.8292,-166 2437.8292,-166"/>
<polygon fill="#000000" stroke="#000000" points="2437.8292,-162.5001 2427.8292,-166 2437.8292,-169.5001 2437.8292,-162.5001"/>
</g>
<!-- EmisionfComponent -->
<g id="node11" class="node">
<title>EmisionfComponent</title>
<polygon fill="#ffffb3" stroke="#000000" points="3136.1624,-122 3003.8376,-122 3003.8376,-86 3136.1624,-86 3136.1624,-122"/>
<text text-anchor="middle" x="3070" y="-99.8" font-family="Times,serif" font-size="14.00" fill="#000000">EmisionfComponent</text>
</g>
<!-- EmisionfComponent&#45;&gt;AppModule -->
<g id="edge11" class="edge">
<title>EmisionfComponent&#45;&gt;AppModule</title>
<path fill="none" stroke="#000000" d="M3070,-122.002C3070,-139.6754 3070,-164 3070,-164 3070,-164 2437.7576,-164 2437.7576,-164"/>
<polygon fill="#000000" stroke="#000000" points="2437.7577,-160.5001 2427.7576,-164 2437.7576,-167.5001 2437.7577,-160.5001"/>
</g>
<!-- FilasComponent -->
<g id="node12" class="node">
<title>FilasComponent</title>
<polygon fill="#ffffb3" stroke="#000000" points="2985.0563,-122 2876.9437,-122 2876.9437,-86 2985.0563,-86 2985.0563,-122"/>
<text text-anchor="middle" x="2931" y="-99.8" font-family="Times,serif" font-size="14.00" fill="#000000">FilasComponent</text>
</g>
<!-- FilasComponent&#45;&gt;AppModule -->
<g id="edge12" class="edge">
<title>FilasComponent&#45;&gt;AppModule</title>
<path fill="none" stroke="#000000" d="M2931,-122.0336C2931,-139.0597 2931,-162 2931,-162 2931,-162 2437.8603,-162 2437.8603,-162"/>
<polygon fill="#000000" stroke="#000000" points="2437.8603,-158.5001 2427.8603,-162 2437.8603,-165.5001 2437.8603,-158.5001"/>
</g>
<!-- InfopieComponent -->
<g id="node13" class="node">
<title>InfopieComponent</title>
<polygon fill="#ffffb3" stroke="#000000" points="2858.759,-122 2737.241,-122 2737.241,-86 2858.759,-86 2858.759,-122"/>
<text text-anchor="middle" x="2798" y="-99.8" font-family="Times,serif" font-size="14.00" fill="#000000">InfopieComponent</text>
</g>
<!-- InfopieComponent&#45;&gt;AppModule -->
<g id="edge13" class="edge">
<title>InfopieComponent&#45;&gt;AppModule</title>
<path fill="none" stroke="#000000" d="M2798,-122.027C2798,-138.3976 2798,-160 2798,-160 2798,-160 2437.7721,-160 2437.7721,-160"/>
<polygon fill="#000000" stroke="#000000" points="2437.7721,-156.5001 2427.7721,-160 2437.772,-163.5001 2437.7721,-156.5001"/>
</g>
<!-- InicioComponent -->
<g id="node14" class="node">
<title>InicioComponent</title>
<polygon fill="#ffffb3" stroke="#000000" points="2718.9888,-122 2605.0112,-122 2605.0112,-86 2718.9888,-86 2718.9888,-122"/>
<text text-anchor="middle" x="2662" y="-99.8" font-family="Times,serif" font-size="14.00" fill="#000000">InicioComponent</text>
</g>
<!-- InicioComponent&#45;&gt;AppModule -->
<g id="edge14" class="edge">
<title>InicioComponent&#45;&gt;AppModule</title>
<path fill="none" stroke="#000000" d="M2662,-122.2819C2662,-137.9478 2662,-158 2662,-158 2662,-158 2437.9185,-158 2437.9185,-158"/>
<polygon fill="#000000" stroke="#000000" points="2437.9185,-154.5001 2427.9185,-158 2437.9184,-161.5001 2437.9185,-154.5001"/>
</g>
<!-- LibraryComponent -->
<g id="node15" class="node">
<title>LibraryComponent</title>
<polygon fill="#ffffb3" stroke="#000000" points="2586.8118,-122 2463.1882,-122 2463.1882,-86 2586.8118,-86 2586.8118,-122"/>
<text text-anchor="middle" x="2525" y="-99.8" font-family="Times,serif" font-size="14.00" fill="#000000">LibraryComponent</text>
</g>
<!-- LibraryComponent&#45;&gt;AppModule -->
<g id="edge15" class="edge">
<title>LibraryComponent&#45;&gt;AppModule</title>
<path fill="none" stroke="#000000" d="M2525,-122.1871C2525,-137.1824 2525,-156 2525,-156 2525,-156 2437.7046,-156 2437.7046,-156"/>
<polygon fill="#000000" stroke="#000000" points="2437.7046,-152.5001 2427.7046,-156 2437.7045,-159.5001 2437.7046,-152.5001"/>
</g>
<!-- LineasComponent -->
<g id="node16" class="node">
<title>LineasComponent</title>
<polygon fill="#ffffb3" stroke="#000000" points="2445.1499,-122 2326.8501,-122 2326.8501,-86 2445.1499,-86 2445.1499,-122"/>
<text text-anchor="middle" x="2386" y="-99.8" font-family="Times,serif" font-size="14.00" fill="#000000">LineasComponent</text>
</g>
<!-- LineasComponent&#45;&gt;AppModule -->
<g id="edge16" class="edge">
<title>LineasComponent&#45;&gt;AppModule</title>
<path fill="none" stroke="#000000" d="M2386,-122.1061C2386,-122.1061 2386,-140.991 2386,-140.991"/>
<polygon fill="#000000" stroke="#000000" points="2382.5001,-140.9909 2386,-150.991 2389.5001,-140.991 2382.5001,-140.9909"/>
</g>
<!-- LoginComponent -->
<g id="node17" class="node">
<title>LoginComponent</title>
<polygon fill="#ffffb3" stroke="#000000" points="2308.2758,-122 2193.7242,-122 2193.7242,-86 2308.2758,-86 2308.2758,-122"/>
<text text-anchor="middle" x="2251" y="-99.8" font-family="Times,serif" font-size="14.00" fill="#000000">LoginComponent</text>
</g>
<!-- LoginComponent&#45;&gt;AppModule -->
<g id="edge17" class="edge">
<title>LoginComponent&#45;&gt;AppModule</title>
<path fill="none" stroke="#000000" d="M2251,-122.0511C2251,-136.373 2251,-154 2251,-154 2251,-154 2334.0252,-154 2334.0252,-154"/>
<polygon fill="#000000" stroke="#000000" points="2334.0252,-157.5001 2344.0252,-154 2334.0251,-150.5001 2334.0252,-157.5001"/>
</g>
<!-- Navbar0Component -->
<g id="node18" class="node">
<title>Navbar0Component</title>
<polygon fill="#ffffb3" stroke="#000000" points="2175.5297,-122 2046.4703,-122 2046.4703,-86 2175.5297,-86 2175.5297,-122"/>
<text text-anchor="middle" x="2111" y="-99.8" font-family="Times,serif" font-size="14.00" fill="#000000">Navbar0Component</text>
</g>
<!-- Navbar0Component&#45;&gt;AppModule -->
<g id="edge18" class="edge">
<title>Navbar0Component&#45;&gt;AppModule</title>
<path fill="none" stroke="#000000" d="M2111,-122.1871C2111,-137.1824 2111,-156 2111,-156 2111,-156 2334.2334,-156 2334.2334,-156"/>
<polygon fill="#000000" stroke="#000000" points="2334.2335,-159.5001 2344.2334,-156 2334.2334,-152.5001 2334.2335,-159.5001"/>
</g>
<!-- NavbarComponent -->
<g id="node19" class="node">
<title>NavbarComponent</title>
<polygon fill="#ffffb3" stroke="#000000" points="2028.0297,-122 1905.9703,-122 1905.9703,-86 2028.0297,-86 2028.0297,-122"/>
<text text-anchor="middle" x="1967" y="-99.8" font-family="Times,serif" font-size="14.00" fill="#000000">NavbarComponent</text>
</g>
<!-- NavbarComponent&#45;&gt;AppModule -->
<g id="edge19" class="edge">
<title>NavbarComponent&#45;&gt;AppModule</title>
<path fill="none" stroke="#000000" d="M1967,-122.2819C1967,-137.9478 1967,-158 1967,-158 1967,-158 2334.2928,-158 2334.2928,-158"/>
<polygon fill="#000000" stroke="#000000" points="2334.2929,-161.5001 2344.2928,-158 2334.2928,-154.5001 2334.2929,-161.5001"/>
</g>
<!-- PdfviewerComponent -->
<g id="node20" class="node">
<title>PdfviewerComponent</title>
<polygon fill="#ffffb3" stroke="#000000" points="1887.3627,-122 1748.6373,-122 1748.6373,-86 1887.3627,-86 1887.3627,-122"/>
<text text-anchor="middle" x="1818" y="-99.8" font-family="Times,serif" font-size="14.00" fill="#000000">PdfviewerComponent</text>
</g>
<!-- PdfviewerComponent&#45;&gt;AppModule -->
<g id="edge20" class="edge">
<title>PdfviewerComponent&#45;&gt;AppModule</title>
<path fill="none" stroke="#000000" d="M1818,-122.027C1818,-138.3976 1818,-160 1818,-160 1818,-160 2334.2336,-160 2334.2336,-160"/>
<polygon fill="#000000" stroke="#000000" points="2334.2336,-163.5001 2344.2336,-160 2334.2336,-156.5001 2334.2336,-163.5001"/>
</g>
<!-- PieComponent -->
<g id="node21" class="node">
<title>PieComponent</title>
<polygon fill="#ffffb3" stroke="#000000" points="1730.7204,-122 1631.2796,-122 1631.2796,-86 1730.7204,-86 1730.7204,-122"/>
<text text-anchor="middle" x="1681" y="-99.8" font-family="Times,serif" font-size="14.00" fill="#000000">PieComponent</text>
</g>
<!-- PieComponent&#45;&gt;AppModule -->
<g id="edge21" class="edge">
<title>PieComponent&#45;&gt;AppModule</title>
<path fill="none" stroke="#000000" d="M1681,-122.0225C1681,-139.3734 1681,-163 1681,-163 1681,-163 2334.271,-163 2334.271,-163"/>
<polygon fill="#000000" stroke="#000000" points="2334.2711,-166.5001 2344.271,-163 2334.271,-159.5001 2334.2711,-166.5001"/>
</g>
<!-- PrecargaComponent -->
<g id="node22" class="node">
<title>PrecargaComponent</title>
<polygon fill="#ffffb3" stroke="#000000" points="1613.2949,-122 1482.7051,-122 1482.7051,-86 1613.2949,-86 1613.2949,-122"/>
<text text-anchor="middle" x="1548" y="-99.8" font-family="Times,serif" font-size="14.00" fill="#000000">PrecargaComponent</text>
</g>
<!-- PrecargaComponent&#45;&gt;AppModule -->
<g id="edge22" class="edge">
<title>PrecargaComponent&#45;&gt;AppModule</title>
<path fill="none" stroke="#000000" d="M1548,-122.302C1548,-140.2699 1548,-165 1548,-165 1548,-165 2334.1567,-165 2334.1567,-165"/>
<polygon fill="#000000" stroke="#000000" points="2334.1568,-168.5001 2344.1567,-165 2334.1567,-161.5001 2334.1568,-168.5001"/>
</g>
<!-- RastreadorComponent -->
<g id="node23" class="node">
<title>RastreadorComponent</title>
<polygon fill="#ffffb3" stroke="#000000" points="1464.9692,-122 1323.0308,-122 1323.0308,-86 1464.9692,-86 1464.9692,-122"/>
<text text-anchor="middle" x="1394" y="-99.8" font-family="Times,serif" font-size="14.00" fill="#000000">RastreadorComponent</text>
</g>
<!-- RastreadorComponent&#45;&gt;AppModule -->
<g id="edge23" class="edge">
<title>RastreadorComponent&#45;&gt;AppModule</title>
<path fill="none" stroke="#000000" d="M1394,-122.2222C1394,-140.8285 1394,-167 1394,-167 1394,-167 2334.3238,-167 2334.3238,-167"/>
<polygon fill="#000000" stroke="#000000" points="2334.3239,-170.5001 2344.3238,-167 2334.3238,-163.5001 2334.3239,-170.5001"/>
</g>
<!-- RecepcionComponent -->
<g id="node24" class="node">
<title>RecepcionComponent</title>
<polygon fill="#ffffb3" stroke="#000000" points="1305.4186,-122 1164.5814,-122 1164.5814,-86 1305.4186,-86 1305.4186,-122"/>
<text text-anchor="middle" x="1235" y="-99.8" font-family="Times,serif" font-size="14.00" fill="#000000">RecepcionComponent</text>
</g>
<!-- RecepcionComponent&#45;&gt;AppModule -->
<g id="edge24" class="edge">
<title>RecepcionComponent&#45;&gt;AppModule</title>
<path fill="none" stroke="#000000" d="M1235,-122.1061C1235,-141.3391 1235,-169 1235,-169 1235,-169 2334.0134,-169 2334.0134,-169"/>
<polygon fill="#000000" stroke="#000000" points="2334.0135,-172.5001 2344.0134,-169 2334.0134,-165.5001 2334.0135,-172.5001"/>
</g>
<!-- RecordarcontrasenaComponent -->
<g id="node25" class="node">
<title>RecordarcontrasenaComponent</title>
<polygon fill="#ffffb3" stroke="#000000" points="1147.4888,-122 954.5112,-122 954.5112,-86 1147.4888,-86 1147.4888,-122"/>
<text text-anchor="middle" x="1051" y="-99.8" font-family="Times,serif" font-size="14.00" fill="#000000">RecordarcontrasenaComponent</text>
</g>
<!-- RecordarcontrasenaComponent&#45;&gt;AppModule -->
<g id="edge25" class="edge">
<title>RecordarcontrasenaComponent&#45;&gt;AppModule</title>
<path fill="none" stroke="#000000" d="M1051,-122.2228C1051,-142.3652 1051,-172 1051,-172 1051,-172 2334.2124,-172 2334.2124,-172"/>
<polygon fill="#000000" stroke="#000000" points="2334.2125,-175.5001 2344.2124,-172 2334.2124,-168.5001 2334.2125,-175.5001"/>
</g>
<!-- RedirectorComponent -->
<g id="node26" class="node">
<title>RedirectorComponent</title>
<polygon fill="#ffffb3" stroke="#000000" points="937.4158,-122 796.5842,-122 796.5842,-86 937.4158,-86 937.4158,-122"/>
<text text-anchor="middle" x="867" y="-99.8" font-family="Times,serif" font-size="14.00" fill="#000000">RedirectorComponent</text>
</g>
<!-- RedirectorComponent&#45;&gt;AppModule -->
<g id="edge26" class="edge">
<title>RedirectorComponent&#45;&gt;AppModule</title>
<path fill="none" stroke="#000000" d="M867,-122.0267C867,-142.7672 867,-174 867,-174 867,-174 2334.1861,-174 2334.1861,-174"/>
<polygon fill="#000000" stroke="#000000" points="2334.1861,-177.5001 2344.1861,-174 2334.1861,-170.5001 2334.1861,-177.5001"/>
</g>
<!-- StatusComponent -->
<g id="node27" class="node">
<title>StatusComponent</title>
<polygon fill="#ffffb3" stroke="#000000" points="778.5563,-122 663.4437,-122 663.4437,-86 778.5563,-86 778.5563,-122"/>
<text text-anchor="middle" x="721" y="-99.8" font-family="Times,serif" font-size="14.00" fill="#000000">StatusComponent</text>
</g>
<!-- StatusComponent&#45;&gt;AppModule -->
<g id="edge27" class="edge">
<title>StatusComponent&#45;&gt;AppModule</title>
<path fill="none" stroke="#000000" d="M721,-122.1686C721,-143.498 721,-176 721,-176 721,-176 2334.0097,-176 2334.0097,-176"/>
<polygon fill="#000000" stroke="#000000" points="2334.0098,-179.5001 2344.0097,-176 2334.0097,-172.5001 2334.0098,-179.5001"/>
</g>
<!-- SwitchCompanyComponent -->
<g id="node28" class="node">
<title>SwitchCompanyComponent</title>
<polygon fill="#ffffb3" stroke="#000000" points="645.1595,-122 470.8405,-122 470.8405,-86 645.1595,-86 645.1595,-122"/>
<text text-anchor="middle" x="558" y="-99.8" font-family="Times,serif" font-size="14.00" fill="#000000">SwitchCompanyComponent</text>
</g>
<!-- SwitchCompanyComponent&#45;&gt;AppModule -->
<g id="edge28" class="edge">
<title>SwitchCompanyComponent&#45;&gt;AppModule</title>
<path fill="none" stroke="#000000" d="M558,-122.2921C558,-144.2057 558,-178 558,-178 558,-178 2333.9461,-178 2333.9461,-178"/>
<polygon fill="#000000" stroke="#000000" points="2333.9461,-181.5001 2343.9461,-178 2333.946,-174.5001 2333.9461,-181.5001"/>
</g>
<!-- TarjetasComponent -->
<g id="node29" class="node">
<title>TarjetasComponent</title>
<polygon fill="#ffffb3" stroke="#000000" points="452.4159,-122 325.5841,-122 325.5841,-86 452.4159,-86 452.4159,-122"/>
<text text-anchor="middle" x="389" y="-99.8" font-family="Times,serif" font-size="14.00" fill="#000000">TarjetasComponent</text>
</g>
<!-- TarjetasComponent&#45;&gt;AppModule -->
<g id="edge29" class="edge">
<title>TarjetasComponent&#45;&gt;AppModule</title>
<path fill="none" stroke="#000000" d="M389,-122.2479C389,-145.0179 389,-181 389,-181 389,-181 2334.2898,-181 2334.2898,-181"/>
<polygon fill="#000000" stroke="#000000" points="2334.2899,-184.5001 2344.2898,-181 2334.2898,-177.5001 2334.2899,-184.5001"/>
</g>
<!-- UsuariosComponent -->
<g id="node30" class="node">
<title>UsuariosComponent</title>
<polygon fill="#ffffb3" stroke="#000000" points="307.594,-122 176.406,-122 176.406,-86 307.594,-86 307.594,-122"/>
<text text-anchor="middle" x="242" y="-99.8" font-family="Times,serif" font-size="14.00" fill="#000000">UsuariosComponent</text>
</g>
<!-- UsuariosComponent&#45;&gt;AppModule -->
<g id="edge30" class="edge">
<title>UsuariosComponent&#45;&gt;AppModule</title>
<path fill="none" stroke="#000000" d="M242,-122.3228C242,-145.6602 242,-183 242,-183 242,-183 2334.1341,-183 2334.1341,-183"/>
<polygon fill="#000000" stroke="#000000" points="2334.1342,-186.5001 2344.1341,-183 2334.1341,-179.5001 2334.1342,-186.5001"/>
</g>
<!-- AppComponent  -->
<g id="node33" class="node">
<title>AppComponent </title>
<polygon fill="#80b1d3" stroke="#000000" points="2440.439,-252 2331.561,-252 2331.561,-216 2440.439,-216 2440.439,-252"/>
<text text-anchor="middle" x="2386" y="-229.8" font-family="Times,serif" font-size="14.00" fill="#000000">AppComponent </text>
</g>
<!-- AppModule&#45;&gt;AppComponent  -->
<g id="edge32" class="edge">
<title>AppModule&#45;&gt;AppComponent </title>
<path fill="none" stroke="#000000" stroke-dasharray="1,5" d="M2386,-187.1061C2386,-187.1061 2386,-205.991 2386,-205.991"/>
<polygon fill="#000000" stroke="#000000" points="2382.5001,-205.9909 2386,-215.991 2389.5001,-205.991 2382.5001,-205.9909"/>
</g>
<!-- AppRoutingModule -->
<g id="node32" class="node">
<title>AppRoutingModule</title>
<polygon fill="#8dd3c7" stroke="#000000" points="152.2744,-122 149.2744,-126 128.2744,-126 125.2744,-122 23.7256,-122 23.7256,-86 152.2744,-86 152.2744,-122"/>
<text text-anchor="middle" x="88" y="-99.8" font-family="Times,serif" font-size="14.00" fill="#000000">AppRoutingModule</text>
</g>
<!-- AppRoutingModule&#45;&gt;AppModule -->
<g id="edge31" class="edge">
<title>AppRoutingModule&#45;&gt;AppModule</title>
<path fill="none" stroke="#000000" d="M88,-122.3802C88,-146.2785 88,-185 88,-185 88,-185 2334.1522,-185 2334.1522,-185"/>
<polygon fill="#000000" stroke="#000000" points="2334.1523,-188.5001 2344.1522,-185 2334.1522,-181.5001 2334.1523,-188.5001"/>
</g>
<!-- AyudaComponent -->
<g id="node34" class="node">
<title>AyudaComponent</title>
<polygon fill="#ffffb3" stroke="#000000" points="5392.1541,-122 5273.8459,-122 5273.8459,-86 5392.1541,-86 5392.1541,-122"/>
<text text-anchor="middle" x="5333" y="-99.8" font-family="Times,serif" font-size="14.00" fill="#000000">AyudaComponent</text>
</g>
<!-- AyudaModule -->
<g id="node37" class="node">
<title>AyudaModule</title>
<polygon fill="#8dd3c7" stroke="#000000" points="5132.3711,-187 5129.3711,-191 5108.3711,-191 5105.3711,-187 5035.6289,-187 5035.6289,-151 5132.3711,-151 5132.3711,-187"/>
<text text-anchor="middle" x="5084" y="-164.8" font-family="Times,serif" font-size="14.00" fill="#000000">AyudaModule</text>
</g>
<!-- AyudaComponent&#45;&gt;AyudaModule -->
<g id="edge33" class="edge">
<title>AyudaComponent&#45;&gt;AyudaModule</title>
<path fill="none" stroke="#000000" d="M5333,-122.1061C5333,-141.3391 5333,-169 5333,-169 5333,-169 5142.6008,-169 5142.6008,-169"/>
<polygon fill="#000000" stroke="#000000" points="5142.6008,-165.5001 5132.6008,-169 5142.6008,-172.5001 5142.6008,-165.5001"/>
</g>
<!-- ContenidoAyudaComponent -->
<g id="node35" class="node">
<title>ContenidoAyudaComponent</title>
<polygon fill="#ffffb3" stroke="#000000" points="5255.486,-122 5078.514,-122 5078.514,-86 5255.486,-86 5255.486,-122"/>
<text text-anchor="middle" x="5167" y="-99.8" font-family="Times,serif" font-size="14.00" fill="#000000">ContenidoAyudaComponent</text>
</g>
<!-- ContenidoAyudaComponent&#45;&gt;AyudaModule -->
<g id="edge34" class="edge">
<title>ContenidoAyudaComponent&#45;&gt;AyudaModule</title>
<path fill="none" stroke="#000000" d="M5105.4712,-122.1061C5105.4712,-122.1061 5105.4712,-140.991 5105.4712,-140.991"/>
<polygon fill="#000000" stroke="#000000" points="5101.9713,-140.9909 5105.4712,-150.991 5108.9713,-140.991 5101.9713,-140.9909"/>
</g>
<!-- IndiceComponent -->
<g id="node36" class="node">
<title>IndiceComponent</title>
<polygon fill="#ffffb3" stroke="#000000" points="5060.3132,-122 4943.6868,-122 4943.6868,-86 5060.3132,-86 5060.3132,-122"/>
<text text-anchor="middle" x="5002" y="-99.8" font-family="Times,serif" font-size="14.00" fill="#000000">IndiceComponent</text>
</g>
<!-- IndiceComponent&#45;&gt;AyudaModule -->
<g id="edge35" class="edge">
<title>IndiceComponent&#45;&gt;AyudaModule</title>
<path fill="none" stroke="#000000" d="M5047.8605,-122.1061C5047.8605,-122.1061 5047.8605,-140.991 5047.8605,-140.991"/>
<polygon fill="#000000" stroke="#000000" points="5044.3605,-140.9909 5047.8605,-150.991 5051.3605,-140.991 5044.3605,-140.9909"/>
</g>
<!-- AyudaRoutingModule -->
<g id="node38" class="node">
<title>AyudaRoutingModule</title>
<polygon fill="#8dd3c7" stroke="#000000" points="4919.9888,-122 4916.9888,-126 4895.9888,-126 4892.9888,-122 4778.0112,-122 4778.0112,-86 4919.9888,-86 4919.9888,-122"/>
<text text-anchor="middle" x="4849" y="-99.8" font-family="Times,serif" font-size="14.00" fill="#000000">AyudaRoutingModule</text>
</g>
<!-- AyudaRoutingModule&#45;&gt;AyudaModule -->
<g id="edge36" class="edge">
<title>AyudaRoutingModule&#45;&gt;AyudaModule</title>
<path fill="none" stroke="#000000" d="M4849,-122.0511C4849,-136.373 4849,-154 4849,-154 4849,-154 5025.5928,-154 5025.5928,-154"/>
<polygon fill="#000000" stroke="#000000" points="5025.5928,-157.5001 5035.5928,-154 5025.5928,-150.5001 5025.5928,-157.5001"/>
</g>
</g>
</svg>
